<svg id="write" xmlns="http://www.w3.org/2000/svg" viewBox="0 0 30 30"><style>.st0{fill:none;} .st1{fill:#FFFFFF;}</style><path d="M27.5 10.8c0-.2-.1-.4-.2-.6l-2.7-2.7c-.3-.3-.8-.3-1.1 0l-1.6 1.6-9.2 9.2c-.1.1-.2.3-.2.5l-.3 3c0 .2.1.5.2.6.2.2.4.2.6.2h.1l3-.3c.2 0 .4-.1.5-.2l9.2-9.2 1.6-1.6c0-.1.1-.3.1-.5zm-1.9 0l-.5.5-1.6-1.6.5-.5 1.6 1.6zM15.5 20.9l-1.7.1.2-1.7 8.5-8.5 1.6 1.6-8.6 8.5z"/><path class="st0" d="M6 11.3h10.2c.4 0 .8.4.8.8s-.4.8-.8.8H6c-.4 0-.8-.4-.8-.8s.4-.8.8-.8zM24 9.2l1.6 1.6-.5.5-1.6-1.6.5-.5z"/><path d="M18.5 25.7H4.1V4.3h10.6v4.2h3.8v2.8l1.6-1.6V8.5c0-.4-.1-.8-.4-1.1l-3.8-4.2c-.3-.3-.7-.5-1.2-.5H4.1c-.9 0-1.6.7-1.6 1.6v21.4c0 .9.7 1.6 1.6 1.6h14.4c.9 0 1.6-.7 1.6-1.6v-6.1l-1.6 1.6v4.5z"/><path d="M6 12.9h10.2c.4 0 .8-.4.8-.8s-.4-.8-.8-.8H6c-.4 0-.8.4-.8.8s.4.8.8.8zM6 19.3c-.4 0-.8.4-.8.8s.4.8.8.8h5.3l.2-1.6H6zM6 15.3c-.4 0-.8.4-.8.8s.4.8.8.8h6.9l1.6-1.6H6z"/><path class="st1" d="M23.98 9.193l1.555 1.555-.495.495-1.556-1.555z"/></svg>