<svg xmlns="http://www.w3.org/2000/svg" viewBox="0 0 30 30"><path d="M16.7 26.7h-.1c-2.4-.5-3.6-1.1-3.6-1.9v-.9c0-.2.1-.3.2-.4.6-.4.9-1.3.9-2 0-1.2-.8-1.7-1.7-1.7s-1.7.5-1.7 1.7c0 .8.4 1.6.9 2 .1.1.2.3.2.4v.9c0 .8-1.2 1.5-3.6 1.9-.3.1-.6-.1-.7-.4-.1-.3.1-.6.4-.7 1.2-.2 2.4-.7 2.7-.9v-.5c-.7-.7-1.1-1.7-1.1-2.8 0-1.7 1.2-2.9 2.8-2.9s2.8 1.2 2.8 2.9c0 1-.4 2.1-1.1 2.8v.5c.3.3 1.5.7 2.7.9.3.1.5.4.4.7.1.2-.1.4-.4.4zM18 16.5c-.3 0-.5-.2-.6-.5-.1-.3.1-.6.4-.7 1.2-.2 2.4-.7 2.7-.9v-.5c-.7-.7-1.1-1.7-1.1-2.8 0-1.7 1.2-2.9 2.8-2.9 1.6 0 2.8 1.2 2.8 2.9 0 1-.4 2.1-1.1 2.8v.5c.3.3 1.5.7 2.7.9.3.1.5.4.4.7-.1.3-.4.5-.7.4-2.4-.5-3.6-1.1-3.6-1.9v-.9c0-.2.1-.3.2-.4.6-.4.9-1.3.9-2 0-1.2-.8-1.7-1.7-1.7s-1.7.5-1.7 1.7c0 .8.4 1.6.9 2 .1.1.2.3.2.4v.9c0 .8-1.2 1.5-3.6 1.9.2.1.2.1.1.1zM4.1 11.8c-.3 0-.5-.2-.6-.5-.1-.3.1-.6.4-.7 1.2-.2 2.4-.7 2.7-.9v-.4c-.7-.7-1.1-1.8-1.1-2.8 0-1.7 1.2-2.9 2.8-2.9 1.6 0 2.8 1.2 2.8 2.9 0 1-.4 2.1-1.1 2.8v.5c.3.3 1.5.7 2.7.9.3.1.5.4.4.7-.1.3-.4.5-.7.4-2.4-.5-3.6-1.1-3.6-1.9V9c0-.2.1-.3.2-.4.6-.4.9-1.3.9-2 0-1.2-.8-1.7-1.7-1.7s-1.6.4-1.6 1.6c0 .8.4 1.6.9 2 .2.2.3.3.3.5v.9c0 .8-1.2 1.5-3.6 1.9h-.1zM24.8 19c-.1-.1-.3 0-.4.1-.9 1.8-2.2 3.3-3.9 4.4v-1l-1.9 2.1c-.1.1 0 .2.1.2l2.8-.1-.8-.7c1.8-1.1 3.3-2.8 4.2-4.7.1-.1.1-.2-.1-.3zM18.7 5.6l2.8.6c.1 0 .2-.1.1-.2l-1.5-2.4-.2 1c-1.9-1-4-1.4-6.2-1.3-.2 0-.3.1-.3.3 0 .2.2.3.3.3 2-.2 4 .2 5.8 1.2l-.8.5zM4.5 16.9l.9.3-1.3-2.5c-.1-.1-.2-.1-.2 0L3 17.4l.9-.4c.4 2.1 1.5 4 3 5.5.1.1.1.1.2.1s.1 0 .2-.1.1-.3 0-.4c-1.4-1.4-2.4-3.2-2.8-5.2z"/></svg>