<svg xmlns="http://www.w3.org/2000/svg" viewBox="0 0 30 30"><path d="M20.3 9.3l-2.9 1.5c0 .1-.1.1-.1.2v9.2c0 .1.1.1.1.2h.2l2.8-1.3 5-.5c.1 0 .1 0 .2-.1v-.1c0-.1.1-.1.1-.2V8.7c0-.1 0-.2-.1-.2s-.1-.1-.2-.1l-5.1.9zm.2.6l4-.7-4.1 4.3-2.3-2.4 2.4-1.2zm4.6 7.7L20.9 14l4.3-4.4v8zM20 14.1l-2.1 4.5v-6.7l2.1 2.2zm.3 4.4h-.1l-2 .9 2.3-4.9 4.1 3.5-4.3.5zM3.6 7.7l4 .6h.1c.1 0 .3-.1.3-.3 0-.2-.1-.4-.3-.4l-4-.6c-.2 0-.4.1-.4.3 0 .2.1.4.3.4zM3.6 12.3l5.7.9 3.9 1.8h.1c.1 0 .2-.1.3-.2.1-.2 0-.4-.2-.4l-3.9-1.8h-.1l-5.7-.9c-.2 0-.4.1-.4.3 0 .1.1.3.3.3zM13.4 16.8L9.5 15h-.1l-5.7-.9c-.2 0-.4.1-.4.3 0 .2.1.4.3.4l5.7.9 3.9 1.8h.1c.1 0 .2-.1.3-.2.1-.2 0-.4-.2-.5zM13.4 19.3l-3.9-1.8h-.1l-5.7-.9c-.2 0-.4.1-.4.3 0 .2.1.4.3.4l5.7.9 3.9 1.8h.1c.1 0 .2-.1.3-.2.1-.2 0-.4-.2-.5z"/><path d="M29 3.8c-.1-.1-.3-.2-.5-.2l-8.2 1.3c-.1 0-.1 0-.2.1L15 7.3 9.9 5c-.1 0-.1 0-.2-.1L1.5 3.6c-.2 0-.4 0-.5.2-.2.1-.2.3-.2.5v18.2c0 .3.3.6.6.7l8.1 1 5.3 2.2h.6l5.3-2.2 8.1-1c.3 0 .6-.3.6-.7V4.3c-.2-.2-.2-.4-.4-.5zm-19.3 19l-7.6-.9V5.1l7.3 1.2 5.2 2.4v16.1l-4.8-2c0 .1 0 0-.1 0zm18.2-.9l-7.6.9h-.2l-4.8 2V8.7l5.2-2.4 7.3-1.2v16.8z"/></svg>