<svg xmlns="http://www.w3.org/2000/svg" viewBox="0 0 30 30"><circle cx="19" cy="6.3" r=".6"/><path d="M27.6 4.7c-1.5-1.5-7.2-2.3-10.5-1.5-1.7.4-3.6 2.6-3.6 4.9v1.1c0 1.5 0 2.3-.5 2.8-.4.4-.9.7-1.5 1-.6.4-1.2.7-1.6 1.2-1.3 1.6-2.4 2.1-3.8 1.6-1.5-.5-1.6-2.2-1.5-4.7 0-1 0-2-.2-2.8-.1-.2-.3-.3-.5-.4-.2 0-.5.1-.6.3-1.6 3-2.2 8 .5 11.9 1 1.5 2.4 2.7 4.1 3.6.1.2.2.3.4.3v1c0 .1-.1 1 .5 1.5.3.3.7.5 1.1.5 1.3 0 1.8-1 1.9-1.5l.2-.8.2.4c.2.5.7 1.3 1.6 1.3h.5c1.3-.3 1.3-1.6 1.3-2v-.9c.7-.3 1.7-1 2.6-2.8.5-1.1.7-2.2.8-3.2.2.1.4.1.6.1.5 0 1-.2 1.4-.7.3-.3.3-.7.3-1.1-.1-.7-.7-1.1-.8-1.1l-1.4-1c.2-.9.5-1.4.6-1.7.8.1 2.5.2 3.5-.1.9-.2 1.4-1 1.7-1.7.1 0 .2.1.2.1.2 0 .4-.1.5-.2.8-.6 3.5-3.8 2-5.4zM14.8 23.6v.8c0 .8-.2 1.1-.7 1.1h-.2c-.6 0-.9-.7-.9-.7l-.3-.6-.1-.1h.3c.5-.1 1-.2 1.5-.4.2-.1.3-.1.4-.1 0 0 0-.1 0 0zm5.3-8.2c.1.1.4.3.4.6 0 .1 0 .2-.1.4-.4.6-1 .3-1 .3l-.3-.1-.3-.1v-.3-.3l-.1-1.1s0-.1.1-.2v-.1h.1l1.2.9zm5.4-6.3s0 .1 0 0l-.6-.8-.5-.7c-.1-.1-.3-.2-.4-.1l-1.4.9-.8-1.2c-.1-.1-.3-.2-.4-.1l-1.9 1.1c-.1.1-.2.3-.1.4.1.1.3.2.4.1l1.7-1 .8 1.3c.1.1.3.2.4.1l1.4-.9.3.5.2.3c0 .1-.1.2-.1.4-.2.6-.6 1.4-1.3 1.6-1.2.3-3.6 0-3.6 0h-.2l-.1.1c-.3.4-.7 1.3-1 2.7-.1.2-.1.4-.1.5 0 .2-.1.3-.1.3l.1 1.2v.8c0 1-.1 2.4-.7 3.7-.9 1.8-1.8 2.2-2.4 2.5l-.2.1c-.1.1-.2.1-.3.1-.6.2-1.2.4-1.8.5-.2 0-.3.1-.5.1h-.2-.1v-.1l.1-.2.5-1.9c0-.2-.1-.3-.2-.4-.2 0-.3.1-.4.2l-.5 2.1-.1.5-.1.5-.3 1s-.2.8-1.1.8c-.2 0-.4-.1-.5-.2-.2-.2-.3-.7-.2-.9v-2.9c0-.2-.2-.3-.3-.3-.2 0-.3.1-.3.3V23.1h-.1c-.1 0-.2-.1-.2-.1-1.6-.9-2.8-2-3.7-3.4-2.4-3.6-1.8-7.8-.8-10.1v1.6c0 2.2-.1 4.9 2.1 5.6 2.6.8 4.3-1.3 4.8-1.9.3-.3.8-.6 1.3-.9.6-.3 1.2-.7 1.7-1.1.8-.8.8-2 .7-3.4V8.3c0-1.9 1.6-3.7 2.9-4 3.2-.8 8.5.1 9.7 1.2.7.6-.7 2.6-1.5 3.6z"/><path d="M16.8 15.2l-1.5-1.6c-.1-.1-.3-.1-.4 0-.1.1-.1.3 0 .4l1.5 1.6s.2.2.2.5c0 .1-.1.3-.2.4-.5.5-.9.2-1 .2l-2.7-1.6c-.1-.1-.3 0-.4.1-.1.1 0 .3.1.4l2.7 1.6c.1.1.4.2.6.2.3 0 .7-.1 1.1-.5.3-.3.4-.6.4-.8.1-.5-.3-.9-.4-.9z"/></svg>