<svg xmlns="http://www.w3.org/2000/svg" viewBox="0 0 30 30"><path d="M14.5 12.6l2.9 2.1c.2.1.2.4 0 .5l-2.9 2.1c-.2.2-.5 0-.5-.3v-4.2c0-.2.3-.3.5-.2zM2.5 4.3h1.2v21.3H2.5zM4.1 26.3h21.8v1.2H4.1zM26.3 4.3h1.2v21.3h-1.2zM4.3 2.5h21.3v1.2H4.3z"/><path d="M28.5 4.6h-3.1V1.5h3.1v3.1zM26 4h1.9V2.1H26V4zM4.6 4.6H1.5V1.5h3.1v3.1zM2.1 4H4V2.1H2.1V4zM4.6 28.5H1.5v-3.1h3.1v3.1zm-2.5-.6H4V26H2.1v1.9zM28.5 28.5h-3.1v-3.1h3.1v3.1zm-2.5-.6h1.9V26H26v1.9zM15 9.5c3 0 5.5 2.4 5.5 5.5S18 20.5 15 20.5 9.5 18 9.5 15 12 9.5 15 9.5m0-1.8c-4 0-7.3 3.3-7.3 7.3s3.3 7.3 7.3 7.3 7.3-3.3 7.3-7.3S19 7.7 15 7.7z"/></svg>