<svg xmlns="http://www.w3.org/2000/svg" viewBox="0 0 30 30"><path d="M25.8 22.7v4.4h-8.9l-2.2-2.2 2.2-2.2h8.9m.3-2h-9.4c-.4 0-.9.2-1.2.5L13 23.8c-.6.6-.6 1.7 0 2.3l2.5 2.6c.3.3.7.5 1.2.5h9.4c.9 0 1.7-.7 1.7-1.7v-5.1c0-.9-.8-1.7-1.7-1.7zM25.8 12.8v4.4h-8.9L14.7 15l2.2-2.2h8.9m.3-2h-9.4c-.4 0-.9.2-1.2.5L13 13.8c-.6.6-.6 1.7 0 2.3l2.5 2.6c.3.3.7.5 1.2.5h9.4c.9 0 1.7-.7 1.7-1.7v-5.1c0-.9-.8-1.6-1.7-1.6zM25.8 2.8v4.4h-8.9L14.7 5l2.2-2.2h8.9m.3-2h-9.4c-.4 0-.9.2-1.2.5L13 3.9c-.6.6-.6 1.7 0 2.3l2.5 2.6c.3.3.7.5 1.2.5h9.4c.9 0 1.7-.7 1.7-1.7V2.5c0-.9-.8-1.7-1.7-1.7zM5.5 28.9c-.4 0-.8-.1-1.1-.2-.3-.1-.7-.3-.9-.5-.3-.2-.4-.5-.6-.8-.1-.3-.2-.7-.2-1.1 0-.5.1-1.1.3-1.5.2-.5.5-.9.9-1.3s.8-.7 1.3-.9 1.1-.3 1.6-.3c.3 0 .7 0 1.1.1.4.1.6.2.8.3l.3-.4h.4l-.5 2.3h-.4c-.1-.7-.2-1.2-.5-1.5-.3-.4-.7-.5-1.2-.5-.3 0-.7.1-1 .3-.3.2-.6.5-.8 1-.2.4-.3.8-.4 1.2-.1.5-.1.9-.1 1.3 0 .6.1 1.1.4 1.4s.7.5 1.2.5c.4 0 .8-.1 1.2-.4.4-.2.7-.6 1.1-1l.3.2c-.1.2-.3.5-.5.7-.2.2-.4.4-.7.6-.3.2-.6.3-.8.4-.4 0-.7.1-1.2.1zM6.9 12.4c.8 0 1.3.1 1.7.3.4.2.5.5.5.9 0 .3-.1.5-.2.7-.1.2-.3.4-.5.5-.2.1-.4.3-.7.3-.2.1-.5.2-.8.2v.1c.2 0 .4.1.6.1.2.1.4.2.5.3.2.1.3.2.4.4.1.2.1.4.1.6 0 .7-.3 1.2-.8 1.5-.5.3-1.4.5-2.4.5H2.1l.1-.3h.3s.3 0 .3-.1c.1 0 .2-.1.3-.2.1-.1.1-.2.1-.3l1-4.4v-.2-.1c0-.1-.1-.2-.2-.3-.1-.1-.3-.1-.6-.2l.1-.3h3.4zm.1 4.3c0-.3-.1-.6-.3-.8s-.5-.3-1-.3h-.4L4.8 18c0 .1.1.2.2.3.2.1.3.1.5.1.4 0 .7-.2 1-.5.4-.3.5-.7.5-1.2zm.4-3.1c0-.3-.1-.5-.3-.6-.2-.1-.4-.2-.7-.2H6l-.6 2.4h.3c.5 0 .9-.1 1.2-.4s.5-.7.5-1.2zM5.6 8.8l.1-.3c.3 0 .5-.1.7-.1.2-.1.3-.1.3-.2v-.1V8l-.3-1.3H4.2c-.1.1-.2.2-.3.4s-.2.4-.2.5c-.2.2-.2.3-.2.4v.1c0 .1.1.2.2.2.1.1.3.2.6.2l-.1.3H1.5l.1-.3h.3c.1 0 .2-.1.3-.1.1-.1.2-.2.4-.3.1-.1.2-.2.3-.4.6-.9 1.2-1.8 1.7-2.6s1.1-1.7 1.8-2.7h.9c.2 1.3.4 2.4.6 3.3s.3 1.6.4 2.2c0 .1 0 .2.1.2s.1.1.2.2c.1 0 .2.1.3.1h.3l-.2.4H5.6zm.7-2.5L5.9 4 4.5 6.3h1.8z"/></svg>