<svg xmlns="http://www.w3.org/2000/svg" viewBox="0 0 30 30"><path d="M26.8 3H3.2C1.9 3 .9 4.1.9 5.4v15.8c0 1.3 1.1 2.3 2.3 2.3h8.1v2.3H7.1c-.3 0-.5.2-.5.5v.1c0 .3.2.5.5.5h15.8c.3 0 .5-.2.5-.5v-.1c0-.3-.2-.5-.5-.5h-4.3v-2.3h8.1c1.3 0 2.3-1.1 2.3-2.3V5.4c.1-1.3-.9-2.4-2.2-2.4zm1.3 18.1c0 .7-.6 1.3-1.3 1.3H3.2c-.7 0-1.3-.6-1.3-1.3V5.4c0-.8.6-1.4 1.3-1.4h23.5c.7 0 1.3.6 1.3 1.3v15.8z"/><path d="M26.8 4.8H3.2c-.3 0-.6.3-.6.6v13.7c0 .3.3.6.6.6h23.5c.3 0 .6-.3.6-.6V5.4c0-.3-.2-.6-.5-.6zm0 14.3c0 .1 0 .1 0 0l-23.6.1s-.1 0-.1-.1V5.4s0-.1.1-.1h23.5s.1 0 .1.1v13.7z"/><path d="M14.2 9.9l.6 4.7h1l.6-4.7V7.3h-2.2M14.3 15.4h2.1v2h-2.1z"/></svg>