<?xml version="1.0" encoding="utf-8"?>
<!-- Generator: Adobe Illustrator 17.0.0, SVG Export Plug-In . SVG Version: 6.00 Build 0)  -->
<!DOCTYPE svg PUBLIC "-//W3C//DTD SVG 1.1//EN" "http://www.w3.org/Graphics/SVG/1.1/DTD/svg11.dtd">
<svg version="1.1" id="Layer_1" xmlns="http://www.w3.org/2000/svg" xmlns:xlink="http://www.w3.org/1999/xlink" x="0px" y="0px"
	 width="50px" height="150px" viewBox="0 0 50 150" enable-background="new 0 0 50 150" xml:space="preserve">
<path fill="#FFFFFF" d="M10.496,59.617c0-0.552-0.195-1.023-0.586-1.414s-0.862-0.586-1.414-0.586s-1.023,0.195-1.414,0.586
	s-0.586,0.862-0.586,1.414s0.195,1.023,0.586,1.414s0.862,0.586,1.414,0.586s1.023-0.195,1.414-0.586S10.496,60.169,10.496,59.617z
	 M16.496,63.617c0-0.271-0.099-0.505-0.297-0.703s-0.432-0.297-0.703-0.297s-0.505,0.099-0.703,0.297s-0.297,0.432-0.297,0.703
	c0,0.276,0.098,0.512,0.293,0.707s0.431,0.293,0.707,0.293s0.512-0.098,0.707-0.293S16.496,63.893,16.496,63.617z M16.496,55.617
	c0-0.271-0.099-0.505-0.297-0.703s-0.432-0.297-0.703-0.297s-0.505,0.099-0.703,0.297s-0.297,0.432-0.297,0.703
	c0,0.276,0.098,0.512,0.293,0.707s0.431,0.293,0.707,0.293s0.512-0.098,0.707-0.293S16.496,55.893,16.496,55.617z M13.496,58.906
	v1.445c0,0.052-0.018,0.103-0.055,0.152s-0.078,0.077-0.125,0.082l-1.211,0.188c-0.057,0.182-0.141,0.38-0.25,0.594
	c0.177,0.25,0.411,0.549,0.703,0.898c0.036,0.052,0.055,0.104,0.055,0.156c0,0.063-0.018,0.112-0.055,0.148
	c-0.12,0.156-0.335,0.389-0.645,0.699s-0.514,0.465-0.613,0.465c-0.057,0-0.112-0.018-0.164-0.055l-0.898-0.703
	c-0.193,0.099-0.393,0.18-0.602,0.242c-0.057,0.563-0.117,0.966-0.18,1.211c-0.036,0.125-0.115,0.188-0.234,0.188H7.769
	c-0.057,0-0.109-0.02-0.156-0.059s-0.073-0.085-0.078-0.137l-0.18-1.195c-0.177-0.052-0.372-0.133-0.586-0.242L5.848,63.68
	c-0.036,0.036-0.089,0.055-0.156,0.055c-0.057,0-0.112-0.021-0.164-0.063c-0.75-0.693-1.125-1.109-1.125-1.25
	c0-0.047,0.018-0.096,0.055-0.148c0.052-0.073,0.159-0.211,0.32-0.414s0.284-0.362,0.367-0.477c-0.12-0.229-0.211-0.443-0.273-0.641
	l-1.188-0.188c-0.052-0.005-0.096-0.03-0.133-0.074s-0.055-0.095-0.055-0.152v-1.445c0-0.052,0.018-0.103,0.055-0.152
	s0.078-0.077,0.125-0.082l1.211-0.188c0.057-0.182,0.141-0.38,0.25-0.594c-0.177-0.25-0.411-0.549-0.703-0.898
	c-0.036-0.057-0.055-0.109-0.055-0.156c0-0.063,0.018-0.115,0.055-0.156c0.115-0.156,0.328-0.388,0.641-0.695S5.592,55.5,5.691,55.5
	c0.057,0,0.112,0.018,0.164,0.055l0.898,0.703c0.177-0.094,0.378-0.177,0.602-0.25c0.057-0.563,0.117-0.964,0.18-1.203
	c0.036-0.125,0.115-0.188,0.234-0.188h1.453c0.057,0,0.109,0.02,0.156,0.059s0.073,0.085,0.078,0.137l0.18,1.195
	c0.177,0.052,0.372,0.133,0.586,0.242l0.922-0.695c0.042-0.036,0.094-0.055,0.156-0.055c0.057,0,0.112,0.021,0.164,0.063
	c0.75,0.693,1.125,1.109,1.125,1.25c0,0.047-0.018,0.096-0.055,0.148c-0.063,0.083-0.172,0.224-0.328,0.422
	s-0.273,0.354-0.352,0.469c0.12,0.25,0.208,0.464,0.266,0.641l1.188,0.18c0.052,0.01,0.096,0.038,0.133,0.082
	S13.496,58.849,13.496,58.906z M18.496,63.07v1.094c0,0.083-0.388,0.164-1.164,0.242c-0.063,0.141-0.141,0.276-0.234,0.406
	c0.266,0.589,0.398,0.948,0.398,1.078c0,0.021-0.01,0.039-0.031,0.055c-0.635,0.37-0.958,0.555-0.969,0.555
	c-0.042,0-0.161-0.122-0.359-0.367s-0.333-0.422-0.406-0.531c-0.104,0.01-0.182,0.016-0.234,0.016s-0.13-0.005-0.234-0.016
	c-0.073,0.109-0.208,0.286-0.406,0.531S14.538,66.5,14.496,66.5c-0.01,0-0.333-0.185-0.969-0.555
	c-0.021-0.016-0.031-0.034-0.031-0.055c0-0.13,0.133-0.49,0.398-1.078c-0.094-0.13-0.172-0.266-0.234-0.406
	c-0.776-0.078-1.164-0.159-1.164-0.242V63.07c0-0.083,0.388-0.164,1.164-0.242c0.068-0.151,0.146-0.286,0.234-0.406
	c-0.266-0.589-0.398-0.948-0.398-1.078c0-0.021,0.01-0.039,0.031-0.055c0.021-0.01,0.112-0.063,0.273-0.156s0.315-0.182,0.461-0.266
	s0.224-0.125,0.234-0.125c0.042,0,0.161,0.121,0.359,0.363s0.333,0.418,0.406,0.527c0.104-0.01,0.182-0.016,0.234-0.016
	s0.13,0.005,0.234,0.016c0.266-0.37,0.505-0.661,0.719-0.875l0.047-0.016c0.021,0,0.344,0.182,0.969,0.547
	c0.021,0.016,0.031,0.034,0.031,0.055c0,0.13-0.133,0.49-0.398,1.078c0.089,0.12,0.167,0.255,0.234,0.406
	C18.108,62.906,18.496,62.987,18.496,63.07z M18.496,55.07v1.094c0,0.083-0.388,0.164-1.164,0.242
	c-0.063,0.141-0.141,0.276-0.234,0.406c0.266,0.589,0.398,0.948,0.398,1.078c0,0.021-0.01,0.039-0.031,0.055
	c-0.635,0.37-0.958,0.555-0.969,0.555c-0.042,0-0.161-0.122-0.359-0.367s-0.333-0.422-0.406-0.531
	c-0.104,0.01-0.182,0.016-0.234,0.016s-0.13-0.005-0.234-0.016c-0.073,0.109-0.208,0.286-0.406,0.531S14.538,58.5,14.496,58.5
	c-0.01,0-0.333-0.185-0.969-0.555c-0.021-0.016-0.031-0.034-0.031-0.055c0-0.13,0.133-0.49,0.398-1.078
	c-0.094-0.13-0.172-0.266-0.234-0.406c-0.776-0.078-1.164-0.159-1.164-0.242V55.07c0-0.083,0.388-0.164,1.164-0.242
	c0.068-0.151,0.146-0.286,0.234-0.406c-0.266-0.589-0.398-0.948-0.398-1.078c0-0.021,0.01-0.039,0.031-0.055
	c0.021-0.01,0.112-0.063,0.273-0.156s0.315-0.182,0.461-0.266s0.224-0.125,0.234-0.125c0.042,0,0.161,0.121,0.359,0.363
	s0.333,0.418,0.406,0.527c0.104-0.01,0.182-0.016,0.234-0.016s0.13,0.005,0.234,0.016c0.266-0.37,0.505-0.661,0.719-0.875
	l0.047-0.016c0.021,0,0.344,0.182,0.969,0.547c0.021,0.016,0.031,0.034,0.031,0.055c0,0.13-0.133,0.49-0.398,1.078
	c0.089,0.12,0.167,0.255,0.234,0.406C18.108,54.906,18.496,54.987,18.496,55.07z"/>
<path fill="#FFFFFF" d="M17.44,4.764c-0.159-0.16-0.417-0.16-0.575,0l-6.057,6.029c-0.159,0.161-0.418,0.161-0.575,0L7.578,8.09
	C7.5,8.01,7.397,7.971,7.293,7.97C7.189,7.97,7.083,8.009,7.003,8.09L5.83,9.145c-0.078,0.08-0.12,0.18-0.12,0.285
	c0,0.105,0.042,0.215,0.121,0.295l2.676,2.808c0.158,0.16,0.418,0.42,0.575,0.58l1.151,1.16c0.158,0.159,0.417,0.159,0.575,0
	l7.783-7.769c0.159-0.159,0.159-0.421,0-0.58L17.44,4.764z"/>
<path fill="#FFFFFF" d="M16.402,105.733c0.149,0.149,0.149,0.393,0,0.542l-2.987,2.984c-0.149,0.148-0.149,0.393,0,0.543
	l2.986,2.985c0.149,0.149,0.149,0.393,0,0.543l-1.088,1.084c-0.149,0.148-0.394,0.148-0.544,0l-2.985-2.985
	c-0.149-0.149-0.394-0.149-0.543,0l-2.987,2.983c-0.149,0.149-0.394,0.149-0.543,0l-1.086-1.085c-0.149-0.149-0.149-0.393,0-0.543
	l2.988-2.984c0.149-0.148,0.149-0.393,0-0.543l-2.986-2.986c-0.149-0.149-0.149-0.394,0-0.543l1.087-1.084
	c0.15-0.148,0.394-0.148,0.544,0l2.984,2.984c0.149,0.149,0.394,0.149,0.543,0l2.987-2.983c0.148-0.148,0.393-0.148,0.543,0
	L16.402,105.733z"/>
</svg>
