<?xml version="1.0" encoding="utf-8"?>
<!-- Generator: Adobe Illustrator 16.0.0, SVG Export Plug-In . SVG Version: 6.00 Build 0)  -->
<!DOCTYPE svg PUBLIC "-//W3C//DTD SVG 1.0//EN" "http://www.w3.org/TR/2001/REC-SVG-20010904/DTD/svg10.dtd" [
	<!ENTITY ns_flows "http://ns.adobe.com/Flows/1.0/">
	<!ENTITY ns_extend "http://ns.adobe.com/Extensibility/1.0/">
	<!ENTITY ns_ai "http://ns.adobe.com/AdobeIllustrator/10.0/">
	<!ENTITY ns_graphs "http://ns.adobe.com/Graphs/1.0/">
]>
<svg version="1.0" id="shape" xmlns:x="&ns_extend;" xmlns:i="&ns_ai;" xmlns:graph="&ns_graphs;"
	 xmlns="http://www.w3.org/2000/svg" xmlns:xlink="http://www.w3.org/1999/xlink" xmlns:a="http://ns.adobe.com/AdobeSVGViewerExtensions/3.0/"
	 x="0px" y="0px" width="21px" height="21px" viewBox="0 0 21 21" enable-background="new 0 0 21 21" xml:space="preserve">
<g>
	<path fill="#1A7000" d="M10.512,0.047c1.43,0,2.783,0.275,4.061,0.826s2.385,1.295,3.322,2.232s1.682,2.045,2.232,3.322
		s0.826,2.631,0.826,4.061c0,1.453-0.275,2.807-0.826,4.061s-1.295,2.35-2.232,3.287s-2.045,1.676-3.322,2.215
		s-2.631,0.809-4.061,0.809c-1.453,0-2.807-0.27-4.061-0.809s-2.35-1.277-3.287-2.215s-1.676-2.033-2.215-3.287
		s-0.809-2.607-0.809-4.061c0-1.43,0.27-2.783,0.809-4.061s1.277-2.385,2.215-3.322s2.033-1.682,3.287-2.232
		S9.059,0.047,10.512,0.047z M15.996,7.324c0.117-0.141,0.158-0.293,0.123-0.457s-0.123-0.305-0.264-0.422l-0.949-0.633
		c-0.328-0.164-0.598-0.117-0.809,0.141l-4.605,6.855l-2.145-2.18c-0.258-0.164-0.527-0.164-0.809,0l-0.844,0.879
		c-0.117,0.117-0.176,0.246-0.176,0.387s0.059,0.27,0.176,0.387L9,15.586c0.117,0.07,0.234,0.141,0.352,0.211
		s0.234,0.105,0.352,0.105c0.328,0,0.574-0.152,0.738-0.457L15.996,7.324z"/>
</g>
<g>
</g>
<g>
</g>
<g>
</g>
<g>
</g>
<g>
</g>
<g>
</g>
<g>
</g>
<g>
</g>
<g>
</g>
<g>
</g>
<g>
</g>
<g>
</g>
<g>
</g>
<g>
</g>
<g>
</g>
</svg>
