<?xml version="1.0" encoding="utf-8"?>
<!-- Generator: Adobe Illustrator 16.0.0, SVG Export Plug-In . SVG Version: 6.00 Build 0)  -->
<!DOCTYPE svg PUBLIC "-//W3C//DTD SVG 1.0//EN" "http://www.w3.org/TR/2001/REC-SVG-20010904/DTD/svg10.dtd" [
	<!ENTITY ns_flows "http://ns.adobe.com/Flows/1.0/">
	<!ENTITY ns_extend "http://ns.adobe.com/Extensibility/1.0/">
	<!ENTITY ns_ai "http://ns.adobe.com/AdobeIllustrator/10.0/">
	<!ENTITY ns_graphs "http://ns.adobe.com/Graphs/1.0/">
]>
<svg version="1.0" id="shape" xmlns:x="&ns_extend;" xmlns:i="&ns_ai;" xmlns:graph="&ns_graphs;"
	 xmlns="http://www.w3.org/2000/svg" xmlns:xlink="http://www.w3.org/1999/xlink" xmlns:a="http://ns.adobe.com/AdobeSVGViewerExtensions/3.0/"
	 x="0px" y="0px" width="21px" height="21px" viewBox="0 0 21 21" enable-background="new 0 0 21 21" xml:space="preserve">
<g>
	<path fill="#FF9421" d="M20.531,16.324c0.234,0.422,0.369,0.82,0.404,1.195s-0.035,0.703-0.211,0.984s-0.434,0.504-0.773,0.668
		s-0.756,0.246-1.248,0.246H2.391c-1.031,0-1.717-0.311-2.057-0.932s-0.264-1.342,0.229-2.162L8.719,2.121
		c0.492-0.867,1.09-1.301,1.793-1.301s1.324,0.434,1.863,1.301L20.531,16.324z M9.422,6.164C9.281,6.305,9.176,6.48,9.105,6.691
		S9,7.113,9,7.324c0,0.094,0.035,0.328,0.105,0.703s0.146,0.826,0.229,1.354s0.17,1.102,0.264,1.723s0.164,1.213,0.211,1.775h1.406
		c0.07-0.563,0.152-1.154,0.246-1.775s0.188-1.195,0.281-1.723s0.176-0.979,0.246-1.354s0.105-0.609,0.105-0.703
		c0-0.211-0.035-0.422-0.105-0.633s-0.176-0.387-0.316-0.527c-0.328-0.328-0.715-0.492-1.16-0.492
		C10.043,5.672,9.68,5.836,9.422,6.164z M11.602,16.465c0.328-0.258,0.492-0.621,0.492-1.09s-0.164-0.855-0.492-1.16
		c-0.141-0.141-0.305-0.258-0.492-0.352s-0.387-0.141-0.598-0.141c-0.398,0-0.762,0.164-1.09,0.492C9.141,14.543,9,14.93,9,15.375
		s0.141,0.809,0.422,1.09c0.141,0.117,0.311,0.217,0.51,0.299s0.393,0.123,0.58,0.123c0.211,0,0.41-0.041,0.598-0.123
		S11.461,16.582,11.602,16.465z"/>
</g>
<g>
</g>
<g>
</g>
<g>
</g>
<g>
</g>
<g>
</g>
<g>
</g>
<g>
</g>
<g>
</g>
<g>
</g>
<g>
</g>
<g>
</g>
<g>
</g>
<g>
</g>
<g>
</g>
<g>
</g>
</svg>
