<?xml version="1.0" encoding="utf-8"?>
<!-- Generator: Adobe Illustrator 17.0.0, SVG Export Plug-In . SVG Version: 6.00 Build 0)  -->
<!DOCTYPE svg PUBLIC "-//W3C//DTD SVG 1.1//EN" "http://www.w3.org/Graphics/SVG/1.1/DTD/svg11.dtd">
<svg version="1.1" id="Layer_1" xmlns="http://www.w3.org/2000/svg" xmlns:xlink="http://www.w3.org/1999/xlink" x="0px" y="0px"
	 width="36px" height="36px" viewBox="0 0 36 36" enable-background="new 0 0 36 36" xml:space="preserve">
<g>
	<path fill="#FFFFFF" d="M0.126,13.306h3.07l0.365,3.476h3.354L6.55,13.306h3.083l1.044,9.934H7.594l-0.422-4.018H3.818L4.24,23.24
		H1.17L0.126,13.306z"/>
	<path fill="#FFFFFF" d="M27.738,13.306h5.103c1.111,0,1.916,0.264,2.414,0.793c0.498,0.529,0.696,1.281,0.593,2.257
		c-0.105,1.003-0.489,1.787-1.152,2.351c-0.662,0.565-1.613,0.847-2.85,0.847h-1.681l-0.387,3.686h-3.083L27.738,13.306z
		 M30.376,17.541h0.752c0.592,0,1.018-0.103,1.279-0.308c0.261-0.205,0.408-0.469,0.442-0.789c0.033-0.312-0.043-0.576-0.228-0.793
		c-0.185-0.217-0.564-0.325-1.138-0.325h-0.874L30.376,17.541z"/>
	<g>
		<polygon fill="#E24E26" points="12.431,25.515 11.035,9.851 26.38,9.851 24.982,25.512 18.698,27.254 		"/>
		<polygon fill="#F06529" points="18.707,25.923 23.785,24.515 24.98,11.132 18.707,11.132 		"/>
		<polygon fill="#EAEAEA" points="18.707,16.941 16.165,16.941 15.99,14.974 18.707,14.974 18.707,13.053 18.701,13.053 
			13.89,13.053 13.936,13.568 14.408,18.862 18.707,18.862 		"/>
		<polygon fill="#EAEAEA" points="18.707,21.93 18.699,21.933 16.56,21.355 16.423,19.823 15.383,19.823 14.494,19.823 
			14.763,22.839 18.699,23.932 18.707,23.929 		"/>
		<polygon fill="#FFFFFF" points="18.701,16.941 18.701,18.862 21.066,18.862 20.843,21.354 18.701,21.932 18.701,23.931 
			22.639,22.839 22.668,22.514 23.119,17.457 23.166,16.941 22.649,16.941 		"/>
		<polygon fill="#FFFFFF" points="18.701,13.053 18.701,14.246 18.701,14.969 18.701,14.974 23.335,14.974 23.335,14.974 
			23.341,14.974 23.38,14.542 23.467,13.568 23.513,13.053 		"/>
	</g>
</g>
</svg>
