<?xml version="1.0" encoding="utf-8"?>
<!-- Generator: Adobe Illustrator 16.0.0, SVG Export Plug-In . SVG Version: 6.00 Build 0)  -->
<!DOCTYPE svg PUBLIC "-//W3C//DTD SVG 1.1//EN" "http://www.w3.org/Graphics/SVG/1.1/DTD/svg11.dtd">
<svg version="1.1" id="Layer_1" xmlns="http://www.w3.org/2000/svg" xmlns:xlink="http://www.w3.org/1999/xlink" x="0px" y="0px"
	 width="20px" height="16px" viewBox="0 0 20 16" enable-background="new 0 0 20 16" xml:space="preserve">
<g id="Layer_2" display="none">
	<rect x="-3" y="-2" display="inline" fill="#1A1A1A" width="33" height="23"/>
</g>
<path fill="#FFFFFF" d="M15.795,6.872c-0.25-0.037-0.516-0.261-0.593-0.5l-0.37-0.901c-0.116-0.222-0.089-0.569,0.061-0.77
	L15.495,3.9c0.15-0.201,0.138-0.52-0.028-0.707l-0.66-0.661c-0.188-0.166-0.506-0.178-0.708-0.027l-0.802,0.601
	c-0.2,0.151-0.546,0.178-0.769,0.061l-0.901-0.37c-0.24-0.077-0.465-0.342-0.498-0.591l-0.143-0.991
	c-0.035-0.249-0.268-0.474-0.518-0.5c0,0-0.154-0.016-0.468-0.016c-0.313,0-0.469,0.016-0.469,0.016
	c-0.25,0.027-0.482,0.251-0.518,0.5L8.872,2.205c-0.036,0.25-0.26,0.515-0.499,0.591l-0.901,0.37
	C7.25,3.283,6.904,3.256,6.703,3.105L5.901,2.503C5.7,2.353,5.381,2.365,5.193,2.531l-0.66,0.661
	C4.368,3.38,4.354,3.698,4.506,3.899l0.601,0.802C5.258,4.902,5.285,5.248,5.169,5.47L4.797,6.372
	c-0.076,0.239-0.342,0.464-0.591,0.5l-0.991,0.14c-0.249,0.036-0.473,0.269-0.5,0.519c0,0-0.016,0.154-0.016,0.469
	s0.016,0.469,0.016,0.469c0.027,0.25,0.251,0.483,0.5,0.52l0.991,0.141c0.249,0.035,0.515,0.26,0.591,0.498l0.372,0.902
	c0.116,0.221,0.089,0.568-0.062,0.768L4.506,12.1c-0.151,0.201-0.188,0.475-0.081,0.605c0.106,0.131,0.412,0.457,0.413,0.459
	c0,0,0.104,0.096,0.228,0.209c0.125,0.113,0.634,0.273,0.835,0.123l0.802-0.602c0.201-0.15,0.546-0.18,0.77-0.061l0.9,0.369
	c0.239,0.076,0.464,0.342,0.499,0.592l0.142,0.992c0.035,0.248,0.268,0.473,0.519,0.5c0,0,0.155,0.016,0.468,0.016
	s0.469-0.016,0.469-0.016c0.248-0.027,0.482-0.252,0.518-0.5l0.143-0.992c0.033-0.248,0.258-0.516,0.498-0.592l0.9-0.371
	c0.223-0.117,0.568-0.09,0.77,0.063l0.802,0.602c0.202,0.15,0.521,0.139,0.708-0.027l0.659-0.66
	c0.166-0.189,0.178-0.508,0.028-0.709l-0.603-0.803c-0.149-0.199-0.177-0.547-0.061-0.768l0.371-0.902
	c0.077-0.238,0.342-0.463,0.592-0.498l0.99-0.141c0.249-0.037,0.474-0.27,0.5-0.52c0,0,0.017-0.154,0.017-0.469
	s-0.017-0.469-0.017-0.469c-0.026-0.249-0.251-0.483-0.5-0.519L15.795,6.872z M10,9.826C8.992,9.826,8.175,9.008,8.175,8
	c0-1.009,0.817-1.826,1.826-1.826c1.008,0,1.826,0.818,1.826,1.826C11.826,9.008,11.008,9.826,10,9.826z"/>
</svg>
