<?xml version="1.0" encoding="utf-8"?>
<!-- Generator: Adobe Illustrator 16.0.0, SVG Export Plug-In . SVG Version: 6.00 Build 0)  -->
<!DOCTYPE svg PUBLIC "-//W3C//DTD SVG 1.1//EN" "http://www.w3.org/Graphics/SVG/1.1/DTD/svg11.dtd">
<svg version="1.1" id="Layer_1" xmlns="http://www.w3.org/2000/svg" xmlns:xlink="http://www.w3.org/1999/xlink" x="0px" y="0px"
	 width="30px" height="30px" viewBox="0 0 30 30" style="enable-background:new 0 0 30 30;" xml:space="preserve">
<path style="fill:#787878;" class="rotating" d="M23.512,9.77c1.342,2.188,1.858,4.885,1.209,7.577c-1.246,5.168-6.289,8.41-11.447,7.502l0.703-2.92
	c3.545,0.527,6.971-1.73,7.828-5.285c0.455-1.89,0.085-3.779-0.862-5.312l-3.931,2.391l1.941-8.005L27,7.649L23.512,9.77z
	 M8.195,13.355c0.852-3.534,4.244-5.79,7.768-5.295l0.703-2.919C11.529,4.267,6.52,7.504,5.279,12.651
	c-0.647,2.685-0.138,5.374,1.196,7.557L3,22.321l8.047,1.932l1.941-8.006l-3.945,2.4C8.106,17.116,7.741,15.238,8.195,13.355z"/>
<style>
@-webkit-keyframes rotating {
    from{
        -webkit-transform: rotate(0deg);
    }
    to{
        -webkit-transform: rotate(-360deg);
    }
}

.rotating {
    -webkit-transform-origin: center center;
    -webkit-animation: rotating 1s linear infinite;
}
</style>
</svg>
