<?xml version="1.0" encoding="utf-8"?>
<!-- Generator: Adobe Illustrator 18.1.1, SVG Export Plug-In . SVG Version: 6.00 Build 0)  -->
<!DOCTYPE svg PUBLIC "-//W3C//DTD SVG 1.1//EN" "http://www.w3.org/Graphics/SVG/1.1/DTD/svg11.dtd">
<svg version="1.1" id="About" xmlns="http://www.w3.org/2000/svg" xmlns:xlink="http://www.w3.org/1999/xlink" x="0px" y="0px"
	 viewBox="0 0 30 30" style="enable-background:new 0 0 30 30;" xml:space="preserve">
<g>
	<g>
		<path d="M14.4,6.2c1,0,1.9,0.1,2.6,0.4c0.8,0.2,1.4,0.6,1.8,1L24,6.4l0.2,0.3L21.8,17c-0.1,0.3-0.2,0.8-0.3,1.3s-0.2,0.9-0.2,1.2
			c0,0.6,0.1,1.1,0.4,1.3c0.3,0.2,0.8,0.4,1.5,0.4c0.3,0,0.7-0.1,1.1-0.2c0.4-0.1,0.7-0.2,0.9-0.3L25,22.1c-1.1,0.4-2,0.8-2.6,1
			c-0.7,0.2-1.4,0.3-2.3,0.3c-1.1,0-2.1-0.2-2.7-0.7c-0.7-0.5-1.2-1-1.4-1.7h-0.1c-0.4,0.3-0.8,0.6-1.1,0.9
			c-0.4,0.3-0.8,0.6-1.3,0.8c-0.5,0.2-1,0.4-1.5,0.6c-0.5,0.2-1.1,0.2-1.7,0.2c-1.9,0-3.4-0.6-4.4-1.7c-1-1.1-1.5-2.7-1.5-4.7
			c0-1.5,0.3-3,0.8-4.3c0.5-1.3,1.3-2.5,2.2-3.5c0.9-1,2-1.8,3.2-2.4C11.7,6.5,13,6.2,14.4,6.2 M12.8,21.1c0.5,0,1-0.2,1.5-0.5
			c0.5-0.3,0.9-0.7,1.3-1.1l2.1-9.1c0-0.2,0-0.5-0.1-0.9c-0.1-0.3-0.2-0.6-0.4-0.9c-0.2-0.3-0.5-0.5-0.8-0.7
			c-0.3-0.2-0.7-0.2-1.2-0.2c-0.7,0-1.4,0.3-2,0.8c-0.6,0.5-1.2,1.2-1.6,2.1c-0.5,0.9-0.8,1.9-1.1,3c-0.3,1.2-0.4,2.3-0.4,3.5
			c0,0.5,0,1.1,0.1,1.5c0.1,0.5,0.2,0.9,0.4,1.2c0.2,0.3,0.5,0.6,0.8,0.8C11.9,21,12.3,21.1,12.8,21.1 M25.4,20.6L25.4,20.6
			 M14.4,4.2c-1.7,0-3.3,0.4-4.8,1.1C8.2,5.9,6.9,6.9,5.8,8.1c-1.1,1.2-1.9,2.6-2.6,4.1c-0.6,1.6-1,3.3-1,5.1c0,2.5,0.7,4.5,2,6
			c1.4,1.6,3.4,2.4,5.9,2.4c0.8,0,1.6-0.1,2.3-0.3c0.6-0.2,1.2-0.4,1.8-0.7c0.4-0.2,0.8-0.5,1.2-0.7c0.2,0.2,0.5,0.4,0.8,0.6
			c1,0.7,2.3,1,3.8,1c1.1,0,2.1-0.2,2.9-0.5c0.7-0.2,1.6-0.6,2.7-1c0.6-0.2,1.1-0.8,1.2-1.4l0.3-1.4c0.1-0.2,0.1-0.4,0.1-0.6
			c0-1.1-0.9-2-2-2c0,0,0,0,0,0c0,0-0.1,0-0.1,0c0,0,0,0,0,0c0,0,0,0,0,0c-0.3,0-0.5,0.1-0.7,0.2c0,0-0.2,0.1-0.7,0.2
			c-0.2,0.1-0.4,0.1-0.5,0.1c0-0.1,0-0.3,0.1-0.5c0.1-0.5,0.2-0.9,0.3-1.2l2.5-10.3c0.2-0.6,0-1.3-0.4-1.8l-0.2-0.3
			c-0.4-0.4-0.9-0.7-1.5-0.7c-0.1,0-0.3,0-0.4,0l-4.3,0.9c-0.5-0.3-1.1-0.5-1.7-0.7C16.7,4.3,15.6,4.2,14.4,4.2L14.4,4.2z
			 M12.8,19.1c-0.2,0-0.3,0-0.3,0c0,0,0,0,0-0.1c0-0.1-0.1-0.2-0.2-0.5c-0.1-0.3-0.1-0.7-0.1-1.2c0-1,0.1-2.1,0.3-3.1
			c0.2-1,0.5-1.8,0.9-2.5c0.4-0.7,0.8-1.2,1.2-1.5c0.3-0.3,0.6-0.3,0.7-0.3c0.2,0,0.3,0,0.4,0c0,0,0,0,0,0.1c0,0.1,0,0.2,0,0.3
			l-1.9,8.2c-0.2,0.2-0.4,0.3-0.6,0.5C13.1,19.1,12.9,19.1,12.8,19.1L12.8,19.1z"/>
	</g>
</g>
</svg>
