<?xml version="1.0" encoding="utf-8"?>
<!-- Generator: Adobe Illustrator 18.1.1, SVG Export Plug-In . SVG Version: 6.00 Build 0)  -->
<!DOCTYPE svg PUBLIC "-//W3C//DTD SVG 1.1//EN" "http://www.w3.org/Graphics/SVG/1.1/DTD/svg11.dtd">
<svg version="1.1" id="Assignments" xmlns="http://www.w3.org/2000/svg" xmlns:xlink="http://www.w3.org/1999/xlink" x="0px"
	 y="0px" viewBox="0 0 30 30" style="enable-background:new 0 0 30 30;" xml:space="preserve">
<style type="text/css">
	.st0{fill:none;}
</style>
<g>
	<path class="st0" d="M24.4,6.7h-5l0-4.9H5.6v26.4h2.7v-3.7c0-0.2,0.2-0.4,0.4-0.4h6.2c0.2,0,0.4,0.2,0.4,0.4v3.7h9.2L24.4,6.7
		l-5-4.9L24.4,6.7z M15.2,21.5c0,0.2-0.2,0.4-0.4,0.4H8.7c-0.2,0-0.4-0.2-0.4-0.4v-6.2c0-0.2,0.2-0.4,0.4-0.4h6.2
		c0.2,0,0.4,0.2,0.4,0.4V21.5z M15.2,12.5c0,0.2-0.2,0.4-0.4,0.4H8.7c-0.2,0-0.4-0.2-0.4-0.4V6.4C8.3,6.2,8.5,6,8.7,6h3.8
		c0.2,0,0.4,0.2,0.4,0.4s-0.2,0.4-0.4,0.4H9v5.4h5.4V9.3c0-0.2,0.2-0.4,0.4-0.4s0.4,0.2,0.4,0.4V12.5z M12.8,9.9l-1,1l-1-1L9.9,9
		l1-1l0.9,0.9L14.7,6l1,1L12.8,9.9z"/>
	<rect x="9" y="15.7" class="st0" width="5.4" height="5.4"/>
	<rect x="9" y="24.9" class="st0" width="5.4" height="3.3"/>
	<polygon points="11.8,8.9 10.9,8 9.9,9 10.8,9.9 11.8,10.9 12.8,9.9 15.7,7 14.7,6 	"/>
	<path d="M14.8,8.9c-0.2,0-0.4,0.2-0.4,0.4v2.8H9V6.7h3.5c0.2,0,0.4-0.2,0.4-0.4S12.7,6,12.5,6H8.7C8.5,6,8.3,6.2,8.3,6.4v6.2
		c0,0.2,0.2,0.4,0.4,0.4h6.2c0.2,0,0.4-0.2,0.4-0.4V9.3C15.2,9.1,15.1,8.9,14.8,8.9z"/>
	<path d="M14.8,14.9H8.7c-0.2,0-0.4,0.2-0.4,0.4v6.2c0,0.2,0.2,0.4,0.4,0.4h6.2c0.2,0,0.4-0.2,0.4-0.4v-6.2
		C15.2,15.1,15.1,14.9,14.8,14.9z M14.5,21.1H9v-5.4h5.4V21.1z"/>
	<path d="M25.5,5.6l-5-4.9c-0.3-0.3-0.7-0.4-1.1-0.4H5.6c-0.8,0-1.5,0.7-1.5,1.5v26.4c0,0.8,0.7,1.5,1.5,1.5h18.9
		c0.8,0,1.5-0.7,1.5-1.5V6.7C25.9,6.3,25.8,5.9,25.5,5.6z M14.5,28.2H9v-3.3h5.4V28.2z M24.4,28.2h-9.2v-3.7c0-0.2-0.2-0.4-0.4-0.4
		H8.7c-0.2,0-0.4,0.2-0.4,0.4v3.7H5.6V1.8h13.9l0,0l0,4.9h5V28.2z"/>
</g>
</svg>
