<?xml version="1.0" encoding="utf-8"?>
<!-- Generator: Adobe Illustrator 18.1.1, SVG Export Plug-In . SVG Version: 6.00 Build 0)  -->
<!DOCTYPE svg PUBLIC "-//W3C//DTD SVG 1.1//EN" "http://www.w3.org/Graphics/SVG/1.1/DTD/svg11.dtd">
<svg version="1.1" id="Bookmark-out" xmlns="http://www.w3.org/2000/svg" xmlns:xlink="http://www.w3.org/1999/xlink" x="0px"
	 y="0px" viewBox="0 0 30 30" style="enable-background:new 0 0 30 30;" xml:space="preserve">
<g>
	<path d="M21.3,29.4c-0.4,0-0.8-0.1-1.1-0.4l-4.9-4c-0.2-0.2-0.5-0.2-0.7,0l-4.9,4c-0.7,0.5-1.7,0.5-2.3-0.1
		c-0.3-0.3-0.5-0.8-0.5-1.3V2.3c0-1,0.8-1.7,1.7-1.7h12.7c1,0,1.7,0.8,1.7,1.7v25.3C23.1,28.6,22.3,29.4,21.3,29.4z M15,23.7
		c0.4,0,0.8,0.1,1.1,0.4l4.9,4c0.3,0.3,0.8,0.1,0.8-0.4V2.3c0-0.3-0.2-0.5-0.5-0.5H8.6c-0.3,0-0.5,0.2-0.5,0.5v25.3
		c0,0.2,0.1,0.3,0.2,0.4c0.2,0.2,0.5,0.2,0.7,0l4.9-4C14.2,23.8,14.6,23.7,15,23.7z"/>
</g>
</svg>
