<?xml version="1.0" encoding="utf-8"?>
<!-- Generator: Adobe Illustrator 18.1.1, SVG Export Plug-In . SVG Version: 6.00 Build 0)  -->
<!DOCTYPE svg PUBLIC "-//W3C//DTD SVG 1.1//EN" "http://www.w3.org/Graphics/SVG/1.1/DTD/svg11.dtd">
<svg version="1.1" id="calendar" xmlns="http://www.w3.org/2000/svg" xmlns:xlink="http://www.w3.org/1999/xlink" x="0px" y="0px"
	 viewBox="0 0 30 30" style="enable-background:new 0 0 30 30;" xml:space="preserve">
<g>
	<path d="M27.7,1H2.3C1.8,1,1.4,1.4,1.4,1.9v2.4c0,0.5,0.4,0.9,0.9,0.9h25.4c0.5,0,0.9-0.4,0.9-0.9V1.9C28.6,1.4,28.2,1,27.7,1z"/>
	<path d="M27.7,6.9H2.3c-0.5,0-0.9,0.4-0.9,0.9v20.3c0,0.5,0.4,0.9,0.9,0.9h25.4c0.5,0,0.9-0.4,0.9-0.9V7.8
		C28.6,7.3,28.2,6.9,27.7,6.9z M22.2,17.5H18v-4.2h4.2V17.5z M23.1,13.3h3.7v4.2h-3.7V13.3z M17.1,17.5h-4.2v-4.2h4.2V17.5z
		 M12,17.5H7.8v-4.2H12V17.5z M6.9,13.3v4.2H3.2v-4.2H6.9z M3.2,18.4h3.7v4.2H3.2V18.4z M7.8,18.4H12v4.2H7.8V18.4z M12.9,18.4h4.2
		v4.2h-4.2V18.4z M18,18.4h4.2v4.2H18V18.4z M23.1,22.6v-4.2h3.7v4.2H23.1z M26.8,12.4h-3.7V8.7h3.7V12.4z M22.2,12.4H18V8.7h4.2
		V12.4z M17.1,12.4h-4.2V8.7h4.2V12.4z M12,12.4H7.8V8.7H12V12.4z M3.2,23.5h3.7v3.7H3.2V23.5z M7.8,23.5H12v3.7H7.8V23.5z
		 M12.9,23.5h4.2v3.7h-4.2V23.5z M18,23.5h4.2v3.7H18V23.5z"/>
</g>
</svg>
