<?xml version="1.0" encoding="utf-8"?>
<!-- Generator: Adobe Illustrator 18.1.1, SVG Export Plug-In . SVG Version: 6.00 Build 0)  -->
<!DOCTYPE svg PUBLIC "-//W3C//DTD SVG 1.1//EN" "http://www.w3.org/Graphics/SVG/1.1/DTD/svg11.dtd">
<svg version="1.1" id="discuss" xmlns="http://www.w3.org/2000/svg" xmlns:xlink="http://www.w3.org/1999/xlink" x="0px" y="0px"
	 viewBox="0 0 30 30" style="enable-background:new 0 0 30 30;" xml:space="preserve">
<path d="M26.6,1.9H3.3c-1.6,0-2.9,1.3-2.9,2.9v12.6c0,1.6,1.3,2.9,2.9,2.9h5v6.4c0,0.4,0.2,0.8,0.6,1c0.2,0.1,0.3,0.1,0.5,0.1
	c0.2,0,0.5-0.1,0.6-0.2l10.1-7.3h6.4c1.6,0,2.9-1.3,2.9-2.9V4.8C29.5,3.2,28.2,1.9,26.6,1.9z M9.5,18.1H3.3c-0.4,0-0.7-0.3-0.7-0.7
	V4.8c0-0.4,0.3-0.7,0.7-0.7h23.2c0.4,0,0.7,0.3,0.7,0.7v12.6c0,0.4-0.3,0.7-0.7,0.7h-6.7c-0.2,0-0.5,0.1-0.6,0.2l-8.6,6.2v-5.3
	C10.6,18.6,10.1,18.1,9.5,18.1z"/>
</svg>
