<?xml version="1.0" encoding="utf-8"?>
<!-- Generator: Adobe Illustrator 18.1.1, SVG Export Plug-In . SVG Version: 6.00 Build 0)  -->
<!DOCTYPE svg PUBLIC "-//W3C//DTD SVG 1.1//EN" "http://www.w3.org/Graphics/SVG/1.1/DTD/svg11.dtd">
<svg version="1.1" id="comply" xmlns="http://www.w3.org/2000/svg" xmlns:xlink="http://www.w3.org/1999/xlink" x="0px" y="0px"
	 viewBox="0 0 30 30" style="enable-background:new 0 0 30 30;" xml:space="preserve">
<g>
	<path d="M19.8,11.1l-0.3-0.4c-0.1-0.1-0.2-0.1-0.3-0.1c-1.7,0.7-4.4,2.9-6.5,5.5C12,15.3,11,14.8,10,14.8c-0.1,0-0.2,0.1-0.2,0.2
		l-0.1,0.3c0,0.1,0,0.2,0.1,0.3c1.6,0.9,2.7,3.1,3.3,4.4c0,0.1,0.1,0,0.2,0c0,0,0,0,0,0c0.1,0,0.2,0,0.2,0c1.5-3.6,3.6-6.4,6.3-8.6
		C19.9,11.3,19.9,11.2,19.8,11.1z"/>
	<g>
		<path d="M18.4,27.6c-0.6,0-1.2-0.2-1.9-0.5C16,27,15.5,26.7,15,26.7s-1,0.2-1.6,0.4c-0.6,0.2-1.2,0.5-1.9,0.5
			c-0.2,0-0.4,0-0.6-0.1c-0.9-0.3-1.4-1.1-1.8-1.8c-0.3-0.5-0.6-1-1-1.2c-0.4-0.3-0.9-0.4-1.5-0.6c-0.9-0.2-1.8-0.5-2.3-1.2
			c-0.5-0.7-0.5-1.6-0.4-2.5c0-0.6,0.1-1.2-0.1-1.6c-0.1-0.4-0.5-0.8-0.8-1.3c-0.5-0.7-1.2-1.4-1.2-2.3c0-0.9,0.6-1.7,1.2-2.3
			c0.4-0.4,0.7-0.9,0.8-1.3c0.1-0.4,0.1-1,0.1-1.6c0-0.9-0.1-1.8,0.4-2.5c0.5-0.7,1.4-1,2.3-1.2c0.6-0.2,1.1-0.3,1.5-0.6
			c0.4-0.3,0.7-0.7,1-1.2c0.5-0.8,1-1.5,1.8-1.8c0.2-0.1,0.4-0.1,0.6-0.1c0.6,0,1.2,0.2,1.9,0.5C14,3,14.5,3.3,15,3.3s1-0.2,1.6-0.4
			c0.6-0.2,1.2-0.5,1.9-0.5c0.2,0,0.4,0,0.6,0.1c0.9,0.3,1.4,1.1,1.8,1.8c0.3,0.5,0.6,1,1,1.2c0.4,0.3,0.9,0.4,1.5,0.6
			c0.9,0.2,1.8,0.5,2.3,1.2c0.5,0.7,0.5,1.6,0.4,2.5c0,0.6-0.1,1.2,0.1,1.6c0.1,0.4,0.5,0.8,0.8,1.3c0.5,0.7,1.2,1.4,1.2,2.3
			c0,0.9-0.6,1.7-1.2,2.3c-0.4,0.4-0.7,0.9-0.8,1.3c-0.1,0.4-0.1,1-0.1,1.6c0,0.9,0.1,1.8-0.4,2.5c-0.5,0.7-1.4,1-2.3,1.2
			c-0.6,0.2-1.1,0.3-1.5,0.6c-0.4,0.3-0.7,0.7-1,1.2c-0.5,0.8-1,1.5-1.8,1.8C18.9,27.6,18.7,27.6,18.4,27.6z M15,25.8
			c0.7,0,1.3,0.2,1.9,0.5c0.7,0.3,1.4,0.5,1.9,0.4c0.5-0.2,0.9-0.8,1.3-1.4c0.4-0.5,0.7-1.1,1.2-1.5c0.5-0.4,1.2-0.5,1.8-0.7
			c0.7-0.2,1.4-0.4,1.8-0.8c0.3-0.4,0.3-1.2,0.2-1.9c0-0.7-0.1-1.3,0.1-1.9c0.2-0.6,0.6-1.1,1-1.6c0.5-0.6,1-1.2,1-1.7
			c0-0.6-0.5-1.1-1-1.7c-0.4-0.5-0.8-1-1-1.6c-0.2-0.6-0.2-1.3-0.1-1.9c0-0.8,0.1-1.5-0.2-1.9c-0.3-0.4-1-0.6-1.8-0.8
			c-0.6-0.2-1.3-0.3-1.8-0.7c-0.5-0.4-0.9-0.9-1.2-1.5c-0.4-0.6-0.8-1.3-1.3-1.4c-0.5-0.2-1.1,0.1-1.9,0.4C16.3,4,15.7,4.2,15,4.2
			S13.7,4,13.1,3.7c-0.7-0.3-1.4-0.5-1.9-0.4c-0.5,0.2-0.9,0.8-1.3,1.4C9.5,5.3,9.2,5.9,8.7,6.3C8.1,6.6,7.5,6.8,6.9,7
			C6.1,7.2,5.4,7.4,5.1,7.8C4.8,8.2,4.8,9,4.9,9.7c0,0.7,0.1,1.3-0.1,1.9c-0.2,0.6-0.6,1.1-1,1.6c-0.5,0.6-1,1.2-1,1.7
			c0,0.6,0.5,1.1,1,1.7c0.4,0.5,0.8,1,1,1.6c0.2,0.6,0.2,1.3,0.1,1.9c0,0.8-0.1,1.5,0.2,1.9c0.3,0.4,1,0.6,1.8,0.8
			c0.6,0.2,1.3,0.3,1.8,0.7c0.5,0.4,0.9,0.9,1.2,1.5c0.4,0.6,0.8,1.3,1.3,1.4c0.5,0.2,1.1-0.1,1.9-0.4C13.7,26,14.3,25.8,15,25.8z"
			/>
	</g>
	<g>
		<path d="M17.6,24.7c-0.5,0-1-0.2-1.5-0.4c-0.4-0.2-0.8-0.3-1.2-0.3s-0.7,0.2-1.2,0.3c-0.5,0.2-1,0.4-1.5,0.4c-0.2,0-0.4,0-0.5-0.1
			c-0.7-0.2-1.1-0.9-1.5-1.4c-0.2-0.4-0.5-0.7-0.7-0.9C9.4,22.1,9,22,8.6,21.9c-0.6-0.2-1.4-0.4-1.8-0.9c-0.4-0.6-0.4-1.3-0.3-2
			c0-0.4,0-0.9-0.1-1.2c-0.1-0.3-0.4-0.6-0.6-0.9c-0.4-0.5-0.9-1.1-0.9-1.9s0.5-1.3,0.9-1.9c0.3-0.3,0.5-0.6,0.6-0.9
			c0.1-0.3,0.1-0.7,0.1-1.2c0-0.7-0.1-1.4,0.3-2c0.4-0.6,1.2-0.8,1.8-0.9C9,8,9.4,7.9,9.7,7.7c0.3-0.2,0.5-0.5,0.7-0.9
			c0.4-0.6,0.8-1.2,1.5-1.4c0.2-0.1,0.3-0.1,0.5-0.1c0.5,0,1,0.2,1.5,0.4c0.4,0.2,0.8,0.3,1.2,0.3s0.7-0.2,1.2-0.3
			c0.5-0.2,1-0.4,1.5-0.4c0.2,0,0.4,0,0.5,0.1c0.7,0.2,1.1,0.9,1.5,1.4c0.2,0.4,0.5,0.7,0.7,0.9C20.6,7.9,21,8,21.4,8.1
			c0.6,0.2,1.4,0.4,1.8,0.9c0.4,0.6,0.4,1.3,0.3,2c0,0.4,0,0.9,0.1,1.2c0.1,0.3,0.4,0.6,0.6,0.9c0.4,0.5,0.9,1.1,0.9,1.9
			s-0.5,1.3-0.9,1.9c-0.3,0.3-0.5,0.7-0.6,0.9c-0.1,0.3-0.1,0.7-0.1,1.2c0,0.7,0.1,1.4-0.3,2c-0.4,0.6-1.2,0.8-1.8,0.9
			c-0.4,0.1-0.8,0.2-1.1,0.4c-0.3,0.2-0.5,0.5-0.7,0.9c-0.4,0.6-0.8,1.2-1.5,1.4C18,24.7,17.8,24.7,17.6,24.7z M15,23.1
			c0.5,0,1,0.2,1.5,0.4c0.5,0.2,1,0.4,1.3,0.3c0.4-0.1,0.7-0.6,1-1c0.3-0.4,0.6-0.9,1-1.2c0.4-0.3,0.9-0.4,1.4-0.6
			c0.5-0.1,1.1-0.3,1.3-0.6c0.2-0.3,0.2-0.8,0.2-1.4c0-0.5-0.1-1,0.1-1.5c0.1-0.5,0.5-0.9,0.8-1.2c0.4-0.4,0.7-0.9,0.7-1.3
			c0-0.4-0.3-0.8-0.7-1.3c-0.3-0.4-0.6-0.8-0.8-1.2c-0.2-0.5-0.1-1-0.1-1.5c0-0.6,0.1-1.1-0.2-1.4c-0.2-0.3-0.7-0.4-1.3-0.6
			c-0.5-0.1-1-0.3-1.4-0.6c-0.4-0.3-0.7-0.7-1-1.2c-0.3-0.5-0.6-0.9-1-1c-0.3-0.1-0.8,0.1-1.3,0.3c-0.5,0.2-1,0.4-1.5,0.4
			s-1-0.2-1.5-0.4c-0.5-0.2-1-0.4-1.3-0.3c-0.4,0.1-0.7,0.6-1,1c-0.3,0.4-0.6,0.9-1,1.2C9.8,8.7,9.3,8.9,8.8,9
			C8.3,9.1,7.8,9.3,7.6,9.6C7.3,9.9,7.4,10.4,7.4,11c0,0.5,0.1,1-0.1,1.5c-0.1,0.5-0.5,0.9-0.8,1.2c-0.4,0.4-0.7,0.9-0.7,1.3
			c0,0.4,0.3,0.8,0.7,1.3c0.3,0.4,0.6,0.8,0.8,1.2c0.2,0.5,0.1,1,0.1,1.5c0,0.6-0.1,1.1,0.2,1.4c0.2,0.3,0.7,0.4,1.3,0.6
			c0.5,0.1,1,0.3,1.4,0.6c0.4,0.3,0.7,0.7,1,1.2c0.3,0.5,0.6,0.9,1,1c0.3,0.1,0.8-0.1,1.3-0.3C14,23.3,14.5,23.1,15,23.1z"/>
	</g>
</g>
</svg>
