<?xml version="1.0" encoding="utf-8"?>
<!-- Generator: Adobe Illustrator 18.1.1, SVG Export Plug-In . SVG Version: 6.00 Build 0)  -->
<!DOCTYPE svg PUBLIC "-//W3C//DTD SVG 1.1//EN" "http://www.w3.org/Graphics/SVG/1.1/DTD/svg11.dtd">
<svg version="1.1" id="Content" xmlns="http://www.w3.org/2000/svg" xmlns:xlink="http://www.w3.org/1999/xlink" x="0px" y="0px"
	 viewBox="0 0 30 30" style="enable-background:new 0 0 30 30;" xml:space="preserve">
<g>
	<path d="M23.2,26.5H7.5C7.2,26.5,7,26.3,7,26v-1.6c0-0.3,0.2-0.5,0.5-0.5S8,24.1,8,24.4v1.1h14.7v-20h-1.1c-0.3,0-0.5-0.2-0.5-0.5
		s0.2-0.5,0.5-0.5h1.6c0.3,0,0.5,0.2,0.5,0.5v21C23.7,26.3,23.5,26.5,23.2,26.5z"/>
</g>
<g>
	<path d="M19.5,23.3H3.8c-0.6,0-1-0.4-1-1v-21c0-0.6,0.4-1,1-1h15.7c0.6,0,1,0.4,1,1v21C20.5,22.9,20.1,23.3,19.5,23.3z M4.8,21.3
		h13.7v-19H4.8V21.3z"/>
</g>
<g>
	<path d="M15.3,7.2H7.9c-0.3,0-0.5-0.2-0.5-0.5s0.2-0.5,0.5-0.5h7.5c0.3,0,0.5,0.2,0.5,0.5S15.6,7.2,15.3,7.2z"/>
</g>
<g>
	<path d="M15.3,17.2H7.9c-0.3,0-0.5-0.2-0.5-0.5s0.2-0.5,0.5-0.5h7.5c0.3,0,0.5,0.2,0.5,0.5S15.6,17.2,15.3,17.2z"/>
</g>
<g>
	<path d="M15.3,12.2H7.9c-0.3,0-0.5-0.2-0.5-0.5s0.2-0.5,0.5-0.5h7.5c0.3,0,0.5,0.2,0.5,0.5S15.6,12.2,15.3,12.2z"/>
</g>
<g>
	<path d="M26.2,29.5H10.5c-0.3,0-0.5-0.2-0.5-0.5v-1.6c0-0.3,0.2-0.5,0.5-0.5s0.5,0.2,0.5,0.5v1.1h14.7v-20h-1.1
		c-0.3,0-0.5-0.2-0.5-0.5s0.2-0.5,0.5-0.5h1.6c0.3,0,0.5,0.2,0.5,0.5v21C26.7,29.3,26.5,29.5,26.2,29.5z"/>
</g>
</svg>
