<?xml version="1.0" encoding="utf-8"?>
<!-- Generator: Adobe Illustrator 18.1.1, SVG Export Plug-In . SVG Version: 6.00 Build 0)  -->
<!DOCTYPE svg PUBLIC "-//W3C//DTD SVG 1.1//EN" "http://www.w3.org/Graphics/SVG/1.1/DTD/svg11.dtd">
<svg version="1.1" id="dino" xmlns="http://www.w3.org/2000/svg" xmlns:xlink="http://www.w3.org/1999/xlink" x="0px" y="0px"
	 viewBox="0 0 30 30" style="enable-background:new 0 0 30 30;" xml:space="preserve">
<g>
	<circle cx="19" cy="6.3" r="0.6"/>
	<path d="M27.6,4.7c-1.5-1.5-7.2-2.3-10.5-1.5c-1.7,0.4-3.6,2.6-3.6,4.9c0,0.4,0,0.8,0,1.1c0,1.5,0,2.3-0.5,2.8
		c-0.4,0.4-0.9,0.7-1.5,1c-0.6,0.4-1.2,0.7-1.6,1.2c-1.3,1.6-2.4,2.1-3.8,1.6c-1.5-0.5-1.6-2.2-1.5-4.7c0-1,0-2-0.2-2.8
		C4.3,8.1,4.1,8,3.9,7.9C3.7,7.9,3.4,8,3.3,8.2c-1.6,3-2.2,8,0.5,11.9c1,1.5,2.4,2.7,4.1,3.6C8,23.9,8.1,24,8.3,24l0,1
		c0,0.1-0.1,1,0.5,1.5c0.3,0.3,0.7,0.5,1.1,0.5c0,0,0,0,0,0c1.3,0,1.8-1,1.9-1.5l0.2-0.8l0.2,0.4c0.2,0.5,0.7,1.3,1.6,1.3
		c0,0,0.1,0,0.1,0c0.1,0,0.3,0,0.4,0c1.3-0.3,1.3-1.6,1.3-2l0-0.9c0.7-0.3,1.7-1,2.6-2.8c0.5-1.1,0.7-2.2,0.8-3.2
		c0.2,0.1,0.4,0.1,0.6,0.1c0.5,0,1-0.2,1.4-0.7c0.3-0.3,0.3-0.7,0.3-1.1c-0.1-0.7-0.7-1.1-0.8-1.1l-1.4-1c0.2-0.9,0.5-1.4,0.6-1.7
		c0.8,0.1,2.5,0.2,3.5-0.1c0.9-0.2,1.4-1,1.7-1.7c0.1,0,0.2,0.1,0.2,0.1c0.2,0,0.4-0.1,0.5-0.2C26.4,9.5,29.1,6.3,27.6,4.7z
		 M14.8,23.6l0,0.8c0,0.8-0.2,1.1-0.7,1.1c-0.1,0-0.1,0-0.2,0c-0.6,0-0.9-0.7-0.9-0.7l-0.3-0.6l-0.1-0.1l0.3,0
		c0.5-0.1,1-0.2,1.5-0.4C14.6,23.6,14.7,23.6,14.8,23.6C14.8,23.6,14.8,23.5,14.8,23.6L14.8,23.6z M20.1,15.4
		c0.1,0.1,0.4,0.3,0.4,0.6c0,0.1,0,0.2-0.1,0.4c-0.4,0.6-1,0.3-1,0.3l-0.3-0.1l-0.3-0.1c0-0.1,0-0.2,0-0.3c0,0,0,0,0,0
		c0-0.2,0-0.3,0-0.3l-0.1-1.1l0,0c0,0,0-0.1,0.1-0.2c0,0,0,0,0-0.1l0.1,0L20.1,15.4z M25.5,9.1C25.5,9.1,25.5,9.2,25.5,9.1l-0.6-0.8
		l0,0l-0.5-0.7c-0.1-0.1-0.3-0.2-0.4-0.1l-1.4,0.9l-0.8-1.2c-0.1-0.1-0.3-0.2-0.4-0.1l-1.9,1.1c-0.1,0.1-0.2,0.3-0.1,0.4
		c0.1,0.1,0.3,0.2,0.4,0.1l1.7-1L22.3,9c0.1,0.1,0.3,0.2,0.4,0.1l1.4-0.9l0.3,0.5l0,0L24.6,9c0,0.1-0.1,0.2-0.1,0.4
		c-0.2,0.6-0.6,1.4-1.3,1.6c-1.2,0.3-3.6,0-3.6,0l-0.2,0l-0.1,0.1c-0.3,0.4-0.7,1.3-1,2.7c-0.1,0.2-0.1,0.4-0.1,0.5
		c0,0.2-0.1,0.3-0.1,0.3l0,0l0.1,1.2c0,0,0,0.1,0,0.3c0,0.1,0,0.3,0,0.5c0,1-0.1,2.4-0.7,3.7c-0.9,1.8-1.8,2.2-2.4,2.5l-0.2,0.1
		c-0.1,0.1-0.2,0.1-0.3,0.1c-0.6,0.2-1.2,0.4-1.8,0.5c-0.2,0-0.3,0.1-0.5,0.1c-0.1,0-0.1,0-0.2,0c0,0-0.1,0-0.1,0l0-0.1l0.1-0.2
		l0.5-1.9c0-0.2-0.1-0.3-0.2-0.4c-0.2,0-0.3,0.1-0.4,0.2l-0.5,2.1c0,0,0,0,0,0c0,0,0,0,0,0l-0.1,0.5l-0.1,0.5l-0.3,1
		c0,0-0.2,0.8-1.1,0.8c0,0,0,0,0,0c-0.2,0-0.4-0.1-0.5-0.2c-0.2-0.2-0.3-0.7-0.2-0.9l0-1l0-0.5l0-0.5v0l0-0.9c0-0.2-0.2-0.3-0.3-0.3
		c-0.2,0-0.3,0.1-0.3,0.3l0,0.7l0,0.2l0,0.1c0,0-0.1,0-0.1,0c-0.1,0-0.2-0.1-0.2-0.1c-1.6-0.9-2.8-2-3.7-3.4
		c-2.4-3.6-1.8-7.8-0.8-10.1c0,0.5,0,1,0,1.6c0,2.2-0.1,4.9,2.1,5.6c2.6,0.8,4.3-1.3,4.8-1.9c0.3-0.3,0.8-0.6,1.3-0.9
		c0.6-0.3,1.2-0.7,1.7-1.1c0.8-0.8,0.8-2,0.7-3.4c0-0.4,0-0.7,0-1.1c0-1.9,1.6-3.7,2.9-4c3.2-0.8,8.5,0.1,9.7,1.2
		C27.7,6.1,26.3,8.1,25.5,9.1z"/>
	<path d="M16.8,15.2l-1.5-1.6c-0.1-0.1-0.3-0.1-0.4,0c-0.1,0.1-0.1,0.3,0,0.4l1.5,1.6c0,0,0.2,0.2,0.2,0.5c0,0.1-0.1,0.3-0.2,0.4
		c-0.5,0.5-0.9,0.2-1,0.2l-2.7-1.6c-0.1-0.1-0.3,0-0.4,0.1c-0.1,0.1,0,0.3,0.1,0.4l2.7,1.6c0.1,0.1,0.4,0.2,0.6,0.2
		c0.3,0,0.7-0.1,1.1-0.5c0.3-0.3,0.4-0.6,0.4-0.8C17.3,15.6,16.9,15.2,16.8,15.2z"/>
</g>
</svg>
