<?xml version="1.0" encoding="utf-8"?>
<!-- Generator: Adobe Illustrator 18.1.1, SVG Export Plug-In . SVG Version: 6.00 Build 0)  -->
<!DOCTYPE svg PUBLIC "-//W3C//DTD SVG 1.1//EN" "http://www.w3.org/Graphics/SVG/1.1/DTD/svg11.dtd">
<svg version="1.1" id="download" xmlns="http://www.w3.org/2000/svg" xmlns:xlink="http://www.w3.org/1999/xlink" x="0px" y="0px"
	 viewBox="0 0 30 30" style="enable-background:new 0 0 30 30;" xml:space="preserve">
<path d="M24.7,12.3l-9.3,9.3c-0.3,0.3-0.7,0.3-0.9,0l-9.3-9.3c-0.3-0.3-0.1-0.7,0.3-0.7h4.8V1.8c0-0.4,0.4-0.8,0.8-0.8h7.7
	c0.4,0,0.8,0.4,0.8,0.8v9.8h4.8C24.8,11.6,25,12.1,24.7,12.3z"/>
<path d="M5.7,28.5h18.6c0.3,0,0.6-0.3,0.6-0.6v-4.2c0-0.3-0.3-0.6-0.6-0.6H5.7c-0.3,0-0.6,0.3-0.6,0.6v4.2
	C5.1,28.2,5.4,28.5,5.7,28.5z"/>
</svg>
