<?xml version="1.0" encoding="utf-8"?>
<!-- Generator: Adobe Illustrator 19.1.0, SVG Export Plug-In . SVG Version: 6.00 Build 0)  -->
<!DOCTYPE svg PUBLIC "-//W3C//DTD SVG 1.1//EN" "http://www.w3.org/Graphics/SVG/1.1/DTD/svg11.dtd">
<svg version="1.1" id="Gear-outline" xmlns="http://www.w3.org/2000/svg" xmlns:xlink="http://www.w3.org/1999/xlink" x="0px"
	 y="0px" viewBox="0 0 36 36" style="enable-background:new 0 0 36 36;" xml:space="preserve">
<style type="text/css">
	.st0{fill:none;stroke:#000000;stroke-miterlimit:10;}
</style>
<path class="st0" d="M32,16.2l-2.5-0.6c0,0-0.5-0.2-1.1-0.3c-0.3-1-0.6-1.9-1.1-2.8c0.4-0.5,0.6-1,0.6-1l1.4-2.2
	c0,0-0.1-0.5-1.1-1.5c-1-1-1.5-1.1-1.5-1.1l-2.2,1.4c0,0-0.5,0.2-1,0.6c-0.9-0.5-1.8-0.9-2.8-1.1c-0.1-0.6-0.3-1.1-0.3-1.1L19.8,4
	c0,0-0.4-0.3-1.8-0.3S16.2,4,16.2,4l-0.6,2.5c0,0-0.2,0.5-0.3,1.1c-1,0.3-1.9,0.6-2.8,1.1c-0.5-0.4-1-0.6-1-0.6L9.4,6.8
	c0,0-0.5,0.1-1.5,1.1c-1,1-1.1,1.5-1.1,1.5l1.4,2.2c0,0,0.2,0.5,0.6,1c-0.5,0.9-0.9,1.8-1.1,2.8c-0.6,0.1-1.1,0.3-1.1,0.3L4,16.2
	c0,0-0.3,0.4-0.3,1.8c0,1.4,0.3,1.8,0.3,1.8l2.5,0.6c0,0,0.5,0.2,1.1,0.3c0.3,1,0.6,1.9,1.1,2.8c-0.4,0.5-0.6,1-0.6,1l-1.4,2.2
	c0,0,0.1,0.5,1.1,1.5c1,1,1.5,1.1,1.5,1.1l2.2-1.4c0,0,0.5-0.2,1-0.6c0.9,0.5,1.8,0.9,2.8,1.1c0.1,0.6,0.3,1.1,0.3,1.1l0.6,2.5
	c0,0,0.4,0.3,1.8,0.3s1.8-0.3,1.8-0.3l0.6-2.5c0,0,0.2-0.5,0.3-1.1c1-0.3,1.9-0.6,2.8-1.1c0.5,0.4,1,0.6,1,0.6l2.2,1.4
	c0,0,0.5-0.1,1.5-1.1c1-1,1.1-1.5,1.1-1.5l-1.4-2.2c0,0-0.2-0.5-0.6-1c0.5-0.9,0.9-1.8,1.1-2.8c0.6-0.1,1.1-0.3,1.1-0.3l2.5-0.6
	c0,0,0.3-0.4,0.3-1.8C32.3,16.6,32,16.2,32,16.2z"/>
<circle class="st0" cx="18" cy="18" r="3"/>
</svg>
