<?xml version="1.0" encoding="utf-8"?>
<!-- Generator: Adobe Illustrator 18.1.1, SVG Export Plug-In . SVG Version: 6.00 Build 0)  -->
<!DOCTYPE svg PUBLIC "-//W3C//DTD SVG 1.1//EN" "http://www.w3.org/Graphics/SVG/1.1/DTD/svg11.dtd">
<svg version="1.1" id="grades" xmlns="http://www.w3.org/2000/svg" xmlns:xlink="http://www.w3.org/1999/xlink" x="0px" y="0px"
	 viewBox="0 0 30 30" style="enable-background:new 0 0 30 30;" xml:space="preserve">
<path d="M28.3,0.4H1.7c-0.5,0-0.9,0.4-0.9,0.9v2.5v24.8c0,0.5,0.4,0.9,0.9,0.9h26.5c0.5,0,0.9-0.4,0.9-0.9V3.8V1.3
	C29.2,0.8,28.8,0.4,28.3,0.4z M2.7,12.6h6.2v7.3H2.7V12.6z M2.7,11.7V4.8h6.2v6.9H2.7z M9.8,12.6h17.5v7.3H9.8V12.6z M27.3,11.7H9.8
	V4.8h17.5V11.7z M2.7,20.9h6.2v6.9H2.7V20.9z M9.8,20.9h17.5v6.9H9.8V20.9z"/>
</svg>
