<?xml version="1.0" encoding="utf-8"?>
<!-- Generator: Adobe Illustrator 18.1.1, SVG Export Plug-In . SVG Version: 6.00 Build 0)  -->
<!DOCTYPE svg PUBLIC "-//W3C//DTD SVG 1.1//EN" "http://www.w3.org/Graphics/SVG/1.1/DTD/svg11.dtd">
<svg version="1.1" id="interact" xmlns="http://www.w3.org/2000/svg" xmlns:xlink="http://www.w3.org/1999/xlink" x="0px" y="0px"
	 viewBox="0 0 30 30" style="enable-background:new 0 0 30 30;" xml:space="preserve">
<g>
	<path d="M15,24.8c-0.2,0-0.5-0.1-0.6-0.3L11.8,21c-0.2-0.2-0.2-0.5-0.1-0.8c0.1-0.3,0.4-0.4,0.7-0.4h5.1c0.3,0,0.5,0.2,0.7,0.4
		s0.1,0.6-0.1,0.8l-2.6,3.5C15.5,24.6,15.2,24.8,15,24.8z M12.4,20.5L15,24c0,0,0,0,0,0l2.6-3.5L12.4,20.5z M20.5,18.3
		c-0.4,0-0.8-0.3-0.8-0.8v-5.1c0-0.4,0.3-0.8,0.8-0.8c0.2,0,0.3,0.1,0.5,0.1l3.5,2.6c0.2,0.1,0.3,0.4,0.3,0.6s-0.1,0.5-0.3,0.6
		L21,18.2C20.8,18.3,20.7,18.3,20.5,18.3z M20.5,12.4l-0.1,5.1l0,0c0,0,0,0,0,0L24,15L20.5,12.4z M9.5,18.3c-0.2,0-0.3-0.1-0.4-0.1
		l-3.5-2.6c-0.2-0.1-0.3-0.4-0.3-0.6s0.1-0.5,0.3-0.6L9,11.8c0.1-0.1,0.3-0.1,0.4-0.1c0.4,0,0.8,0.3,0.8,0.8v5.1
		C10.2,18,9.9,18.3,9.5,18.3z M9.5,12.4L6,15l3.5,2.6c0,0,0,0,0,0V12.4z M17.6,10.2h-5.1c-0.3,0-0.5-0.2-0.7-0.4
		c-0.1-0.3-0.1-0.6,0.1-0.8l2.6-3.5c0.3-0.4,0.9-0.4,1.2,0L18.2,9c0.2,0.2,0.2,0.5,0.1,0.8C18.1,10.1,17.8,10.2,17.6,10.2z M15,6
		l-2.6,3.5l5.1,0.1c0,0,0,0,0,0L15,6z"/>
</g>
<path d="M15,28.4c-7.4,0-13.4-6-13.4-13.4c0-7.4,6-13.4,13.4-13.4s13.4,6,13.4,13.4C28.4,22.4,22.4,28.4,15,28.4z M15,3
	C8.4,3,3,8.4,3,15c0,6.6,5.4,12,12,12c6.6,0,12-5.4,12-12C27,8.4,21.6,3,15,3z"/>
</svg>
