<?xml version="1.0" encoding="utf-8"?>
<!-- Generator: Adobe Illustrator 18.1.1, SVG Export Plug-In . SVG Version: 6.00 Build 0)  -->
<!DOCTYPE svg PUBLIC "-//W3C//DTD SVG 1.1//EN" "http://www.w3.org/Graphics/SVG/1.1/DTD/svg11.dtd">
<svg version="1.1" id="inbox" xmlns="http://www.w3.org/2000/svg" xmlns:xlink="http://www.w3.org/1999/xlink" x="0px" y="0px"
	 viewBox="0 0 30 30" style="enable-background:new 0 0 30 30;" xml:space="preserve">
<path d="M25.6,8.3H4.4C3.6,8.3,3,8.9,3,9.7v10.6c0,0.8,0.6,1.4,1.4,1.4h21.1c0.8,0,1.4-0.6,1.4-1.4V9.7C27,8.9,26.4,8.3,25.6,8.3z
	 M26,20.3L18.8,15l7.1-3.8c0,0,0.1,0,0.1-0.1V20.3z M4.4,9.3h21.1c0.2,0,0.4,0.2,0.4,0.3l-0.1,0.2c-0.1,0.2-0.3,0.4-0.5,0.5
	l-9.7,5.2c-0.4,0.2-1,0.2-1.4,0l-9.7-5.2C4.4,10.2,4.2,10,4.1,9.8L4,9.6C4.1,9.4,4.2,9.3,4.4,9.3z M4,20.3v-9.1c0,0,0.1,0,0.1,0.1
	l7.1,3.8L4,20.3z M4.4,20.7c-0.1,0-0.1,0-0.2,0l7.4-5.4l2.1,1.1c0.4,0.2,0.8,0.3,1.2,0.3s0.8-0.1,1.2-0.3l2.1-1.1l7.4,5.4
	c0,0-0.1,0-0.2,0H4.4z"/>
</svg>
