<?xml version="1.0" encoding="utf-8"?>
<!-- Generator: Adobe Illustrator 18.1.1, SVG Export Plug-In . SVG Version: 6.00 Build 0)  -->
<!DOCTYPE svg PUBLIC "-//W3C//DTD SVG 1.1//EN" "http://www.w3.org/Graphics/SVG/1.1/DTD/svg11.dtd">
<svg version="1.1" id="info" xmlns="http://www.w3.org/2000/svg" xmlns:xlink="http://www.w3.org/1999/xlink" x="0px" y="0px"
	 viewBox="0 0 30 30" style="enable-background:new 0 0 30 30;" xml:space="preserve">
<g>
	<path d="M15,29.7c-7.8,0-14.4-6.9-14.4-15C0.6,6.8,7,0.3,15,0.3s14.4,6.5,14.4,14.4C29.4,22.9,22.8,29.7,15,29.7z M15,1.6
		C7.8,1.6,1.9,7.5,1.9,14.7c0,7.4,6,13.7,13.1,13.7s13.1-6.3,13.1-13.7C28.1,7.5,22.2,1.6,15,1.6z"/>
</g>
<g>
	<g>
		<path d="M18.4,21.4l-0.2,0.9c-0.7,0.3-1.2,0.5-1.6,0.6c-0.4,0.1-0.9,0.2-1.4,0.2c-0.8,0-1.5-0.2-1.9-0.6c-0.5-0.4-0.7-0.9-0.7-1.5
			c0-0.2,0-0.5,0.1-0.7c0-0.3,0.1-0.5,0.2-0.9l0.9-3c0.1-0.3,0.1-0.6,0.2-0.8c0.1-0.3,0.1-0.5,0.1-0.7c0-0.4-0.1-0.7-0.2-0.8
			c-0.2-0.2-0.5-0.2-0.9-0.2c-0.2,0-0.5,0-0.7,0.1c-0.2,0.1-0.4,0.1-0.6,0.2l0.2-0.9c0.6-0.2,1.1-0.4,1.6-0.6c0.5-0.2,1-0.2,1.5-0.2
			c0.8,0,1.5,0.2,1.9,0.6c0.4,0.4,0.7,0.9,0.7,1.6c0,0.1,0,0.4,0,0.7c0,0.3-0.1,0.6-0.2,0.9l-0.9,3c-0.1,0.2-0.1,0.5-0.2,0.8
			c-0.1,0.3-0.1,0.5-0.1,0.7c0,0.4,0.1,0.7,0.3,0.8c0.2,0.1,0.5,0.2,0.9,0.2c0.2,0,0.4,0,0.7-0.1C18.1,21.6,18.3,21.5,18.4,21.4z
			 M18.6,8.7c0,0.5-0.2,1-0.6,1.4c-0.4,0.4-0.9,0.6-1.4,0.6c-0.6,0-1-0.2-1.4-0.6c-0.4-0.4-0.6-0.8-0.6-1.4c0-0.5,0.2-1,0.6-1.4
			C15.5,7,16,6.8,16.6,6.8c0.6,0,1,0.2,1.4,0.6C18.4,7.7,18.6,8.2,18.6,8.7z"/>
	</g>
</g>
</svg>
