<?xml version="1.0" encoding="utf-8"?>
<!-- Generator: Adobe Illustrator 18.1.1, SVG Export Plug-In . SVG Version: 6.00 Build 0)  -->
<!DOCTYPE svg PUBLIC "-//W3C//DTD SVG 1.1//EN" "http://www.w3.org/Graphics/SVG/1.1/DTD/svg11.dtd">
<svg version="1.1" id="Book" xmlns="http://www.w3.org/2000/svg" xmlns:xlink="http://www.w3.org/1999/xlink" x="0px" y="0px"
	 viewBox="0 0 30 30" style="enable-background:new 0 0 30 30;" xml:space="preserve">
<g>
	<path d="M20.3,9.3C20.3,9.3,20.3,9.3,20.3,9.3l-2.9,1.5c0,0,0,0,0,0c0,0,0,0,0,0c0,0,0,0,0,0c0,0.1-0.1,0.1-0.1,0.2c0,0,0,0,0,0
		c0,0,0,0,0,0v9.1c0,0,0,0.1,0,0.1c0,0,0,0,0,0c0,0.1,0.1,0.1,0.1,0.2c0,0,0,0,0,0c0,0,0,0,0,0c0,0,0.1,0,0.1,0s0.1,0,0.1,0l2.8-1.3
		l5-0.5c0,0,0,0,0,0c0.1,0,0.1,0,0.2-0.1c0,0,0,0,0,0c0,0,0,0,0,0c0,0,0,0,0-0.1c0-0.1,0.1-0.1,0.1-0.2V8.7c0,0,0,0,0,0c0,0,0,0,0,0
		c0-0.1,0-0.2-0.1-0.2c0,0,0,0,0,0c0,0,0,0,0,0c0,0,0,0,0,0c-0.1,0-0.1-0.1-0.2-0.1c0,0,0,0,0,0c0,0,0,0,0,0L20.3,9.3z M20.5,9.9
		l4-0.7l-4.1,4.3l-2.3-2.4L20.5,9.9z M25.1,17.6L20.9,14l4.3-4.4V17.6z M20,14.1l-2.1,4.5v-6.7L20,14.1z M20.3,18.5c0,0-0.1,0-0.1,0
		l-2,0.9l2.3-4.9l4.1,3.5L20.3,18.5z"/>
	<path d="M3.6,7.7l4,0.6c0,0,0,0,0.1,0C7.8,8.3,8,8.2,8,8c0-0.2-0.1-0.4-0.3-0.4L3.7,7C3.5,7,3.3,7.1,3.3,7.3
		C3.3,7.5,3.4,7.7,3.6,7.7z"/>
	<path d="M3.6,12.3l5.7,0.9l3.9,1.8c0,0,0.1,0,0.1,0c0.1,0,0.2-0.1,0.3-0.2c0.1-0.2,0-0.4-0.2-0.4l-3.9-1.8c0,0-0.1,0-0.1,0
		l-5.7-0.9c-0.2,0-0.4,0.1-0.4,0.3C3.3,12.1,3.4,12.3,3.6,12.3z"/>
	<path d="M13.4,16.8L9.5,15c0,0-0.1,0-0.1,0l-5.7-0.9c-0.2,0-0.4,0.1-0.4,0.3c0,0.2,0.1,0.4,0.3,0.4l5.7,0.9l3.9,1.8
		c0,0,0.1,0,0.1,0c0.1,0,0.2-0.1,0.3-0.2C13.7,17.1,13.6,16.9,13.4,16.8z"/>
	<path d="M13.4,19.3l-3.9-1.8c0,0-0.1,0-0.1,0l-5.7-0.9c-0.2,0-0.4,0.1-0.4,0.3c0,0.2,0.1,0.4,0.3,0.4l5.7,0.9l3.9,1.8
		c0,0,0.1,0,0.1,0c0.1,0,0.2-0.1,0.3-0.2C13.7,19.6,13.6,19.4,13.4,19.3z"/>
	<path d="M29,3.8c-0.1-0.1-0.3-0.2-0.5-0.2l-8.2,1.3c-0.1,0-0.1,0-0.2,0.1L15,7.3L9.9,5c-0.1,0-0.1,0-0.2-0.1L1.5,3.6
		c-0.2,0-0.4,0-0.5,0.2C0.8,3.9,0.8,4.1,0.8,4.3v18.2c0,0.3,0.3,0.6,0.6,0.7l8.1,1l5.3,2.2c0.1,0,0.2,0,0.3,0s0.2,0,0.3,0l5.3-2.2
		l8.1-1c0.3,0,0.6-0.3,0.6-0.7V4.3C29.2,4.1,29.2,3.9,29,3.8z M9.7,22.8l-7.6-0.9V5.1l7.3,1.2l5.2,2.4v16.1l-4.8-2
		C9.8,22.9,9.8,22.8,9.7,22.8z M27.9,21.9l-7.6,0.9c-0.1,0-0.1,0-0.2,0l-4.8,2V8.7l5.2-2.4l7.3-1.2V21.9z"/>
</g>
</svg>
