<?xml version="1.0" encoding="utf-8"?>
<!-- Generator: Adobe Illustrator 18.1.1, SVG Export Plug-In . SVG Version: 6.00 Build 0)  -->
<!DOCTYPE svg PUBLIC "-//W3C//DTD SVG 1.1//EN" "http://www.w3.org/Graphics/SVG/1.1/DTD/svg11.dtd">
<svg version="1.1" id="page" xmlns="http://www.w3.org/2000/svg" xmlns:xlink="http://www.w3.org/1999/xlink" x="0px" y="0px"
	 viewBox="0 0 30 30" style="enable-background:new 0 0 30 30;" xml:space="preserve">
<g>
	<g>
		<path d="M22.9,26.5H7.1c-0.6,0-1-0.4-1-1v-21c0-0.6,0.4-1,1-1h15.7c0.6,0,1,0.4,1,1v21C23.9,26,23.4,26.5,22.9,26.5z M8.1,24.5
			h13.7v-19H8.1V24.5z"/>
	</g>
	<g>
		<path d="M18.7,10.3h-7.5c-0.3,0-0.5-0.2-0.5-0.5s0.2-0.5,0.5-0.5h7.5c0.3,0,0.5,0.2,0.5,0.5S19,10.3,18.7,10.3z"/>
	</g>
	<g>
		<path d="M18.7,20.3h-7.5c-0.3,0-0.5-0.2-0.5-0.5s0.2-0.5,0.5-0.5h7.5c0.3,0,0.5,0.2,0.5,0.5S19,20.3,18.7,20.3z"/>
	</g>
	<g>
		<path d="M18.7,15.3h-7.5c-0.3,0-0.5-0.2-0.5-0.5s0.2-0.5,0.5-0.5h7.5c0.3,0,0.5,0.2,0.5,0.5S19,15.3,18.7,15.3z"/>
	</g>
</g>
</svg>
