<?xml version="1.0" encoding="utf-8"?>
<!-- Generator: Adobe Illustrator 18.1.1, SVG Export Plug-In . SVG Version: 6.00 Build 0)  -->
<!DOCTYPE svg PUBLIC "-//W3C//DTD SVG 1.1//EN" "http://www.w3.org/Graphics/SVG/1.1/DTD/svg11.dtd">
<svg version="1.1" id="pdf" xmlns="http://www.w3.org/2000/svg" xmlns:xlink="http://www.w3.org/1999/xlink" x="0px" y="0px"
	 viewBox="0 0 30 30" style="enable-background:new 0 0 30 30;" xml:space="preserve">
<g>
	<path d="M27,7l-5.9-5.8c-0.3-0.3-0.8-0.5-1.3-0.5H4.3c-1,0-1.8,0.8-1.8,1.8v25.1c0,1,0.8,1.8,1.8,1.8h21.5c1,0,1.8-0.8,1.8-1.8V8.3
		C27.5,7.8,27.3,7.3,27,7z M25.7,27.5H4.3V2.5h15.6l0,0l0,5.8h5.9V27.5z"/>
	<path d="M15,13c0.5-1.3,0.9-2.4,1-3.2c0.7-4-4.1-4.3-3.6,0c0.1,1.1,0.5,2.2,1,3.3c-0.6,1.5-1.3,3.1-2.1,4.6c-1.7,0.6-2.9,1.3-3.6,2
		c-2.5,2.4,0.6,5.5,3,2.1c0.6-0.8,1.2-2,1.7-2.9c1.5-0.5,3.2-1,4.8-1.3c1,0.8,2.7,1.8,4.1,1.8c2.6,0,2.9-3.2,0-3.6
		c-1.1-0.2-2.6,0-3.7,0.2C16.7,15.4,15.7,14.4,15,13z M9,21.4c-0.7,0.7-1.1,0.2-0.5-0.5c0.4-0.4,1.1-0.9,1.7-1.2
		C9.8,20.4,9.4,21,9,21.4z M13.9,8.8c0.1-0.7,0.6-0.6,0.7-0.1c0.1,0.6-0.2,1.7-0.4,2.2C13.9,10.4,13.8,9.4,13.9,8.8z M13.2,17
		c0,0,0.8-1.7,1.1-2.4c0.3,0.6,1.4,1.7,1.4,1.7C15.4,16.5,13.9,16.8,13.2,17z M21,17.3c0.9,0.1,1,0.7,0.2,0.7
		c-0.7,0-1.4-0.4-1.9-0.7C20,17.2,20.6,17.2,21,17.3z"/>
</g>
</svg>
