<?xml version="1.0" encoding="utf-8"?>
<!-- Generator: Adobe Illustrator 18.1.1, SVG Export Plug-In . SVG Version: 6.00 Build 0)  -->
<!DOCTYPE svg PUBLIC "-//W3C//DTD SVG 1.1//EN" "http://www.w3.org/Graphics/SVG/1.1/DTD/svg11.dtd">
<svg version="1.1" id="people" xmlns="http://www.w3.org/2000/svg" xmlns:xlink="http://www.w3.org/1999/xlink" x="0px" y="0px"
	 viewBox="0 0 30 30" style="enable-background:new 0 0 30 30;" xml:space="preserve">
<g>
	<path d="M3.3,11.6c0-1.2,0.8-2,1.9-2c1.1,0,1.9,0.8,1.9,2c0,0.9-0.4,1.8-1,2.3C6.1,14,6,14,6,14.1L6,15c0,0.9,2.3,1.5,3.3,1.7
		c0,0,0,0,0.1,0c0.1,0,0.2-0.1,0.3-0.2c0-0.2-0.1-0.3-0.2-0.3c-1.6-0.3-2.8-0.9-2.9-1.1l0-0.7c0.7-0.6,1.1-1.6,1.1-2.6
		c0-1.5-1.1-2.6-2.5-2.6s-2.5,1.1-2.5,2.6c0,1,0.4,2,1.1,2.6V15c0,0.2-1.3,0.8-2.9,1.1c-0.2,0-0.3,0.2-0.2,0.3
		c0,0.2,0.2,0.3,0.3,0.2c1-0.2,3.3-0.8,3.3-1.7v-0.9c0-0.1,0-0.2-0.1-0.2C3.7,13.4,3.3,12.5,3.3,11.6z"/>
	<path d="M29,18.3c-2.4-0.5-4.9-1.4-4.9-2l0-1.3c1.2-1,1.9-2.6,1.9-4.3c0-2.4-1.6-4.1-4-4.1c-1,0-1.9,0.3-2.6,0.9
		c-0.9-1.4-2.5-2.2-4.4-2.2c-3.1,0-5.3,2.3-5.3,5.5c0,0.2,0,0.5,0,0.7c0,0.1,0,0.1,0,0.2c0,0.2,0.1,0.4,0.1,0.5c0,0.1,0,0.1,0,0.2
		c0,0.2,0.1,0.4,0.1,0.6c0,0.1,0.1,0.2,0.1,0.3c0,0.1,0.1,0.2,0.1,0.3c0.2,0.4,0.4,0.8,0.6,1.2c0,0,0,0.1,0.1,0.1
		c0.2,0.2,0.3,0.5,0.5,0.7c0,0,0,0.1,0.1,0.1c0.1,0.1,0.2,0.2,0.2,0.3c0.1,0.1,0.2,0.2,0.2,0.2c0,0,0.1,0.1,0.1,0.1V18
		c0,0.5-2.7,1.7-6.2,2.4c-0.1,0-0.2,0.1-0.3,0.2l-1,1c-0.1,0.1-0.2,0.3-0.1,0.5c0,0.2,0.2,0.3,0.3,0.4c3.3,1.5,6.7,2.3,10.1,2.3
		c3.4,0,6.8-0.8,10.2-2.3c0.2-0.1,0.3-0.2,0.3-0.4c0-0.2,0-0.4-0.1-0.5l-1-1c-0.1-0.1-0.2-0.1-0.3-0.2c-3.3-0.7-5.8-1.7-6.1-2.3
		c2.3-0.8,2.5-1.4,2.5-1.8v-1.5c0-0.1,0-0.2-0.1-0.2c-0.2-0.2-0.5-0.4-0.7-0.7c0.3-0.7,0.5-1.4,0.6-2.2c0,0,0-0.1,0-0.1
		c0-0.2,0-0.5,0-0.7c0-1.1-0.2-2-0.7-2.8c0.6-0.6,1.4-0.9,2.3-0.9c2,0,3.4,1.5,3.4,3.6c0,1.5-0.7,3.1-1.8,3.9
		c-0.1,0.1-0.1,0.1-0.1,0.2l0,1.5c0,1.4,4.1,2.3,5.4,2.6c0,0,0,0,0.1,0c0.1,0,0.2-0.1,0.3-0.2C29.3,18.5,29.2,18.3,29,18.3z M15,6.4
		c2.5,0,4.2,1.8,4.2,4.4c0,0.2,0,0.4,0,0.7c0,0,0,0.1,0,0.1c-0.2,1.6-1,3.2-2.2,4.1c0,0,0,0,0,0c-0.3,0.3-0.7,0.5-1.1,0.6
		c-0.6,0.2-1.2,0.2-1.8,0c-0.4-0.1-0.7-0.3-1.1-0.6c0,0,0,0,0,0c-1.1-0.9-2-2.5-2.2-4.1c0,0,0-0.1,0-0.1c0-0.2,0-0.4,0-0.7
		C10.8,8.2,12.5,6.4,15,6.4z M13.7,17.3c0.4,0.1,0.8,0.2,1.2,0.2c0.4,0,0.8-0.1,1.2-0.2c0.2-0.1,0.4-0.1,0.5-0.2l0,0.9
		c0,0.3,0.1,0.5,0.3,0.7c-0.8,0.5-1.4,1-2,1.7c-0.7-0.6-1.3-1.1-2-1.7c0.2-0.2,0.3-0.5,0.3-0.7v-0.9C13.4,17.2,13.6,17.3,13.7,17.3z
		 M23.9,21.7c-6.1,2.4-12.1,2.5-17.9,0l0.3-0.3c1.7-0.4,4.9-1.2,6.3-2.3c0.8,0.6,1.5,1.1,2.2,1.8C14.8,21,14.9,21,15,21
		c0.1,0,0.1,0,0.2-0.1c0.8-0.8,1.4-1.2,2.2-1.8c1.4,1.2,4.5,2,6.2,2.3L23.9,21.7z M19.9,14.9v1.3c0,0.1-0.1,0.6-2,1.2l0-1.1
		c0.6-0.5,1.1-1.2,1.5-1.9C19.6,14.6,19.7,14.8,19.9,14.9z"/>
</g>
</svg>
