<?xml version="1.0" encoding="utf-8"?>
<!-- Generator: Adobe Illustrator 18.1.1, SVG Export Plug-In . SVG Version: 6.00 Build 0)  -->
<!DOCTYPE svg PUBLIC "-//W3C//DTD SVG 1.1//EN" "http://www.w3.org/Graphics/SVG/1.1/DTD/svg11.dtd">
<svg version="1.1" id="easle" xmlns="http://www.w3.org/2000/svg" xmlns:xlink="http://www.w3.org/1999/xlink" x="0px" y="0px"
	 viewBox="0 0 30 30" style="enable-background:new 0 0 30 30;" xml:space="preserve">
<style type="text/css">
	.st0{fill:#FFFFFF;}
</style>
<g>
	<g>
		<g>
			<path d="M11.4,1.7c0-0.1,0-0.1,0-0.1C11.4,1.6,11.4,1.7,11.4,1.7z"/>
		</g>
		<g>
			<path d="M11.6,1.4c0,0,0.1,0,0.1-0.1C11.7,1.3,11.6,1.3,11.6,1.4z"/>
		</g>
		<g>
			<path d="M11.4,1.5c0,0,0.1-0.1,0.1-0.1C11.5,1.4,11.5,1.5,11.4,1.5z"/>
		</g>
		<g>
			<path d="M11.9,1.2C11.8,1.2,11.8,1.2,11.9,1.2c0,0,0.1,0,0.1,0C11.9,1.2,11.9,1.2,11.9,1.2z"/>
		</g>
		<g>
			<path d="M12.1,1.2c0.2,0,0.3,0.1,0.4,0.2C12.4,1.3,12.2,1.3,12.1,1.2z"/>
		</g>
		<g>
			<path d="M12,1.2C12,1.2,12,1.2,12,1.2C12,1.2,12,1.2,12,1.2C12,1.2,12,1.2,12,1.2z"/>
		</g>
		<g>
			<path d="M11.5,1.4C11.6,1.4,11.6,1.4,11.5,1.4C11.6,1.4,11.6,1.4,11.5,1.4z"/>
		</g>
		<g>
			<path d="M12.5,1.5C12.5,1.5,12.5,1.5,12.5,1.5C12.5,1.5,12.5,1.5,12.5,1.5z"/>
		</g>
		<g>
			<path d="M11.4,1.6C11.4,1.6,11.4,1.5,11.4,1.6C11.4,1.5,11.4,1.6,11.4,1.6z"/>
		</g>
		<g>
			<path d="M11.7,1.3C11.8,1.3,11.8,1.3,11.7,1.3C11.8,1.3,11.8,1.3,11.7,1.3z"/>
		</g>
		<g>
			<path class="st0" d="M11.3,14.2"/>
		</g>
		<g>
			<path d="M19.8,19.8l3.2-0.4l-0.2-1.9l-0.7,0.1L19.9,4.7c-0.1-0.3-0.4-0.5-0.7-0.5l-5.5,0.3l-1.1-2.8c0,0,0-0.1-0.1-0.1
				c0,0,0,0,0-0.1c-0.1-0.1-0.2-0.2-0.4-0.2c0,0,0,0-0.1,0c-0.1,0-0.1,0-0.2,0c0,0-0.1,0-0.1,0c0,0-0.1,0-0.1,0.1c0,0,0,0-0.1,0.1
				c0,0-0.1,0.1-0.1,0.1c0,0,0,0.1,0,0.1c0,0,0,0.1,0,0.1c0,0,0,0,0,0.1L11,4.6L7.6,4.8c-0.2,0-0.3,0.1-0.5,0.2S6.9,5.4,7,5.5
				l1.7,13.6l-0.8,0.1l0.2,1.9L9.3,21L9,24.6c0,0.4,0.2,0.7,0.6,0.7c0,0,0,0,0.1,0c0.3,0,0.6-0.2,0.6-0.6l0.4-3.9l0.7-0.1v7.3
				c0,0.4,0.3,0.6,0.6,0.6s0.6-0.3,0.6-0.6v-7.5l5.9-0.7l2.8,7.1c0.1,0.3,0.5,0.5,0.8,0.4c0.3-0.1,0.5-0.5,0.4-0.8L19.8,19.8z
				 M9.9,19l-1.6-13l10.4-0.6l2.1,12.4L9.9,19z"/>
		</g>
	</g>
	<g>
		<path d="M14,16.1C13.9,16.1,13.9,16.1,14,16.1c-0.2,0-0.3-0.1-0.3-0.3L13.3,14l-1.4,0.1c0,0,0,0,0,0c-0.5,0-0.8-0.3-0.9-0.7
			l-1-4.7C9.8,8.4,9.9,8.2,10,8c0.1-0.2,0.3-0.3,0.5-0.3l6.3-0.3c0,0,0,0,0,0c0.5,0,0.8,0.3,0.9,0.7l1,4.7c0.1,0.2,0,0.5-0.1,0.6
			c-0.1,0.2-0.3,0.3-0.5,0.3l-1.7,0.1L14.2,16C14.1,16.1,14.1,16.1,14,16.1z M13.5,13.4c0.1,0,0.3,0.1,0.3,0.3l0.3,1.5l1.9-1.9
			c0.1-0.1,0.1-0.1,0.2-0.1l1.8-0.1c0,0,0.1,0,0.1,0c0,0,0-0.1,0-0.1l-1-4.7C17.1,8.2,17,8,16.9,8l-6.3,0.3c0,0-0.1,0-0.1,0
			c0,0,0,0.1,0,0.1l1,4.7c0,0.1,0.2,0.2,0.3,0.2L13.5,13.4C13.5,13.4,13.5,13.4,13.5,13.4z"/>
	</g>
	<g>
		<circle cx="13" cy="10.5" r="0.4"/>
	</g>
	<g>
		<circle cx="14.4" cy="10.4" r="0.4"/>
	</g>
	<g>
		<circle cx="15.7" cy="10.4" r="0.4"/>
	</g>
</g>
</svg>
