<?xml version="1.0" encoding="utf-8"?>
<!-- Generator: Adobe Illustrator 18.1.1, SVG Export Plug-In . SVG Version: 6.00 Build 0)  -->
<!DOCTYPE svg PUBLIC "-//W3C//DTD SVG 1.1//EN" "http://www.w3.org/Graphics/SVG/1.1/DTD/svg11.dtd">
<svg version="1.1" id="support" xmlns="http://www.w3.org/2000/svg" xmlns:xlink="http://www.w3.org/1999/xlink" x="0px" y="0px"
	 viewBox="0 0 30 30" style="enable-background:new 0 0 30 30;" xml:space="preserve">
<g>
	<path d="M26.8,3H3.2C1.9,3,0.9,4.1,0.9,5.4v15.8c0,1.3,1.1,2.3,2.3,2.3h8.1v2.3H7.1c-0.3,0-0.5,0.2-0.5,0.5v0.1
		c0,0.3,0.2,0.5,0.5,0.5h15.8c0.3,0,0.5-0.2,0.5-0.5v-0.1c0-0.3-0.2-0.5-0.5-0.5h-4.3v-2.3h8.1c1.3,0,2.3-1.1,2.3-2.3V5.4
		C29.1,4.1,28.1,3,26.8,3z M28.1,21.1c0,0.7-0.6,1.3-1.3,1.3H3.2c-0.7,0-1.3-0.6-1.3-1.3V5.4C1.9,4.6,2.5,4,3.2,4h23.5
		c0.7,0,1.3,0.6,1.3,1.3V21.1z"/>
	<path d="M26.8,4.8H3.2c-0.3,0-0.6,0.3-0.6,0.6v13.7c0,0.3,0.3,0.6,0.6,0.6h23.5c0.3,0,0.6-0.3,0.6-0.6V5.4
		C27.3,5.1,27.1,4.8,26.8,4.8z M26.8,19.1C26.8,19.2,26.8,19.2,26.8,19.1L3.2,19.2c0,0-0.1,0-0.1-0.1V5.4c0,0,0-0.1,0.1-0.1h23.5
		c0,0,0.1,0,0.1,0.1V19.1z"/>
	<polygon points="14.2,9.9 14.8,14.6 15.8,14.6 16.4,9.9 16.4,7.3 14.2,7.3 	"/>
	<rect x="14.3" y="15.4" width="2.1" height="2"/>
</g>
</svg>
