<?xml version="1.0" encoding="utf-8"?>
<!-- Generator: Adobe Illustrator 18.1.1, SVG Export Plug-In . SVG Version: 6.00 Build 0)  -->
<!DOCTYPE svg PUBLIC "-//W3C//DTD SVG 1.1//EN" "http://www.w3.org/Graphics/SVG/1.1/DTD/svg11.dtd">
<svg version="1.1" id="teacher" xmlns="http://www.w3.org/2000/svg" xmlns:xlink="http://www.w3.org/1999/xlink" x="0px" y="0px"
	 viewBox="0 0 30 30" style="enable-background:new 0 0 30 30;" xml:space="preserve">
<path d="M20.1,4.9L20.1,4.9c-1.3,0-2.4,0.4-3.4,0.8c-0.6,0.2-1.2,0.5-1.6,0.5c-0.1-0.4-0.2-0.8-0.3-1.1c2.3,0.6,3.8-1.9,4.6-4.3
	c-2.9-0.4-4.9,1.8-4.7,3.9c-0.4-1.1-0.8-2.2-1.5-3l-1.2,0.9c0.7,0.9,1.2,2.1,1.5,3.3c-0.1,0-0.2-0.1-0.2-0.1c-1-0.4-2.1-0.8-3.3-0.8
	l-0.1,0C5.8,5,1.7,8.4,1.7,14.7c0,6.5,4.7,14.6,8.6,14.6l0.1,0c1,0,1.7-0.3,2.4-0.6c0.7-0.3,1.3-0.5,2.2-0.6c0.9,0,1.6,0.3,2.2,0.6
	c0.7,0.3,1.4,0.6,2.4,0.6l0.1,0c0,0,0,0,0,0c1.8,0,4-1.8,5.8-4.9c1.8-3,2.8-6.6,2.8-9.7C28.3,8.4,24.2,5,20.1,4.9z M24.3,23.6
	c-1.5,2.5-3.3,4.2-4.5,4.2l-0.1,0c-0.8,0-1.3-0.3-1.9-0.5C17,27,16.2,26.6,15,26.6c-1.2,0.1-2,0.4-2.7,0.7c-0.6,0.3-1.2,0.5-2,0.5
	c-1.3,0-3-1.6-4.5-4.2c-1.6-2.8-2.6-6.2-2.6-9C3.1,9,6.6,6.4,10,6.4c0.9,0,1.9,0.4,2.8,0.7c0.4,0.2,0.8,0.3,1.1,0.4
	C14,8.3,14.1,9,14.2,9.4c-1.4-0.2-1.8-0.7-1.8-0.7c-0.1-0.2-0.3-0.2-0.5-0.1c-0.2,0.1-0.2,0.3-0.2,0.5c0.1,0.1,0.7,1.2,3.2,1.2
	c2.5,0,3.1-1,3.1-1.2c0.1-0.2,0-0.4-0.2-0.5c-0.2-0.1-0.4,0-0.5,0.2c0,0-0.3,0.6-1.8,0.7c0-0.4-0.1-1-0.2-1.8
	c0.6-0.1,1.2-0.3,1.8-0.6c0.9-0.3,1.8-0.7,2.8-0.7c0,0,0,0,0,0c3.3,0,6.8,2.7,6.8,8.3C26.9,17.5,25.9,20.9,24.3,23.6z"/>
</svg>
