<?xml version="1.0" encoding="utf-8"?>
<!-- Generator: Adobe Illustrator 18.1.1, SVG Export Plug-In . SVG Version: 6.00 Build 0)  -->
<!DOCTYPE svg PUBLIC "-//W3C//DTD SVG 1.1//EN" "http://www.w3.org/Graphics/SVG/1.1/DTD/svg11.dtd">
<svg version="1.1" id="Tour" xmlns="http://www.w3.org/2000/svg" xmlns:xlink="http://www.w3.org/1999/xlink" x="0px" y="0px"
	 viewBox="0 0 30 30" style="enable-background:new 0 0 30 30;" xml:space="preserve">
<path d="M21.4,5.1c-0.1-0.3-0.4-0.4-0.6-0.4c-4.6,0-5-1.2-5.3-2.3c-0.3-0.9-0.7-2.1-2.9-2.1c-1.2,0-3.3,1.1-3.5,1.2
	C8.7,1.7,8.6,1.9,8.6,2.2v7.5c0,0.2,0.1,0.5,0.3,0.6v18.6c0,0.2,0.2,0.3,0.3,0.3s0.3-0.2,0.3-0.3V10.2c0.1-0.1,0.2-0.1,0.2-0.2
	c0.3-0.6,1.4-2,2.5-2c0.2,0,0.4,0.1,0.6,0.2c0.6,0.3,1.3,0.5,2.2,0.5c2,0,4.4-1.1,6.1-2.8C21.4,5.7,21.5,5.4,21.4,5.1z M13.6,6.9
	c-0.4-0.2-0.8-0.3-1.2-0.3c-0.9,0-1.8,0.5-2.4,1.1V2.6c0.8-0.4,2-0.9,2.5-0.9c1.3,0,1.4,0.3,1.6,1.1c0.5,1.5,1.2,2.8,4.8,3.1
	C17,7.2,14.8,7.6,13.6,6.9z"/>
</svg>
