<?xml version="1.0" encoding="utf-8"?>
<!-- Generator: Adobe Illustrator 18.1.1, SVG Export Plug-In . SVG Version: 6.00 Build 0)  -->
<!DOCTYPE svg PUBLIC "-//W3C//DTD SVG 1.1//EN" "http://www.w3.org/Graphics/SVG/1.1/DTD/svg11.dtd">
<svg version="1.1" id="eye-on" xmlns="http://www.w3.org/2000/svg" xmlns:xlink="http://www.w3.org/1999/xlink" x="0px" y="0px"
	 viewBox="0 0 30 30" style="enable-background:new 0 0 30 30;" xml:space="preserve">
<style type="text/css">
	.st0{fill:none;stroke:#000000;stroke-linecap:round;stroke-linejoin:round;stroke-miterlimit:10;}
</style>
<path class="st0" d="M15,7.5c-4.7,0-8.9,3-11.1,7.5c1.2,2.5,3.1,4.6,5.3,5.9c0.2,0.1,0.5,0.3,0.8,0.4c0.5,0.3,1,0.5,1.6,0.7
	c1.1,0.4,2.2,0.5,3.4,0.5s2.3-0.2,3.4-0.5c0.5-0.2,1.1-0.4,1.6-0.7c0.3-0.1,0.5-0.3,0.8-0.4c2.2-1.3,4.1-3.4,5.3-5.9
	C23.9,10.5,19.7,7.5,15,7.5z"/>
<path d="M20.5,15c0-3-2.5-5.5-5.5-5.5l0,0c-3,0-5.5,2.5-5.5,5.5l0,0c0,3,2.5,5.5,5.5,5.5l0,0C18,20.5,20.5,18,20.5,15L20.5,15z"/>
</svg>
