<?xml version="1.0" encoding="utf-8"?>
<!-- Generator: Adobe Illustrator 18.1.1, SVG Export Plug-In . SVG Version: 6.00 Build 0)  -->
<!DOCTYPE svg PUBLIC "-//W3C//DTD SVG 1.1//EN" "http://www.w3.org/Graphics/SVG/1.1/DTD/svg11.dtd">
<svg version="1.1" id="write" xmlns="http://www.w3.org/2000/svg" xmlns:xlink="http://www.w3.org/1999/xlink" x="0px" y="0px"
	 viewBox="0 0 30 30" style="enable-background:new 0 0 30 30;" xml:space="preserve">
<style type="text/css">
	.st0{fill:none;}
	.st1{fill:#FFFFFF;}
</style>
<g>
	<path d="M27.5,10.8c0-0.2-0.1-0.4-0.2-0.6l-2.7-2.7c-0.3-0.3-0.8-0.3-1.1,0l-1.6,1.6c0,0,0,0,0,0c0,0,0,0,0,0l-9.2,9.2
		c-0.1,0.1-0.2,0.3-0.2,0.5l-0.3,3c0,0.2,0.1,0.5,0.2,0.6c0.2,0.2,0.4,0.2,0.6,0.2c0,0,0.1,0,0.1,0l3-0.3c0.2,0,0.4-0.1,0.5-0.2
		l9.2-9.2c0,0,0,0,0,0c0,0,0,0,0,0l1.6-1.6C27.4,11.2,27.5,11,27.5,10.8z M25.6,10.8l-0.5,0.5l-1.6-1.6L24,9.2L25.6,10.8z
		 M15.5,20.9L13.8,21l0.2-1.7l8.5-8.5l1.6,1.6L15.5,20.9z"/>
	<g>
		<path class="st0" d="M6,11.3h10.2c0.4,0,0.8,0.4,0.8,0.8c0,0.4-0.4,0.8-0.8,0.8H6c-0.4,0-0.8-0.4-0.8-0.8
			C5.2,11.7,5.6,11.3,6,11.3z"/>
		<path class="st0" d="M24,9.2l1.6,1.6l-0.5,0.5l-1.6-1.6L24,9.2z"/>
		<path d="M18.5,25.7H4.1V4.3h10.6l0,4.2h3.8v2.8l1.6-1.6V8.5c0-0.4-0.1-0.8-0.4-1.1l-3.8-4.2c-0.3-0.3-0.7-0.5-1.2-0.5H4.1
			c-0.9,0-1.6,0.7-1.6,1.6v21.4c0,0.9,0.7,1.6,1.6,1.6h14.4c0.9,0,1.6-0.7,1.6-1.6v-6.1l-1.6,1.6V25.7z"/>
		<path d="M6,12.9h10.2c0.4,0,0.8-0.4,0.8-0.8c0-0.4-0.4-0.8-0.8-0.8H6c-0.4,0-0.8,0.4-0.8,0.8C5.2,12.5,5.6,12.9,6,12.9z"/>
		<path d="M6,19.3c-0.4,0-0.8,0.4-0.8,0.8c0,0.4,0.4,0.8,0.8,0.8h5.3l0.2-1.6H6z"/>
		<path d="M6,15.3c-0.4,0-0.8,0.4-0.8,0.8c0,0.4,0.4,0.8,0.8,0.8h6.9l1.6-1.6H6z"/>
		<rect x="23.4" y="9.9" transform="matrix(0.7072 0.707 -0.707 0.7072 14.4298 -14.3524)" class="st1" width="2.2" height="0.7"/>
	</g>
</g>
</svg>
