<?xml version="1.0" encoding="utf-8"?>
<!-- Generator: Adobe Illustrator 18.1.1, SVG Export Plug-In . SVG Version: 6.00 Build 0)  -->
<!DOCTYPE svg PUBLIC "-//W3C//DTD SVG 1.1//EN" "http://www.w3.org/Graphics/SVG/1.1/DTD/svg11.dtd">
<svg version="1.1" id="access" xmlns="http://www.w3.org/2000/svg" xmlns:xlink="http://www.w3.org/1999/xlink" x="0px" y="0px"
	 viewBox="0 0 30 30" style="enable-background:new 0 0 30 30;" xml:space="preserve">
<g>
	<path d="M15,0.6C7.2,0.6,0.8,6.9,0.8,14.7c0,8,6.5,14.7,14.2,14.7s14.2-6.7,14.2-14.7C29.2,6.9,22.8,0.6,15,0.6z M15,28.2
		c-7,0-13-6.2-13-13.5c0-7.1,5.8-13,13-13c7.1,0,13,5.8,13,13C28,22.1,22,28.2,15,28.2z"/>
	<circle cx="15" cy="8.5" r="1.5"/>
	<path d="M15,3.4C8.7,3.4,3.7,8.5,3.7,14.8C3.7,21,8.7,26.6,15,26.6S26.3,21,26.3,14.8C26.3,8.5,21.3,3.4,15,3.4z M21.6,14.8
		c-0.1,0.4-0.5,0.7-0.9,0.7c-0.1,0-0.1,0-0.2,0l-4.7-1v2.6l3.2,6.3c0.2,0.4,0,1-0.4,1.2c-0.1,0.1-0.3,0.1-0.4,0.1
		c-0.3,0-0.6-0.2-0.8-0.5L15,19.3l-2.5,4.9c-0.2,0.3-0.5,0.5-0.8,0.5c-0.1,0-0.3,0-0.4-0.1c-0.4-0.2-0.6-0.8-0.4-1.2l3.2-6.3v-2.6
		l-4.7,1c-0.1,0-0.1,0-0.2,0c-0.4,0-0.8-0.3-0.9-0.7c-0.1-0.5,0.2-1,0.7-1.1l5-1v-1.1c-1.4-0.4-2.4-1.6-2.4-3.1
		c0-1.8,1.5-3.3,3.3-3.3s3.3,1.5,3.3,3.3c0,1.5-1,2.8-2.4,3.1v1.1l5,1C21.4,13.8,21.7,14.3,21.6,14.8z"/>
</g>
</svg>
