<?xml version="1.0" encoding="utf-8"?>
<!-- Generator: Adobe Illustrator 18.1.1, SVG Export Plug-In . SVG Version: 6.00 Build 0)  -->
<!DOCTYPE svg PUBLIC "-//W3C//DTD SVG 1.1//EN" "http://www.w3.org/Graphics/SVG/1.1/DTD/svg11.dtd">
<svg version="1.1" id="apps" xmlns="http://www.w3.org/2000/svg" xmlns:xlink="http://www.w3.org/1999/xlink" x="0px" y="0px"
	 viewBox="0 0 30 30" style="enable-background:new 0 0 30 30;" xml:space="preserve">
<g>
	<g>
		<path d="M4.2,8C2.1,8,0.4,6.3,0.4,4.2s1.7-3.8,3.8-3.8S8,2.1,8,4.2S6.3,8,4.2,8z M4.2,2.2c-1.1,0-2,0.9-2,2s0.9,2,2,2s2-0.9,2-2
			S5.3,2.2,4.2,2.2z"/>
	</g>
	<g>
		<path d="M15,8c-2.1,0-3.8-1.7-3.8-3.8s1.7-3.8,3.8-3.8c2.1,0,3.8,1.7,3.8,3.8S17.1,8,15,8z M15,2.2c-1.1,0-2,0.9-2,2s0.9,2,2,2
			c1.1,0,2-0.9,2-2S16.1,2.2,15,2.2z"/>
	</g>
	<g>
		<path d="M25.8,8C23.7,8,22,6.3,22,4.2s1.7-3.8,3.8-3.8s3.8,1.7,3.8,3.8S27.9,8,25.8,8z M25.8,2.2c-1.1,0-2,0.9-2,2s0.9,2,2,2
			c1.1,0,2-0.9,2-2S26.9,2.2,25.8,2.2z"/>
	</g>
	<g>
		<path d="M4.2,18.8c-2.1,0-3.8-1.7-3.8-3.8c0-2.1,1.7-3.8,3.8-3.8S8,12.9,8,15C8,17.1,6.3,18.8,4.2,18.8z M4.2,13c-1.1,0-2,0.9-2,2
			c0,1.1,0.9,2,2,2s2-0.9,2-2C6.2,13.9,5.3,13,4.2,13z"/>
	</g>
	<g>
		<path d="M15,18.8c-2.1,0-3.8-1.7-3.8-3.8c0-2.1,1.7-3.8,3.8-3.8c2.1,0,3.8,1.7,3.8,3.8C18.8,17.1,17.1,18.8,15,18.8z M15,13
			c-1.1,0-2,0.9-2,2c0,1.1,0.9,2,2,2c1.1,0,2-0.9,2-2C17,13.9,16.1,13,15,13z"/>
	</g>
	<g>
		<path d="M25.8,18.8c-2.1,0-3.8-1.7-3.8-3.8c0-2.1,1.7-3.8,3.8-3.8s3.8,1.7,3.8,3.8C29.6,17.1,27.9,18.8,25.8,18.8z M25.8,13
			c-1.1,0-2,0.9-2,2c0,1.1,0.9,2,2,2c1.1,0,2-0.9,2-2C27.8,13.9,26.9,13,25.8,13z"/>
	</g>
	<g>
		<path d="M4.2,29.6c-2.1,0-3.8-1.7-3.8-3.8S2.1,22,4.2,22S8,23.7,8,25.8S6.3,29.6,4.2,29.6z M4.2,23.8c-1.1,0-2,0.9-2,2
			c0,1.1,0.9,2,2,2s2-0.9,2-2C6.2,24.7,5.3,23.8,4.2,23.8z"/>
	</g>
	<g>
		<path d="M15,29.6c-2.1,0-3.8-1.7-3.8-3.8S12.9,22,15,22c2.1,0,3.8,1.7,3.8,3.8S17.1,29.6,15,29.6z M15,23.8c-1.1,0-2,0.9-2,2
			c0,1.1,0.9,2,2,2c1.1,0,2-0.9,2-2C17,24.7,16.1,23.8,15,23.8z"/>
	</g>
	<g>
		<path d="M25.8,29.6c-2.1,0-3.8-1.7-3.8-3.8s1.7-3.8,3.8-3.8s3.8,1.7,3.8,3.8S27.9,29.6,25.8,29.6z M25.8,23.8c-1.1,0-2,0.9-2,2
			c0,1.1,0.9,2,2,2c1.1,0,2-0.9,2-2C27.8,24.7,26.9,23.8,25.8,23.8z"/>
	</g>
</g>
</svg>
