<?xml version="1.0" encoding="utf-8"?>
<!-- Generator: Adobe Illustrator 18.1.1, SVG Export Plug-In . SVG Version: 6.00 Build 0)  -->
<!DOCTYPE svg PUBLIC "-//W3C//DTD SVG 1.1//EN" "http://www.w3.org/Graphics/SVG/1.1/DTD/svg11.dtd">
<svg version="1.1" id="Assignment" xmlns="http://www.w3.org/2000/svg" xmlns:xlink="http://www.w3.org/1999/xlink" x="0px" y="0px"
	 viewBox="0 0 30 30" style="enable-background:new 0 0 30 30;" xml:space="preserve">
<polygon id="check" points="12.9,9.9 11.8,8.9 10.7,10 11.7,11 12.9,12.2 14,11 17.3,7.8 16.1,6.6 "/>
<g id="box_2">
	<path d="M16.3,14.6h-7c-0.3,0-0.5-0.2-0.5-0.5V7c0-0.3,0.2-0.5,0.5-0.5h4.4c0.3,0,0.5,0.2,0.5,0.5s-0.2,0.5-0.5,0.5H9.8v6h6v-3.2
		c0-0.3,0.2-0.5,0.5-0.5s0.5,0.2,0.5,0.5v3.7C16.8,14.3,16.6,14.6,16.3,14.6z"/>
</g>
<g id="box1">
	<path d="M16.3,24.7h-7c-0.3,0-0.5-0.2-0.5-0.5v-7c0-0.3,0.2-0.5,0.5-0.5h7c0.3,0,0.5,0.2,0.5,0.5v7C16.8,24.5,16.6,24.7,16.3,24.7z
		 M9.8,23.7h6v-6h-6V23.7z"/>
</g>
<path id="page" d="M24.3,6.6l-4-4.5c-0.4-0.4-0.9-0.7-1.5-0.7H7.4c-1.1,0-2,0.9-2,2v22.9c0,1.1,0.9,2,2,2h15.4c1.1,0,2-0.9,2-2V7.9
	C24.8,7.4,24.6,7,24.3,6.6z M22.8,26.3H7.4V3.4h11.3l0,4.5h4V26.3z"/>
</svg>
