<?xml version="1.0" encoding="utf-8"?>
<!-- Generator: Adobe Illustrator 18.1.1, SVG Export Plug-In . SVG Version: 6.00 Build 0)  -->
<!DOCTYPE svg PUBLIC "-//W3C//DTD SVG 1.1//EN" "http://www.w3.org/Graphics/SVG/1.1/DTD/svg11.dtd">
<svg version="1.1" id="beaker" xmlns="http://www.w3.org/2000/svg" xmlns:xlink="http://www.w3.org/1999/xlink" x="0px" y="0px"
	 viewBox="0 0 30 30" style="enable-background:new 0 0 30 30;" xml:space="preserve">
<g>
	<g>
		<path d="M17.8,10.1c0,0-0.1,0-0.1,0l-1.1-0.3c-0.4-0.1-0.9-0.1-1.3,0l-0.4,0.1c-0.6,0.2-1.2,0.2-1.7,0l-1.1-0.3
			c-0.2-0.1-0.3-0.3-0.3-0.5c0.1-0.2,0.3-0.3,0.5-0.3l1.1,0.3c0.4,0.1,0.9,0.1,1.3,0L15.1,9c0.6-0.2,1.2-0.2,1.8,0l1.1,0.3
			c0.2,0.1,0.3,0.3,0.3,0.5C18.1,10,18,10.1,17.8,10.1z"/>
	</g>
	<g>
		<path d="M23,27.6H7c-0.9,0-1.8-0.5-2.3-1.2c-0.5-0.8-0.6-1.8-0.2-2.6l6.4-14.6c0.1-0.2,0.1-0.3,0.1-0.5V5.1c0-0.7-0.6-1.2-1.2-1.2
			H9c-0.4,0-0.8-0.3-0.8-0.8S8.5,2.4,9,2.4h0.7c1.5,0,2.8,1.2,2.8,2.8v3.6c0,0.4-0.1,0.8-0.2,1.1L5.8,24.4c-0.2,0.4-0.1,0.8,0.1,1.2
			c0.2,0.4,0.6,0.6,1,0.6H23c0.4,0,0.8-0.2,1-0.6c0.2-0.4,0.3-0.8,0.1-1.2L17.8,9.8c-0.2-0.4-0.2-0.7-0.2-1.1V5.1
			c0-1.5,1.2-2.8,2.8-2.8H21c0.4,0,0.8,0.3,0.8,0.8S21.5,3.9,21,3.9h-0.7c-0.7,0-1.2,0.6-1.2,1.2v3.6c0,0.2,0,0.3,0.1,0.5l6.4,14.6
			c0.4,0.9,0.3,1.8-0.2,2.6C24.8,27.2,24,27.6,23,27.6z"/>
	</g>
	<g>
		<path d="M13.6,22c-1,0-1.8-0.8-1.8-1.8c0-1,0.8-1.8,1.8-1.8s1.8,0.8,1.8,1.8C15.4,21.2,14.6,22,13.6,22z M13.6,19.2
			c-0.6,0-1,0.5-1,1s0.5,1,1,1c0.6,0,1-0.5,1-1S14.2,19.2,13.6,19.2z"/>
	</g>
	<g>
		<path d="M17,17.7c-0.6,0-1.2-0.5-1.2-1.2c0-0.6,0.5-1.2,1.2-1.2c0.6,0,1.2,0.5,1.2,1.2C18.2,17.1,17.7,17.7,17,17.7z M17,16.1
			c-0.2,0-0.4,0.2-0.4,0.4c0,0.2,0.2,0.4,0.4,0.4c0.2,0,0.4-0.2,0.4-0.4C17.5,16.3,17.3,16.1,17,16.1z"/>
	</g>
	<g>
		<path d="M15.1,14.4c-0.6,0-1.1-0.5-1.1-1.1c0-0.6,0.5-1.1,1.1-1.1c0.6,0,1.1,0.5,1.1,1.1C16.2,13.9,15.7,14.4,15.1,14.4z M15.1,13
			c-0.2,0-0.3,0.1-0.3,0.3s0.1,0.3,0.3,0.3c0.2,0,0.3-0.1,0.3-0.3S15.3,13,15.1,13z"/>
	</g>
</g>
</svg>
