<?xml version="1.0" encoding="utf-8"?>
<!-- Generator: Adobe Illustrator 18.1.1, SVG Export Plug-In . SVG Version: 6.00 Build 0)  -->
<!DOCTYPE svg PUBLIC "-//W3C//DTD SVG 1.1//EN" "http://www.w3.org/Graphics/SVG/1.1/DTD/svg11.dtd">
<svg version="1.1" id="collab" xmlns="http://www.w3.org/2000/svg" xmlns:xlink="http://www.w3.org/1999/xlink" x="0px" y="0px"
	 viewBox="0 0 30 30" style="enable-background:new 0 0 30 30;" xml:space="preserve">
<g>
	<g>
		<g>
			<path d="M16.7,26.7c0,0-0.1,0-0.1,0c-2.4-0.5-3.6-1.1-3.6-1.9l0-0.9c0-0.2,0.1-0.3,0.2-0.4c0.6-0.4,0.9-1.3,0.9-2
				c0-1.2-0.8-1.7-1.7-1.7s-1.7,0.5-1.7,1.7c0,0.8,0.4,1.6,0.9,2c0.1,0.1,0.2,0.3,0.2,0.4v0.9c0,0.8-1.2,1.5-3.6,1.9
				c-0.3,0.1-0.6-0.1-0.7-0.4c-0.1-0.3,0.1-0.6,0.4-0.7c1.2-0.2,2.4-0.7,2.7-0.9v-0.5c-0.7-0.7-1.1-1.7-1.1-2.8
				c0-1.7,1.2-2.9,2.8-2.9s2.8,1.2,2.8,2.9c0,1-0.4,2.1-1.1,2.8l0,0.5c0.3,0.3,1.5,0.7,2.7,0.9c0.3,0.1,0.5,0.4,0.4,0.7
				C17.2,26.5,17,26.7,16.7,26.7z"/>
		</g>
	</g>
	<g>
		<g>
			<path d="M18,16.5c-0.3,0-0.5-0.2-0.6-0.5c-0.1-0.3,0.1-0.6,0.4-0.7c1.2-0.2,2.4-0.7,2.7-0.9v-0.5c-0.7-0.7-1.1-1.7-1.1-2.8
				c0-1.7,1.2-2.9,2.8-2.9c1.6,0,2.8,1.2,2.8,2.9c0,1-0.4,2.1-1.1,2.8l0,0.5c0.3,0.3,1.5,0.7,2.7,0.9c0.3,0.1,0.5,0.4,0.4,0.7
				c-0.1,0.3-0.4,0.5-0.7,0.4c-2.4-0.5-3.6-1.1-3.6-1.9l0-0.9c0-0.2,0.1-0.3,0.2-0.4c0.6-0.4,0.9-1.3,0.9-2c0-1.2-0.8-1.7-1.7-1.7
				s-1.7,0.5-1.7,1.7c0,0.8,0.4,1.6,0.9,2c0.1,0.1,0.2,0.3,0.2,0.4v0.9c0,0.8-1.2,1.5-3.6,1.9C18.1,16.5,18.1,16.5,18,16.5z"/>
		</g>
	</g>
	<g>
		<g>
			<path d="M4.1,11.8c-0.3,0-0.5-0.2-0.6-0.5c-0.1-0.3,0.1-0.6,0.4-0.7c1.2-0.2,2.4-0.7,2.7-0.9V9.3C5.9,8.6,5.5,7.5,5.5,6.5
				c0-1.7,1.2-2.9,2.8-2.9c1.6,0,2.8,1.2,2.8,2.9c0,1-0.4,2.1-1.1,2.8l0,0.5c0.3,0.3,1.5,0.7,2.7,0.9c0.3,0.1,0.5,0.4,0.4,0.7
				c-0.1,0.3-0.4,0.5-0.7,0.4c-2.4-0.5-3.6-1.1-3.6-1.9l0-0.9c0-0.2,0.1-0.3,0.2-0.4c0.6-0.4,0.9-1.3,0.9-2c0-1.2-0.8-1.7-1.7-1.7
				S6.6,5.3,6.6,6.5c0,0.8,0.4,1.6,0.9,2C7.7,8.7,7.8,8.8,7.8,9v0.9c0,0.8-1.2,1.5-3.6,1.9C4.2,11.8,4.1,11.8,4.1,11.8z"/>
		</g>
	</g>
	<g>
		<path d="M24.8,19c-0.1-0.1-0.3,0-0.4,0.1c-0.9,1.8-2.2,3.3-3.9,4.4l0-1l-1.9,2.1c-0.1,0.1,0,0.2,0.1,0.2l2.8-0.1l-0.8-0.7
			c1.8-1.1,3.3-2.8,4.2-4.7C25,19.2,25,19.1,24.8,19z"/>
		<path d="M18.7,5.6l2.8,0.6c0.1,0,0.2-0.1,0.1-0.2l-1.5-2.4l-0.2,1c-1.9-1-4-1.4-6.2-1.3c-0.2,0-0.3,0.1-0.3,0.3
			c0,0.2,0.2,0.3,0.3,0.3c2-0.2,4,0.2,5.8,1.2L18.7,5.6z"/>
		<path d="M4.5,16.9l0.9,0.3l-1.3-2.5c-0.1-0.1-0.2-0.1-0.2,0L3,17.4L3.9,17c0.4,2.1,1.5,4,3,5.5c0.1,0.1,0.1,0.1,0.2,0.1
			c0.1,0,0.1,0,0.2-0.1c0.1-0.1,0.1-0.3,0-0.4C5.9,20.7,4.9,18.9,4.5,16.9z"/>
	</g>
</g>
</svg>
