<?xml version="1.0" encoding="utf-8"?>
<!-- Generator: Adobe Illustrator 18.1.1, SVG Export Plug-In . SVG Version: 6.00 Build 0)  -->
<!DOCTYPE svg PUBLIC "-//W3C//DTD SVG 1.1//EN" "http://www.w3.org/Graphics/SVG/1.1/DTD/svg11.dtd">
<svg version="1.1" id="Blog" xmlns="http://www.w3.org/2000/svg" xmlns:xlink="http://www.w3.org/1999/xlink" x="0px" y="0px"
	 viewBox="0 0 30 30" style="enable-background:new 0 0 30 30;" xml:space="preserve">
<path d="M28.4,22.9c0.6-1,0.9-2.2,0.9-3.3c0-2.6-1.7-5-4.4-6.2c0,0,0,0,0,0c0-5.6-5.5-10.2-12.2-10.2C6.1,3.2,0.6,7.7,0.6,13.4
	c0,1.7,0.5,3.4,1.5,5L1,22c-0.2,0.5,0,1.1,0.3,1.5c0.4,0.4,0.9,0.6,1.5,0.5l4.7-1.1C9.1,23.6,11,24,12.8,24c0.5,0,1.1,0,1.6-0.1
	c1.6,1.9,4.1,3,6.6,3c1.2,0,2.4-0.2,3.5-0.7l2.9,0.7c0.1,0,0.2,0,0.3,0c0.4,0,0.7-0.2,1-0.4c0.3-0.3,0.4-0.8,0.3-1.3L28.4,22.9z
	 M26.5,23.1l0.5,1.6l-2.2-0.5c-0.2,0-0.4,0-0.6,0.1c-0.9,0.4-2,0.7-3,0.7c-1.8,0-3.6-0.7-4.8-1.9c4-1.1,7.2-4.1,8-7.8
	c1.9,0.9,3.2,2.6,3.2,4.4c0,0.9-0.3,1.8-0.9,2.6C26.4,22.5,26.4,22.8,26.5,23.1z M4.1,18.5c0.1-0.3,0-0.6-0.1-0.8
	c-0.9-1.3-1.4-2.8-1.4-4.3c0-4.6,4.6-8.3,10.2-8.3c5.6,0,10.2,3.7,10.2,8.2c-0.6-0.1-1.3-0.2-1.9-0.2c-4.3,0-7.8,2.9-7.8,6.5
	c0,0.8,0.2,1.6,0.5,2.4c-0.3,0-0.7,0.1-1,0.1C11.1,22,9.5,21.7,8,21c-0.2-0.1-0.4-0.1-0.6-0.1l-4.3,1L4.1,18.5z M23.4,14.8
	c-0.7,3.5-3.8,6.4-7.8,7.4c-0.2-0.2-0.4-0.3-0.7-0.3c0,0,0,0,0,0c-0.4-0.7-0.6-1.5-0.6-2.3c0-3.1,3.1-5.6,6.8-5.6
	c0.7,0,1.3,0.1,1.9,0.2C23.1,14.5,23.2,14.7,23.4,14.8z"/>
</svg>
