<?xml version="1.0" encoding="utf-8"?>
<!-- Generator: Adobe Illustrator 18.1.1, SVG Export Plug-In . SVG Version: 6.00 Build 0)  -->
<!DOCTYPE svg PUBLIC "-//W3C//DTD SVG 1.1//EN" "http://www.w3.org/Graphics/SVG/1.1/DTD/svg11.dtd">
<svg version="1.1" id="help" xmlns="http://www.w3.org/2000/svg" xmlns:xlink="http://www.w3.org/1999/xlink" x="0px" y="0px"
	 viewBox="0 0 30 30" style="enable-background:new 0 0 30 30;" xml:space="preserve">
<path d="M15,3.1C7.2,3.1,0.9,8.4,0.9,14.8c0,2.1,0.7,4.2,2,6.1L1.3,26c-0.1,0.2,0,0.5,0.2,0.7c0.1,0.1,0.3,0.2,0.5,0.2
	c0.1,0,0.1,0,0.2,0l6.3-1.4c2,1,4.3,1.5,6.6,1.5c7.6,0,14.1-5.5,14.1-12.1C29.1,8.4,22.8,3.1,15,3.1z M16.4,21.2h-2.7v-2.6h2.7V21.2
	z M18.9,13.6c-0.2,0.3-0.7,0.7-1.3,1.2L17,15.3c-0.3,0.3-0.6,0.6-0.7,0.9c-0.1,0.2-0.1,0.6-0.1,1.1h-2.4c0-1,0.1-1.7,0.3-2.1
	c0.2-0.4,0.6-0.8,1.2-1.3l0.7-0.5c0.2-0.2,0.4-0.3,0.5-0.5c0.2-0.3,0.4-0.7,0.4-1.1c0-0.5-0.1-0.9-0.4-1.2c-0.3-0.4-0.7-0.6-1.5-0.6
	c-0.7,0-1.2,0.2-1.5,0.7c-0.3,0.5-0.4,0.9-0.4,1.4h-2.6c0.1-1.7,0.7-2.9,1.8-3.6c0.7-0.5,1.6-0.7,2.6-0.7c1.3,0,2.5,0.3,3.4,1
	c0.9,0.6,1.3,1.6,1.3,2.9C19.5,12.4,19.3,13.1,18.9,13.6z"/>
</svg>
