<?xml version="1.0" encoding="utf-8"?>
<!-- Generator: Adobe Illustrator 18.1.1, SVG Export Plug-In . SVG Version: 6.00 Build 0)  -->
<!DOCTYPE svg PUBLIC "-//W3C//DTD SVG 1.1//EN" "http://www.w3.org/Graphics/SVG/1.1/DTD/svg11.dtd">
<svg version="1.1" id="eye-off" xmlns="http://www.w3.org/2000/svg" xmlns:xlink="http://www.w3.org/1999/xlink" x="0px" y="0px"
	 viewBox="0 0 30 30" style="enable-background:new 0 0 30 30;" xml:space="preserve">
<g>
	<path d="M4.5,15c2.2-4.3,6.3-7,10.5-7c1.1,0,2.1,0.2,3.1,0.5l0.6-0.8C17.5,7.2,16.3,7,15,7c-4.7,0-9.2,3-11.6,7.8
		c-0.1,0.1-0.1,0.3,0,0.4c1.2,2.5,3,4.5,5.1,5.8l0.6-0.8C7.2,19,5.6,17.2,4.5,15z"/>
	<path d="M26.6,14.8c-1.2-2.5-3-4.5-5.1-5.8l-0.6,0.8c1.9,1.2,3.5,3,4.7,5.2c-1.2,2.4-2.9,4.3-5,5.5c-0.2,0.1-0.5,0.3-0.7,0.4
		c-0.5,0.2-1,0.5-1.5,0.6c-2.1,0.7-4.3,0.7-6.4,0l-0.6,0.8c0.1,0,0.1,0,0.2,0.1c1.2,0.4,2.4,0.6,3.6,0.6s2.4-0.2,3.6-0.6
		c0.6-0.2,1.1-0.4,1.7-0.7c0.3-0.1,0.5-0.3,0.8-0.4c2.3-1.4,4.2-3.5,5.5-6.1C26.6,15.1,26.6,14.9,26.6,14.8z"/>
	<path d="M15,20.5c3,0,5.5-2.5,5.5-5.5c0-1.2-0.4-2.4-1.1-3.3L13,20.1C13.6,20.3,14.3,20.5,15,20.5z"/>
	<path d="M9.5,15c0,1.2,0.4,2.4,1.1,3.3L17,9.9c-0.6-0.2-1.3-0.4-2-0.4C12,9.5,9.5,12,9.5,15z"/>
</g>
<g>
	<path d="M7,26c-0.1,0-0.2,0-0.3-0.1c-0.2-0.2-0.3-0.5-0.1-0.7l16-21.1c0.2-0.2,0.5-0.3,0.7-0.1c0.2,0.2,0.3,0.5,0.1,0.7l-16,21.1
		C7.3,26,7.2,26,7,26z"/>
</g>
</svg>
