<?xml version="1.0" encoding="utf-8"?>
<!-- Generator: Adobe Illustrator 18.1.1, SVG Export Plug-In . SVG Version: 6.00 Build 0)  -->
<!DOCTYPE svg PUBLIC "-//W3C//DTD SVG 1.1//EN" "http://www.w3.org/Graphics/SVG/1.1/DTD/svg11.dtd">
<svg version="1.1" id="media" xmlns="http://www.w3.org/2000/svg" xmlns:xlink="http://www.w3.org/1999/xlink" x="0px" y="0px"
	 viewBox="0 0 30 30" style="enable-background:new 0 0 30 30;" xml:space="preserve">
<g>
	<path d="M14.5,12.6l2.9,2.1c0.2,0.1,0.2,0.4,0,0.5l-2.9,2.1c-0.2,0.2-0.5,0-0.5-0.3v-4.2C14,12.6,14.3,12.5,14.5,12.6z"/>
</g>
<g>
	<rect x="2.5" y="4.3" width="1.2" height="21.3"/>
</g>
<g>
	<rect x="4.1" y="26.3" width="21.8" height="1.2"/>
</g>
<g>
	<rect x="26.3" y="4.3" width="1.2" height="21.3"/>
</g>
<g>
	<rect x="4.3" y="2.5" width="21.3" height="1.2"/>
</g>
<g>
	<path d="M28.5,4.6h-3.1V1.5h3.1V4.6z M26,4h1.9V2.1H26V4z"/>
</g>
<g>
	<path d="M4.6,4.6H1.5V1.5h3.1V4.6z M2.1,4H4V2.1H2.1V4z"/>
</g>
<g>
	<path d="M4.6,28.5H1.5v-3.1h3.1V28.5z M2.1,27.9H4V26H2.1V27.9z"/>
</g>
<g>
	<path d="M28.5,28.5h-3.1v-3.1h3.1V28.5z M26,27.9h1.9V26H26V27.9z"/>
</g>
<g>
	<path d="M15,9.5c3,0,5.5,2.4,5.5,5.5S18,20.5,15,20.5S9.5,18,9.5,15S12,9.5,15,9.5 M15,7.7c-4,0-7.3,3.3-7.3,7.3s3.3,7.3,7.3,7.3
		s7.3-3.3,7.3-7.3S19,7.7,15,7.7L15,7.7z"/>
</g>
</svg>
