<?xml version="1.0" encoding="utf-8"?>
<!-- Generator: Adobe Illustrator 18.1.1, SVG Export Plug-In . SVG Version: 6.00 Build 0)  -->
<!DOCTYPE svg PUBLIC "-//W3C//DTD SVG 1.1//EN" "http://www.w3.org/Graphics/SVG/1.1/DTD/svg11.dtd">
<svg version="1.1" id="CIS" xmlns="http://www.w3.org/2000/svg" xmlns:xlink="http://www.w3.org/1999/xlink" x="0px" y="0px"
	 viewBox="0 0 30 30" style="enable-background:new 0 0 30 30;" xml:space="preserve">
<g>
	<g>
		<circle cx="15" cy="17.9" r="2.5"/>
	</g>
	<g>
		<g>
			<path d="M15,27c-0.5,0-0.8-0.4-0.8-0.8v-7.7l-6.7-3.9c-0.4-0.2-0.5-0.7-0.3-1.2c0.2-0.4,0.7-0.5,1.2-0.3l7.1,4.1
				c0.3,0.2,0.4,0.4,0.4,0.7v8.2C15.8,26.6,15.5,27,15,27z"/>
		</g>
		<g>
			<path d="M15,27c-0.5,0-0.8-0.4-0.8-0.8v-8.2c0-0.3,0.2-0.6,0.4-0.7l7.1-4.1c0.4-0.2,0.9-0.1,1.2,0.3c0.2,0.4,0.1,0.9-0.3,1.2
				l-6.7,3.9v7.7C15.8,26.6,15.5,27,15,27z"/>
		</g>
	</g>
	<g>
		<path d="M15,18.5c-0.3,0-0.6-0.3-0.6-0.6V6.2c0-0.3,0.3-0.6,0.6-0.6s0.6,0.3,0.6,0.6v11.8C15.6,18.3,15.3,18.5,15,18.5z"/>
	</g>
	<g>
		<circle cx="15" cy="6.2" r="2.3"/>
	</g>
	<g>
		<path d="M15,10.2c-2.3,0-4.1-1.8-4.1-4.1s1.8-4.1,4.1-4.1s4.1,1.8,4.1,4.1S17.3,10.2,15,10.2z M15,2.6c-1.9,0-3.5,1.6-3.5,3.5
			s1.6,3.5,3.5,3.5c1.9,0,3.5-1.6,3.5-3.5S16.9,2.6,15,2.6z"/>
	</g>
	<g>
		<path d="M25.2,27.9c-2.3,0-4.1-1.8-4.1-4.1s1.8-4.1,4.1-4.1s4.1,1.8,4.1,4.1S27.5,27.9,25.2,27.9z M25.2,20.3
			c-1.9,0-3.5,1.6-3.5,3.5s1.6,3.5,3.5,3.5s3.5-1.6,3.5-3.5S27.2,20.3,25.2,20.3z"/>
	</g>
	<g>
		<path d="M4.8,27.9c-2.3,0-4.1-1.8-4.1-4.1s1.8-4.1,4.1-4.1s4.1,1.8,4.1,4.1S7,27.9,4.8,27.9z M4.8,20.3c-1.9,0-3.5,1.6-3.5,3.5
			s1.6,3.5,3.5,3.5s3.5-1.6,3.5-3.5S6.7,20.3,4.8,20.3z"/>
	</g>
	<g>
		<g>
			<path d="M4.8,24.4c-0.2,0-0.4-0.1-0.5-0.3c-0.2-0.3-0.1-0.6,0.2-0.8l10.2-5.9c0.3-0.2,0.6-0.1,0.8,0.2c0.2,0.3,0.1,0.6-0.2,0.8
				L5.1,24.3C5,24.4,4.9,24.4,4.8,24.4z"/>
		</g>
		<g>
			<circle cx="4.8" cy="23.8" r="2.3"/>
		</g>
	</g>
	<g>
		<g>
			<path d="M25.2,24.4c-0.1,0-0.2,0-0.3-0.1l-10.2-5.9c-0.3-0.2-0.4-0.5-0.2-0.8c0.2-0.3,0.5-0.4,0.8-0.2l10.2,5.9
				c0.3,0.2,0.4,0.5,0.2,0.8C25.6,24.3,25.4,24.4,25.2,24.4z"/>
		</g>
		<g>
			<circle cx="25.2" cy="23.8" r="2.3"/>
		</g>
	</g>
</g>
</svg>
