<?xml version="1.0" encoding="utf-8"?>
<!-- Generator: Adobe Illustrator 18.1.1, SVG Export Plug-In . SVG Version: 6.00 Build 0)  -->
<!DOCTYPE svg PUBLIC "-//W3C//DTD SVG 1.1//EN" "http://www.w3.org/Graphics/SVG/1.1/DTD/svg11.dtd">
<svg version="1.1" id="Quiz" xmlns="http://www.w3.org/2000/svg" xmlns:xlink="http://www.w3.org/1999/xlink" x="0px" y="0px"
	 viewBox="0 0 30 30" style="enable-background:new 0 0 30 30;" xml:space="preserve">
<g id="choice3">
	<path d="M25.8,22.7v4.4h-8.9l-2.2-2.2l2.2-2.2H25.8 M26.1,20.7h-9.4c-0.4,0-0.9,0.2-1.2,0.5L13,23.8c-0.6,0.6-0.6,1.7,0,2.3
		l2.5,2.6c0.3,0.3,0.7,0.5,1.2,0.5h9.4c0.9,0,1.7-0.7,1.7-1.7v-5.1C27.8,21.5,27,20.7,26.1,20.7L26.1,20.7z"/>
</g>
<g id="choice2">
	<path d="M25.8,12.8v4.4h-8.9L14.7,15l2.2-2.2H25.8 M26.1,10.8h-9.4c-0.4,0-0.9,0.2-1.2,0.5L13,13.8c-0.6,0.6-0.6,1.7,0,2.3l2.5,2.6
		c0.3,0.3,0.7,0.5,1.2,0.5h9.4c0.9,0,1.7-0.7,1.7-1.7v-5.1C27.8,11.5,27,10.8,26.1,10.8L26.1,10.8z"/>
</g>
<g id="choice1">
	<path d="M25.8,2.8v4.4h-8.9l-2.2-2.2l2.2-2.2H25.8 M26.1,0.8h-9.4c-0.4,0-0.9,0.2-1.2,0.5L13,3.9c-0.6,0.6-0.6,1.7,0,2.3l2.5,2.6
		c0.3,0.3,0.7,0.5,1.2,0.5h9.4c0.9,0,1.7-0.7,1.7-1.7V2.5C27.8,1.6,27,0.8,26.1,0.8L26.1,0.8z"/>
</g>
<g>
	<path d="M5.5,28.9c-0.4,0-0.8-0.1-1.1-0.2c-0.3-0.1-0.7-0.3-0.9-0.5c-0.3-0.2-0.4-0.5-0.6-0.8c-0.1-0.3-0.2-0.7-0.2-1.1
		c0-0.5,0.1-1.1,0.3-1.5c0.2-0.5,0.5-0.9,0.9-1.3c0.4-0.4,0.8-0.7,1.3-0.9s1.1-0.3,1.6-0.3c0.3,0,0.7,0,1.1,0.1
		c0.4,0.1,0.6,0.2,0.8,0.3L9,22.3h0.4l-0.5,2.3H8.5c-0.1-0.7-0.2-1.2-0.5-1.5c-0.3-0.4-0.7-0.5-1.2-0.5c-0.3,0-0.7,0.1-1,0.3
		c-0.3,0.2-0.6,0.5-0.8,1c-0.2,0.4-0.3,0.8-0.4,1.2c-0.1,0.5-0.1,0.9-0.1,1.3c0,0.6,0.1,1.1,0.4,1.4s0.7,0.5,1.2,0.5
		c0.4,0,0.8-0.1,1.2-0.4c0.4-0.2,0.7-0.6,1.1-1l0.3,0.2c-0.1,0.2-0.3,0.5-0.5,0.7c-0.2,0.2-0.4,0.4-0.7,0.6
		c-0.3,0.2-0.6,0.3-0.8,0.4C6.3,28.8,6,28.9,5.5,28.9z"/>
</g>
<g>
	<path d="M6.9,12.4c0.8,0,1.3,0.1,1.7,0.3c0.4,0.2,0.5,0.5,0.5,0.9c0,0.3-0.1,0.5-0.2,0.7c-0.1,0.2-0.3,0.4-0.5,0.5
		c-0.2,0.1-0.4,0.3-0.7,0.3c-0.2,0.1-0.5,0.2-0.8,0.2l0,0.1c0.2,0,0.4,0.1,0.6,0.1c0.2,0.1,0.4,0.2,0.5,0.3c0.2,0.1,0.3,0.2,0.4,0.4
		c0.1,0.2,0.1,0.4,0.1,0.6c0,0.7-0.3,1.2-0.8,1.5c-0.5,0.3-1.4,0.5-2.4,0.5H2.1l0.1-0.3c0.1,0,0.2,0,0.3,0s0.3,0,0.3-0.1
		c0.1,0,0.2-0.1,0.3-0.2c0.1-0.1,0.1-0.2,0.1-0.3l1-4.4c0-0.1,0-0.1,0-0.2c0,0,0-0.1,0-0.1c0-0.1-0.1-0.2-0.2-0.3
		c-0.1-0.1-0.3-0.1-0.6-0.2l0.1-0.3H6.9z M7,16.7c0-0.3-0.1-0.6-0.3-0.8s-0.5-0.3-1-0.3c-0.1,0-0.1,0-0.2,0c-0.1,0-0.1,0-0.2,0
		L4.8,18c0,0.1,0.1,0.2,0.2,0.3c0.2,0.1,0.3,0.1,0.5,0.1c0.4,0,0.7-0.2,1-0.5C6.9,17.6,7,17.2,7,16.7z M7.4,13.6
		c0-0.3-0.1-0.5-0.3-0.6c-0.2-0.1-0.4-0.2-0.7-0.2c-0.1,0-0.1,0-0.2,0c-0.1,0-0.1,0-0.2,0l-0.6,2.4h0.3c0.5,0,0.9-0.1,1.2-0.4
		S7.4,14.1,7.4,13.6z"/>
</g>
<g>
	<path d="M5.6,8.8l0.1-0.3c0.3,0,0.5-0.1,0.7-0.1c0.2-0.1,0.3-0.1,0.3-0.2c0-0.1,0-0.1,0-0.1c0,0,0-0.1,0-0.1L6.4,6.7H4.2
		C4.1,6.8,4,6.9,3.9,7.1S3.7,7.5,3.7,7.6C3.5,7.8,3.5,7.9,3.5,8s0,0.1,0,0.1c0,0.1,0.1,0.2,0.2,0.2C3.8,8.4,4,8.5,4.3,8.5L4.2,8.8
		H1.5l0.1-0.3c0.1,0,0.2,0,0.3,0c0.1,0,0.2-0.1,0.3-0.1c0.1-0.1,0.2-0.2,0.4-0.3C2.7,8,2.8,7.9,2.9,7.7c0.6-0.9,1.2-1.8,1.7-2.6
		c0.5-0.8,1.1-1.7,1.8-2.7h0.9c0.2,1.3,0.4,2.4,0.6,3.3s0.3,1.6,0.4,2.2c0,0.1,0,0.2,0.1,0.2s0.1,0.1,0.2,0.2c0.1,0,0.2,0.1,0.3,0.1
		s0.2,0,0.3,0L9,8.8H5.6z M6.3,6.3L5.9,4L4.5,6.3H6.3z"/>
</g>
</svg>
