<?xml version="1.0" encoding="utf-8"?>
<!-- Generator: Adobe Illustrator 18.1.1, SVG Export Plug-In . SVG Version: 6.00 Build 0)  -->
<!DOCTYPE svg PUBLIC "-//W3C//DTD SVG 1.1//EN" "http://www.w3.org/Graphics/SVG/1.1/DTD/svg11.dtd">
<svg version="1.1" id="user" xmlns="http://www.w3.org/2000/svg" xmlns:xlink="http://www.w3.org/1999/xlink" x="0px" y="0px"
	 viewBox="0 0 30 30" style="enable-background:new 0 0 30 30;" xml:space="preserve">
<path d="M29.4,24.4l-1.4-1.4c-0.1-0.1-0.2-0.1-0.3-0.2c-4.3-0.9-8.9-2.5-8.9-3.6l0-2.4c0,0,0.1-0.1,0.1-0.1c0.2-0.2,0.3-0.3,0.5-0.5
	c0.1-0.1,0.2-0.2,0.3-0.3c0.1-0.1,0.2-0.2,0.2-0.3c0.2-0.2,0.4-0.5,0.6-0.8c0-0.1,0.1-0.1,0.1-0.2c0.1-0.2,0.2-0.3,0.3-0.5
	c0-0.1,0.1-0.2,0.1-0.2c0.1-0.3,0.3-0.6,0.4-0.9c0.1-0.1,0.1-0.3,0.2-0.4c0.1-0.1,0.1-0.3,0.1-0.4c0.1-0.2,0.1-0.5,0.2-0.7
	c0-0.1,0-0.2,0.1-0.3c0.1-0.3,0.1-0.5,0.1-0.8c0-0.1,0-0.2,0-0.3c0-0.3,0.1-0.7,0.1-1c0-4.4-3-7.5-7.3-7.5c-4.3,0-7.3,3.1-7.3,7.5
	c0,0.3,0,0.7,0.1,1c0,0.1,0,0.2,0,0.3c0,0.3,0.1,0.5,0.1,0.8c0,0.1,0,0.2,0.1,0.3c0.1,0.3,0.1,0.5,0.2,0.8c0,0.1,0.1,0.3,0.1,0.4
	c0.1,0.1,0.1,0.3,0.2,0.4c0.1,0.3,0.2,0.6,0.4,0.8c0,0.1,0.1,0.2,0.1,0.3c0.1,0.2,0.2,0.3,0.3,0.5c0,0.1,0.1,0.2,0.2,0.2
	c0.2,0.3,0.3,0.5,0.5,0.7c0.1,0.1,0.2,0.2,0.3,0.3c0.1,0.1,0.2,0.2,0.3,0.3c0.2,0.2,0.3,0.3,0.5,0.5c0,0,0.1,0.1,0.1,0.1v2.4
	c0,1.1-4.6,2.7-8.9,3.6c-0.1,0-0.2,0.1-0.3,0.2l-1.4,1.4c-0.1,0.1-0.2,0.3-0.2,0.5c0,0.2,0.2,0.3,0.3,0.4c4.6,2.1,9.4,3.2,14.1,3.2
	c4.7,0,9.6-1.1,14.4-3.2c0.2-0.1,0.3-0.2,0.3-0.4C29.6,24.7,29.6,24.5,29.4,24.4z M21.1,9.1c0,0.3,0,0.6-0.1,0.9c0,0,0,0.1,0,0.1
	c-0.3,2.4-1.5,4.7-3.1,6c0,0,0,0,0,0c-0.5,0.4-1,0.7-1.6,0.9c-0.9,0.3-1.8,0.3-2.7,0c-0.6-0.2-1.1-0.5-1.6-0.9c0,0,0,0,0,0
	c-1.7-1.3-2.9-3.6-3.1-6c0,0,0-0.1,0-0.1c0-0.3-0.1-0.6-0.1-1c0-3.7,2.5-6.4,6.1-6.4C18.6,2.7,21.1,5.3,21.1,9.1z M13.3,18.1
	c0.6,0.2,1.1,0.3,1.7,0.3c0.6,0,1.1-0.1,1.7-0.3c0.4-0.1,0.7-0.3,1-0.5l0,1.5c0,0.3,0.1,0.7,0.4,1C16.9,21,16,21.7,15,22.7
	c-1-1-1.9-1.7-3.1-2.5c0.2-0.3,0.4-0.6,0.4-1v-1.5C12.6,17.8,13,18,13.3,18.1z M14.9,27.3c-4.3,0-8.6-0.9-12.9-2.7l0.7-0.7
	c2-0.4,6.9-1.6,8.9-3.3c1.2,0.9,2.2,1.6,3.3,2.7c0.1,0.1,0.1,0.1,0.2,0.1c0.1,0,0.2,0,0.2-0.1c1.1-1.1,2-1.8,3.3-2.7
	c1.9,1.7,6.9,2.9,8.8,3.3l0.6,0.7C23.6,26.4,19.2,27.3,14.9,27.3z"/>
</svg>
