<?xml version="1.0" encoding="utf-8"?>
<!-- Generator: Adobe Illustrator 18.1.1, SVG Export Plug-In . SVG Version: 6.00 Build 0)  -->
<!DOCTYPE svg PUBLIC "-//W3C//DTD SVG 1.1//EN" "http://www.w3.org/Graphics/SVG/1.1/DTD/svg11.dtd">
<svg version="1.1" id="view" xmlns="http://www.w3.org/2000/svg" xmlns:xlink="http://www.w3.org/1999/xlink" x="0px" y="0px"
	 viewBox="0 0 30 30" style="enable-background:new 0 0 30 30;" xml:space="preserve">
<g>
	<path d="M26.6,14.8C24.2,10,19.7,7,15,7s-9.2,3-11.6,7.8c-0.1,0.1-0.1,0.3,0,0.4C4.7,17.9,6.7,20,9,21.3c0.3,0.2,0.5,0.3,0.8,0.4
		c0.5,0.3,1.1,0.5,1.7,0.7c1.2,0.4,2.4,0.6,3.6,0.6s2.4-0.2,3.6-0.6c0.6-0.2,1.1-0.4,1.7-0.7c0.3-0.1,0.5-0.3,0.8-0.4
		c2.3-1.4,4.2-3.5,5.5-6.1C26.6,15.1,26.6,14.9,26.6,14.8z M20.5,20.5c-0.2,0.1-0.5,0.3-0.7,0.4c-0.5,0.2-1,0.5-1.5,0.6
		c-2.1,0.7-4.4,0.7-6.5,0c-0.5-0.2-1-0.4-1.5-0.6c-0.2-0.1-0.5-0.3-0.7-0.4c-2.1-1.2-3.8-3.1-5-5.5c2.2-4.3,6.3-7,10.5-7
		s8.3,2.7,10.5,7C24.3,17.4,22.6,19.3,20.5,20.5z"/>
	<circle cx="15" cy="15" r="5.5"/>
</g>
</svg>
