<?xml version="1.0" standalone="no"?>
<!DOCTYPE svg PUBLIC "-//W3C//DTD SVG 1.1//EN" "http://www.w3.org/Graphics/SVG/1.1/DTD/svg11.dtd">
<svg xmlns="http://www.w3.org/2000/svg">
<metadata>Generated by Fontastic.me</metadata>
<defs>
<font id="elmsln" horiz-adv-x="512">
<font-face font-family="elmsln" units-per-em="512" ascent="480" descent="-32"/>
<missing-glyph horiz-adv-x="512" />

<glyph glyph-name="about" unicode="&#97;" d="M246 406c17 0 32-2 44-7 14-3 24-10 31-17l89 21 3-5-41-176c-2-5-3-14-5-22-2-9-3-16-3-21 0-10 1-19 6-22 5-3 14-7 26-7 5 0 12 2 19 4 7 1 12 3 15 5l-3-24c-19-7-34-14-45-17-12-4-24-5-39-5-19 0-36 3-46 12-12 8-21 17-24 29l-2 0c-6-6-13-11-18-16-7-5-14-10-23-13-8-4-17-7-25-11-9-3-19-3-29-3-33 0-58 10-75 29-17 19-26 46-26 80 0 26 5 51 14 74 8 22 22 42 37 59 16 17 34 31 55 41 19 7 41 12 65 12m-28-254c9 0 18 3 26 8 9 6 15 12 22 19l36 156c0 3 0 8-2 15-1 5-3 10-6 15-4 5-9 9-14 12-5 4-12 4-21 4-12 0-23-6-34-14-10-9-20-21-27-36-9-15-14-32-19-51-5-21-7-39-7-60 0-8 0-19 2-25 2-9 3-16 7-21 3-5 8-10 14-14 8-6 15-8 23-8m215 8l0 0m-187 280c-29 0-57-7-82-18-24-11-46-28-65-48-19-21-32-45-44-70-11-28-17-57-17-87 0-43 11-77 34-103 24-27 58-41 100-41 14 0 28 2 40 6 10 3 20 6 30 11 7 4 14 9 21 12 3-3 8-6 13-10 18-12 40-17 65-17 19 0 36 4 50 9 12 3 27 10 46 17 10 3 19 13 20 24l6 23c1 4 1 7 1 11 0 18-15 34-34 34 0 0-2 0-2 0-5 0-8-2-12-4 0 0-3-1-12-3-3-2-6-2-8-2 0 2 0 5 2 9 1 8 3 15 5 20l42 176c4 10 0 22-6 31l-4 5c-7 7-15 12-25 12-2 0-6 0-7 0l-74-15c-8 5-18 8-29 11-15 6-34 7-54 7z m-28-254c-3 0-5 0-5 0 0 0 0 0 0 2 0 1-1 3-3 8-2 5-2 12-2 21 0 17 2 36 5 53 4 17 9 30 16 42 7 12 13 21 20 26 5 5 10 5 12 5 4 0 5 0 7 0 0 0 0 0 0-2 0-1 0-3 0-5l-32-140c-4-3-7-5-11-8-1-2-5-2-7-2z"/>
<glyph glyph-name="access" unicode="&#98;" d="M256 502c-133 0-242-108-242-241 0-136 111-251 242-251 131 0 242 115 242 251 0 133-109 241-242 241z m0-471c-119 0-222 106-222 230 0 121 99 222 222 222 121 0 222-99 222-222 0-126-103-230-222-230z m26 336c0-14-12-26-26-26-14 0-26 12-26 26 0 14 12 26 26 26 14 0 26-12 26-26z m-26 87c-108 0-193-87-193-195 0-105 85-201 193-201 108 0 193 96 193 201 0 108-85 195-193 195z m113-195c-2-6-9-12-16-12-1 0-1 0-3 0l-80 18 0-45 54-107c4-7 0-17-7-21-1-2-5-2-6-2-6 0-11 4-14 9l-41 84-43-84c-3-5-8-9-13-9-2 0-5 0-7 2-7 4-10 14-7 21l55 107 0 45-81-18c-1 0-1 0-3 0-7 0-14 6-15 12-2 9 3 17 12 19l85 17 0 19c-24 7-41 27-41 53 0 31 26 56 56 56 31 0 57-25 57-56 0-26-17-48-41-53l0-19 85-17c10-2 15-10 14-19z"/>
<glyph glyph-name="network" unicode="&#100;" d="M386 304l24-14c6-3 15-3 22 0l36 21c6 3 10 10 10 18l0 41c0 9-4 16-10 19l-38 21c-7 3-15 3-22 0l-36-21c-7-3-10-10-10-19l0-27c0-8-4-15-10-19l-52-30c-6-4-15-4-22 0-7 3-10 10-10 18l0 63c0 9 3 16 10 19l24 14c7 3 10 10 10 19l0 41c0 8-3 15-10 18l-36 21c-7 3-15 3-22 0l-36-21c-7-3-10-10-10-18l0-41c0-9 3-16 10-19l24-14c7-3 10-10 10-19l0-63c0-8-3-15-10-18-7-4-15-4-22 0l-51 30c-5 4-11 11-11 19l0 27c0 9-3 16-10 19l-36 21c-6 3-15 3-20 0l-36-21c-7-5-12-12-12-19l0-41c0-8 4-15 10-18l38-21c7-3 15-3 22 0l24 14c7 3 15 3 22 0l51-31c7-3 11-10 11-19 0-8-4-15-11-18l-51-31c-7-4-15-4-22 0l-26 15c-6 4-15 4-22 0l-36-20c-6-4-10-11-10-19l0-41c0-9 4-15 10-19l36-20c7-4 16-4 22 0l36 20c7 4 10 10 10 19l0 27c0 9 4 16 11 19l51 29c7 3 15 3 22 0 7-3 10-10 10-19l0-59c0-9-3-16-10-19l-24-14c-7-3-10-10-10-19l0-41c0-8 3-15 10-18l36-21c7-3 15-3 22 0l36 21c7 3 10 10 10 18l0 41c0 9-3 16-10 19l-24 14c-7 3-10 10-10 19l0 59c0 9 3 16 10 19 7 3 16 3 22 0l52-29c6-3 10-10 10-19l0-27c0-9 3-15 10-19l36-20c7-4 15-4 22 0l36 20c7 4 10 10 10 19l0 41c0 8-3 15-10 19l-36 20c-7 4-15 4-22 0l-24-13c-7-4-15-4-22 0l-51 29c-7 3-11 10-11 18 0 9 4 16 11 19l51 29c8 5 17 5 24 2z m-260 32c0-3-1-8-5-10l-7-3-15-9c-3-2-9-2-12 0l-22 12c-4 2-5 5-5 10l0 26c0 3 1 8 5 10l22 12c3 2 9 2 12 0l20-12c4-2 6-5 6-10l0-26z m328-164l0-25c0-4-2-9-5-10l-22-12c-4-2-9-2-12 0l-22 12c-4 1-6 5-6 10l0 25c0 4 2 9 6 11l6 3 16 9c3 1 8 1 12 0l22-12c2-2 5-6 5-11z m-61 200l22 12c3 2 8 2 12 0l22-12c3-2 5-5 5-10l0-26c0-3-2-8-5-10l-22-12c-4-2-9-2-12 0l-17 10-5 2c-4 2-6 5-6 10l0 26c-1 3 2 8 6 10z m-164 97l22 12c3 2 8 2 12 0l22-12c2-1 5-5 5-10l0-26c0-3-2-8-5-10l-15-8-7-4c-4-1-9-1-12 0l-7 4-15 8c-4 4-7 7-7 10l0 26c0 5 3 9 7 10z m-103-303l0-19c0-4-1-9-5-10l-22-12c-3-2-9-2-12 0l-22 12c-4 1-5 5-5 10l0 25c0 4 1 9 5 11l22 12c3 1 9 1 12 0l15-9 5-3c4-2 6-6 6-11l0-6z m157-123l-22-12c-3-2-8-2-12 0l-22 12c-3 1-5 5-5 10l0 26c0 3 2 8 5 10l15 8 7 4c4 1 9 1 12 0l7-4 15-8c4-2 5-5 5-10l0-26c2-5-1-9-5-10z"/>
<glyph glyph-name="assignment" unicode="&#103;" d="M220 343l-19 17-18-19 37-37 19 20 56 55-20 20z m58-80l-119 0c-5 0-9 3-9 8l0 122c0 5 4 8 9 8l75 0c5 0 8-3 8-8 0-6-3-9-8-9l-67 0 0-102 103 0 0 54c0 5 3 9 8 9 5 0 9-4 9-9l0-63c0-5-4-10-9-10z m0-173l-119 0c-5 0-9 4-9 9l0 119c0 6 4 9 9 9l119 0c5 0 9-3 9-9l0-119c0-5-4-9-9-9z m-111 18l103 0 0 102-103 0z m248 291l-69 77c-6 7-15 12-25 12l-195 0c-18 0-34-15-34-34l0-391c0-19 16-34 34-34l263 0c19 0 34 15 34 34l0 314c0 9-3 16-8 22z m-26-336l-263 0 0 391 193 0 0-77 68 0 0-314z"/>
<glyph glyph-name="assignments" unicode="&#104;" d="M201 360l-15 15-17-17 32-32 17 17 50 50-17 17z m52 0c-4 0-7-3-7-7l0-48-92 0 0 93 59 0c4 0 7 3 7 6 0 4-3 6-7 6l-65 0c-3 0-6-4-6-7l0-106c0-3 3-7 6-7l106 0c4 0 7 4 7 7l0 56c-2 4-3 7-8 7z m0-102l-105 0c-3 0-6-4-6-7l0-106c0-3 3-7 6-7l106 0c4 0 7 4 7 7l0 106c-2 3-3 7-8 7z m-6-106l-93 0 0 92 92 0 0-92z m188 264l-85 84c-5 5-12 7-19 7l-235 0c-14 0-26-12-26-26l0-450c0-14 12-26 26-26l322 0c14 0 26 12 26 26l0 367c-2 6-4 13-9 18z m-188-385l-93 0 0 56 92 0 0-56z m169 0l-157 0 0 63c0 3-3 7-6 7l-105 0c-3 0-6-4-6-7l0-63-46 0 0 450 237 0 0-83 85 0 0-367z"/>
<glyph glyph-name="beaker" unicode="&#105;" d="M304 340c0 0-2 0-2 0l-19 5c-7 1-15 1-22 0l-7-2c-10-3-20-3-29 0l-18 5c-4 2-6 5-6 9 2 3 6 5 9 5l19-5c7-2 15-2 22 0l7 1c10 4 20 4 30 0l19-5c4-1 5-5 5-8-3-4-5-5-8-5z m89-299l-274 0c-15 0-30 8-39 20-8 14-10 31-3 45l109 249c2 3 2 5 2 9l0 61c0 12-11 20-21 20l-13 0c-7 0-14 6-14 14 0 9 5 12 14 12l12 0c25 0 47-20 47-48l0-61c0-7-1-14-3-19l-111-247c-3-7-2-14 2-21 3-7 10-10 17-10l275 0c6 0 13 3 17 10 3 7 5 14 1 21l-107 249c-4 7-4 12-4 19l0 61c0 26 21 48 48 48l10 0c7 0 14-5 14-14 0-8-5-14-14-14l-12 0c-11 0-20-10-20-20l0-61c0-4 0-6 2-9l109-249c7-16 5-31-4-45-10-13-23-20-40-20z m-161 96c-17 0-31 13-31 30 0 17 14 31 31 31 17 0 31-14 31-31 0-17-14-30-31-30z m0 47c-10 0-17-8-17-17 0-8 9-17 17-17 10 0 17 9 17 17 0 9-7 17-17 17z m58 26c-10 0-20 8-20 20 0 11 8 21 20 21 10 0 21-9 21-21 0-10-9-20-21-20z m0 27c-3 0-7-3-7-7 0-3 4-6 7-6 4 0 7 3 7 6 2 4-2 7-7 7z m-32 29c-11 0-19 9-19 19 0 10 8 19 19 19 10 0 18-9 18-19 0-10-8-19-18-19z m0 24c-4 0-5-2-5-5 0-3 1-5 5-5 3 0 5 2 5 5 0 3-2 5-5 5z"/>
<glyph glyph-name="blog" unicode="&#106;" d="M469 328c0 3-1 7-3 10l-46 46c-5 5-14 5-19 0l-27-27-157-157c-2-2-4-5-4-9l-5-51c0-3 2-9 4-10 3-4 6-4 10-4 0 0 2 0 2 0l51 5c3 0 7 2 8 4l157 157 28 27c0 2 1 5 1 9z m-32 0l-9-9-27 27 9 9z m-172-173l-29-1 3 29 145 145 27-28z m51-82l-246 0 0 366 181 0 0-72 65 0 0-48 27 27 0 21c0 7-2 14-7 19l-65 71c-5 6-12 9-20 9l-181 0c-15 0-27-12-27-27l0-366c0-15 12-27 27-27l246 0c15 0 27 12 27 27l0 104-27-27z m-214 219l174 0c7 0 14 7 14 13 0 7-7 14-14 14l-174 0c-6 0-13-7-13-14 0-6 7-13 13-13z m0-109c-6 0-13-7-13-14 0-7 7-14 13-14l91 0 3 28z m0 68c-6 0-13-7-13-14 0-7 7-13 13-13l118 0 27 27z m307 104l27-26-9-9-26 27z"/>
<glyph glyph-name="bookmark" unicode="&#107;" d="M355 20l-85 70c-7 6-17 6-24 0l-86-70c-13-10-32-1-32 16l0 440c0 10 9 21 20 21l222 0c11 0 21-9 21-21l0-442c-5-15-24-24-36-14z"/>
<glyph glyph-name="bookmark-outline" unicode="&#108;" d="M364 10c-7 0-14 2-19 7l-84 68c-3 4-8 4-12 0l-83-68c-12-8-29-8-40 2-5 5-8 13-8 22l0 432c0 17 13 29 29 29l217 0c17 0 29-14 29-29l0-432c1-17-12-31-29-31z m-108 98c7 0 14-2 19-7l83-69c6-5 14-1 14 7l0 434c0 5-3 8-8 8l-217 0c-5 0-9-3-9-8l0-432c0-3 2-5 4-7 3-3 8-3 12 0l83 68c5 4 12 6 19 6z"/>
<glyph glyph-name="calendar" unicode="&#109;" d="M473 495l-434 0c-8 0-15-7-15-15l0-41c0-9 7-16 15-16l434 0c8 0 15 7 15 16l0 41c0 8-7 15-15 15z m0-101l-434 0c-8 0-15-7-15-15l0-347c0-8 7-15 15-15l434 0c8 0 15 7 15 15l0 347c0 8-7 15-15 15z m-94-181l-72 0 0 72 72 0z m15 72l63 0 0-72-63 0z m-102-72l-72 0 0 72 72 0z m-87 0l-72 0 0 72 72 0z m-87 72l0-72-63 0 0 72z m-63-87l63 0 0-72-63 0z m78 0l72 0 0-72-72 0z m87 0l72 0 0-72-72 0z m87 0l72 0 0-72-72 0z m87-72l0 72 63 0 0-72z m63 174l-63 0 0 64 63 0z m-78 0l-72 0 0 64 72 0z m-87 0l-72 0 0 64 72 0z m-87 0l-72 0 0 64 72 0z m-150-189l63 0 0-63-63 0z m78 0l72 0 0-63-72 0z m87 0l72 0 0-63-72 0z m87 0l72 0 0-63-72 0z"/>
<glyph glyph-name="cis" unicode="&#113;" d="M299 207c0-24-19-43-43-43-24 0-43 19-43 43 0 23 19 42 43 42 24 0 43-19 43-42z m-43-156c-9 0-14 7-14 14l0 131-114 67c-7 3-9 12-5 20 3 7 12 9 20 5l122-70c5-3 6-6 6-11l0-140c-1-9-6-16-15-16z m0 0c-9 0-14 7-14 14l0 140c0 5 4 10 7 12l121 70c7 3 16 1 21-5 3-7 2-16-5-21l-115-66 0-132c-1-5-6-12-15-12z m0 145c-5 0-10 5-10 11l0 199c0 5 5 10 10 10 5 0 10-5 10-10l0-201c0-5-5-9-10-9z m39 210c0-21-17-39-39-39-22 0-39 18-39 39 0 22 17 39 39 39 22 0 39-17 39-39z m-39-68c-39 0-70 31-70 70 0 39 31 70 70 70 39 0 70-31 70-70 0-39-31-70-70-70z m0 130c-32 0-60-28-60-60 0-33 28-60 60-60 32 0 60 27 60 60 0 32-28 60-60 60z m174-432c-39 0-70 31-70 70 0 39 31 70 70 70 39 0 70-31 70-70 0-39-31-70-70-70z m0 130c-32 0-60-28-60-60 0-33 28-60 60-60 33 0 60 27 60 60 0 32-26 60-60 60z m-348-130c-39 0-70 31-70 70 0 39 31 70 70 70 39 0 70-31 70-70 0-39-33-70-70-70z m0 130c-33 0-60-28-60-60 0-33 27-60 60-60 32 0 60 27 60 60 0 32-28 60-60 60z m0-70c-3 0-7 1-9 5-3 5-1 10 4 13l174 101c5 3 10 2 14-3 3-5 1-11-4-14l-174-101c-2-1-3-1-5-1z m39 10c0-22-17-39-39-39-22 0-39 17-39 39 0 21 17 39 39 39 22 0 39-18 39-39z m309-10c-2 0-3 0-5 1l-174 101c-5 3-7 9-4 14 4 5 9 6 14 3l174-101c5-3 7-8 4-13-2-4-6-5-9-5z m39 10c0-22-17-39-39-39-22 0-39 17-39 39 0 21 17 39 39 39 22 0 39-18 39-39z"/>
<glyph glyph-name="cle" unicode="&#114;" d="M198 488c0 0 2 0 2 2 0 0-2 0-2-2z m-3-2c0 0 1 2 1 2 0 0 0-2-1-2z m12 6c3 0 5-2 6-4-1 2-5 2-6 4z m131-318l55 7-4 32-12-1-37 220c-2 5-7 8-12 8l-94-5-19 48c0 0 0 2-2 2 0 0 0 0 0 1-1 2-3 4-6 4 0 0 0 0-2 0-2 0-2 0-4 0 0 0-1 0-1 0 0 0-2 0-2-2 0 0 0 0-2-2 0 0-1-1-1-1 0 0 0-2 0-2 0 0 0-2 0-2 0 0 0 0 0-1l-7-47-58-3c-4 0-5-2-9-3-3-2-3-7-2-9l29-232-13-2 3-32 21 2-5-62c0-7 3-12 10-12 0 0 0 0 2 0 5 0 10 4 10 10l7 67 12 2 0-125c0-7 5-10 10-10 5 0 10 5 10 10l0 128 101 12 48-121c1-5 8-9 13-7 5 2 9 9 7 14z m-169 14l-27 222 177 10 36-212z m70 49c-2 0-2 0 0 0-3 0-5 2-5 5l-7 31-24-2c-8 0-14 5-15 12l-17 81c-4 5-2 8 0 11 1 4 5 6 8 6l108 5c8 0 13-5 15-12l17-80c2-4 0-9-2-11-1-3-5-5-8-5l-29-2-38-37c-1-2-1-2-3-2z m-9 46c2 0 6-1 6-5l5-25 32 32c2 2 2 2 3 2l31 1c0 0 2 0 2 0 0 0 0 2 0 2l-17 80c0 2-2 5-4 5l-107-5c0 0-2 0-2 0 0 0 0-1 0-1l17-81c0-1 4-3 5-3z m-1 50c0-4-3-7-7-7-4 0-7 3-7 7 0 4 3 7 7 7 4 0 7-3 7-7z m24 2c0-4-3-7-7-7-4 0-7 3-7 7 0 3 3 6 7 6 4 0 7-3 7-6z m22 0c0-4-3-7-7-7-4 0-7 3-7 7 0 3 3 6 7 6 4 0 7-3 7-6z"/>
<glyph glyph-name="close" unicode="&#115;" d="M280 256l106 106c7 7 7 17 0 24-7 7-17 7-24 0l-106-106-108 107c-6 7-17 7-23 0-7-6-7-17 0-23l105-106-105-106c-7-7-7-17 0-24 3-3 8-5 12-5 3 0 8 2 11 5l106 106 106-106c4-3 9-5 12-5 3 0 9 2 12 5 7 7 7 17 0 24z"/>
<glyph glyph-name="collab" unicode="&#116;" d="M285 56c0 0-2 0-2 0-41 9-61 19-61 33l0 15c0 4 2 5 3 7 11 7 16 22 16 34 0 21-14 29-29 29-16 0-29-8-29-29 0-14 6-27 15-34 2-2 3-5 3-7l0-15c0-14-20-26-61-33-5-1-10 2-12 7-2 5 2 10 7 12 20 4 41 12 46 15l0 9c-12 12-19 29-19 48 0 29 21 49 48 49 27 0 48-20 48-49 0-17-7-36-19-48l0-9c5-5 26-11 46-15 5-2 9-7 7-12 2-3-2-7-7-7z m22 174c-5 0-8 4-10 9-2 5 2 10 7 12 20 3 41 12 46 15l0 9c-12 12-19 29-19 48 0 29 21 49 48 49 27 0 48-20 48-49 0-18-7-36-19-48l0-9c5-5 25-12 46-15 5-2 9-7 7-12-2-5-7-9-12-7-41 9-62 19-62 33l0 15c0 3 2 5 4 7 10 7 15 22 15 34 0 20-13 29-29 29-15 0-29-9-29-29 0-14 7-27 16-34 1-2 3-5 3-7l0-15c0-14-21-26-62-33 4-2 4-2 2-2z m-237 81c-5 0-9 3-10 8-2 5 1 10 7 12 20 4 41 12 46 15l0 7c-12 12-19 31-19 48 0 29 20 50 48 50 27 0 47-21 47-50 0-17-6-36-18-48l0-8c5-5 25-12 46-16 5-1 8-6 7-12-2-5-7-8-12-6-41 8-62 18-62 32l0 15c0 4 2 6 4 7 10 7 15 22 15 34 0 21-14 29-29 29-15 0-27-6-27-27 0-14 6-27 15-34 3-3 5-5 5-9l0-15c0-14-20-26-61-32 0 0-2 0-2 0z m353-123c-1 1-5 0-7-2-15-31-37-56-66-75l0 17-33-36c-1-2 0-3 2-3l48 1-14 12c31 19 57 48 72 81 2 1 2 3-2 5z m-104 228l48-10c2 0 3 2 2 4l-26 41-3-18c-33 18-69 24-106 23-4 0-5-2-5-5 0-4 3-6 5-6 34 4 68-3 99-20z m-242-192l15-6-22 43c-2 2-3 2-3 0l-16-46 16 7c6-36 25-68 51-94 1-2 1-2 3-2 2 0 2 0 4 2 1 2 1 5 0 7-24 24-41 54-48 89z"/>
<glyph glyph-name="comment" unicode="&#117;" d="M454 480l-398 0c-27 0-49-23-49-50l0-215c0-27 22-49 49-49l86 0 0-110c0-7 3-13 10-17 3-1 5-1 8-1 4 0 9 1 11 3l172 125 109 0c28 0 50 22 50 49l0 215c1 27-21 50-48 50z m-292-277l-106 0c-7 0-12 5-12 12l0 215c0 7 5 12 12 12l396 0c7 0 12-5 12-12l0-215c0-7-5-12-12-12l-114 0c-3 0-9-2-10-3l-147-106 0 90c0 11-9 19-19 19z"/>
<glyph glyph-name="content-outline" unicode="&#120;" d="M346 353l-49-25c0-2-2-2-2-4l0-155c0 0 0-2 0-2 0-1 2-1 2-3 0 0 2 0 2 0 0 0 1 0 1 0l48 22 85 9c2 0 2 0 4 1 0 0 0 0 0 2 0 2 2 2 2 3l0 163c0 1 0 3-2 3-2 0-2 2-4 2z m4-10l68 12-70-73-39 41z m78-131l-71 61 73 75 0-136z m-87 59l-36-76 0 114z m5-75c0 0-1 0-1 0l-34-15 39 84 70-60z m-285 185l69-11c0 0 0 0 1 0 2 0 6 2 6 5 0 4-2 7-6 7l-68 11c-3 0-7-2-7-6 0-3 2-6 5-6z m0-79l98-15 66-31c0 0 2 0 2 0 2 0 3 2 5 3 2 4 0 7-3 7l-67 31c0 0-2 0-2 0l-97 15c-3 0-7-1-7-5 0-2 2-5 5-5z m168-77l-67 31c0 0-2 0-2 0l-97 15c-3 0-7-1-7-5 0-3 2-7 5-7l98-15 66-31c0 0 2 0 2 0 2 0 3 2 5 4 2 3 0 7-3 8z m0-42l-67 30c0 0-2 0-2 0l-97 16c-3 0-7-2-7-5 0-4 2-7 5-7l98-16 66-30c0 0 2 0 2 0 2 0 3 1 5 3 2 3 0 7-3 9z m266 264c-2 2-5 4-9 4l-140-23c-1 0-1 0-3-1l-87-40-87 40c-2 0-2 0-3 1l-140 23c-4 0-7 0-9-4-3-2-3-5-3-8l0-311c0-5 5-10 10-12l138-17 91-38c1 0 3 0 5 0 1 0 3 0 5 0l90 38 139 17c5 0 10 5 10 12l0 311c-4 3-4 6-7 8z m-329-324l-130 15 0 287 124-21 89-40 0-275-82 34c0-2 0 0-1 0z m310 15l-130-15c-1 0-1 0-3 0l-82-34 0 275 89 40 124 21 0-287z"/>
<glyph glyph-name="courses" unicode="&#121;" d="M346 353l-49-25c0-2-2-2-2-4l0-155c0 0 0-2 0-2 0-1 2-1 2-3 0 0 2 0 2 0 0 0 1 0 1 0l48 22 85 9c2 0 2 0 4 1 0 0 0 0 0 2 0 2 2 2 2 3l0 163c0 1 0 3-2 3-2 0-2 2-4 2z m4-10l68 12-70-73-39 41z m78-131l-71 61 73 75 0-136z m-87 59l-36-76 0 114z m5-75c0 0-1 0-1 0l-34-15 39 84 70-60z m-285 185l69-11c0 0 0 0 1 0 2 0 6 2 6 5 0 4-2 7-6 7l-68 11c-3 0-7-2-7-6 0-3 2-6 5-6z m0-79l98-15 66-31c0 0 2 0 2 0 2 0 3 2 5 3 2 4 0 7-3 7l-67 31c0 0-2 0-2 0l-97 15c-3 0-7-1-7-5 0-2 2-5 5-5z m168-77l-67 31c0 0-2 0-2 0l-97 15c-3 0-7-1-7-5 0-3 2-7 5-7l98-15 66-31c0 0 2 0 2 0 2 0 3 2 5 4 2 3 0 7-3 8z m0-42l-67 30c0 0-2 0-2 0l-97 16c-3 0-7-2-7-5 0-4 2-7 5-7l98-16 66-30c0 0 2 0 2 0 2 0 3 1 5 3 2 3 0 7-3 9z m266 264c-2 2-5 4-9 4l-140-23c-1 0-1 0-3-1l-87-40-87 40c-2 0-2 0-3 1l-140 23c-4 0-7 0-9-4-3-2-3-5-3-8l0-311c0-5 5-10 10-12l138-17 91-38c1 0 3 0 5 0 1 0 3 0 5 0l90 38 139 17c5 0 10 5 10 12l0 311c-4 3-4 6-7 8z m-329-324l-130 15 0 287 124-21 89-40 0-275-82 34c0-2 0 0-1 0z m310 15l-130-15c-1 0-1 0-3 0l-82-34 0 275 89 40 124 21 0-287z"/>
<glyph glyph-name="dino" unicode="&#122;" d="M335 404c0-5-5-10-11-10-5 0-10 5-10 10 0 6 5 11 10 11 6 0 11-5 11-11z m136 28c-26 25-123 39-179 25-29-6-62-44-62-83 0-7 0-14 0-19 0-26 0-39-8-48-7-7-15-12-26-17-10-7-20-12-27-20-22-28-41-36-65-28-25 9-27 38-25 81 0 17 0 34-4 47-2 4-5 5-8 7-4 0-9-2-11-5-27-51-37-136 9-203 17-26 41-46 70-61 2-4 3-6 7-6l0-17c0-1-2-17 8-25 5-5 12-9 19-9 22 0 31 17 32 26l4 13 3-6c4-9 12-23 28-23 0 0 1 0 1 0 2 0 5 0 7 0 22 6 22 28 22 35l0 15c12 5 29 17 45 48 8 18 12 37 13 54 4-1 7-1 11-1 8 0 17 3 23 12 6 5 6 12 6 18-2 12-12 19-14 19l-24 17c3 16 9 24 10 29 14-2 43-3 60 2 15 3 24 17 29 29 2 0 3-2 3-2 4 0 7 2 9 4 14 10 60 64 34 92z m-218-323l0-13c0-14-4-19-12-19-2 0-2 0-4 0-10 0-15 12-15 12l-5 10-2 2 5 0c9 1 17 3 26 7 3 1 5 1 7 1 0 0 0 2 0 0z m90 140c2-2 7-5 7-10 0-2 0-3-2-7-7-10-17-5-17-5l-5 2-5 1c0 2 0 4 0 6 0 3 0 5 0 5l-2 18c0 0 0 2 2 4 0 0 0 0 0 2l2 0z m92 108c0 0 0-2 0 0l-10 13-9 12c-1 2-5 4-6 2l-24-15-14 20c-2 2-5 4-7 2l-32-19c-2-2-4-5-2-7 2-1 5-3 7-1l29 17 14-23c1-1 5-3 6-1l24 15 5-8 4-6c0-1-2-3-2-6-3-11-10-24-22-28-21-5-61 0-61 0l-4 0-2-1c-5-7-12-23-17-47-1-3-1-6-1-8 0-3-2-5-2-5l2-21c0 0 0-1 0-5 0-1 0-5 0-8 0-17-2-41-12-63-16-31-31-38-41-43l-4-2c-1-2-3-2-5-2-10-3-20-6-31-8-3 0-5-2-8-2-2 0-2 0-3 0 0 0-2 0-2 0l0 2 2 3 8 33c0 3-2 5-3 7-4 0-5-2-7-4l-9-36-1-8-2-9-5-17c0 0-4-13-19-13-3 0-7 1-9 3-3 3-5 12-3 15l0 50c0 3-3 5-5 5-4 0-5-2-5-5l0-17c0 0-2 0-2 0-2 0-3 1-3 1-28 16-48 35-63 58-41 62-31 134-14 173 0-9 0-17 0-27 0-38-2-84 36-96 44-14 73 22 82 32 5 6 13 11 22 16 10 5 20 12 29 19 13 13 13 34 12 58 0 6 0 12 0 18 0 33 27 63 49 69 55 13 145-2 166-21 12-10-12-44-26-61z m-148-104l-26 27c-2 2-5 2-7 0-1-2-1-5 0-7l26-27c0 0 3-4 3-9 0-1-1-5-3-7-9-8-15-3-17-3l-46 27c-2 2-5 0-7-1-2-2 0-6 2-7l46-28c1-1 7-3 10-3 5 0 12 2 19 9 5 5 7 10 7 13 1 9-6 16-7 16z"/>
<glyph glyph-name="discuss" unicode="&#65;" d="M485 121c10 17 15 38 15 56 0 45-29 86-75 106 0 96-94 174-208 174-113 0-207-76-207-174 0-29 9-58 26-85l-19-61c-3-9 0-19 5-26 7-7 16-10 26-9l80 19c27-12 60-19 90-19 9 0 19 0 28 2 27-32 70-51 112-51 21 0 41 3 60 12l50-12c1 0 3 0 5 0 7 0 12 3 17 7 5 5 7 13 5 22z m-33-3l9-28-38 9c-3 0-7 0-10-2-15-7-34-12-51-12-31 0-62 12-82 33 68 19 123 70 136 133 33-15 55-44 55-75 0-16-5-31-15-45-5-3-5-8-4-13z m-382 78c2 5 0 11-2 14-15 22-24 48-24 73 0 79 79 142 174 142 96 0 175-63 175-140-11 2-23 3-33 3-73 0-133-49-133-111 0-13 3-27 9-40-6 0-12-2-18-2-29 2-56 7-81 19-4 1-7 1-11 1l-73-17z m329 63c-12-59-64-109-133-126-3 4-7 5-12 5-7 12-10 26-10 39 0 53 53 96 116 96 12 0 22-2 33-3 1-5 3-9 6-11z"/>
<glyph glyph-name="dotgrid" unicode="&#66;" d="M72 375c-36 0-65 29-65 65 0 36 29 65 65 65 36 0 65-29 65-65 0-36-29-65-65-65z m0 99c-19 0-34-15-34-34 0-18 15-34 34-34 18 0 34 16 34 34 0 19-16 34-34 34z m184-99c-36 0-65 29-65 65 0 36 29 65 65 65 36 0 65-29 65-65 0-36-29-65-65-65z m0 99c-19 0-34-15-34-34 0-18 15-34 34-34 19 0 34 16 34 34 0 19-15 34-34 34z m184-99c-36 0-65 29-65 65 0 36 29 65 65 65 36 0 65-29 65-65 0-36-29-65-65-65z m0 99c-18 0-34-15-34-34 0-18 16-34 34-34 19 0 34 16 34 34 0 19-15 34-34 34z m-368-283c-36 0-65 29-65 65 0 36 29 65 65 65 36 0 65-29 65-65 0-36-29-65-65-65z m0 99c-19 0-34-15-34-34 0-19 15-34 34-34 18 0 34 15 34 34 0 19-16 34-34 34z m184-99c-36 0-65 29-65 65 0 36 29 65 65 65 36 0 65-29 65-65 0-36-29-65-65-65z m0 99c-19 0-34-15-34-34 0-19 15-34 34-34 19 0 34 15 34 34 0 19-15 34-34 34z m184-99c-36 0-65 29-65 65 0 36 29 65 65 65 36 0 65-29 65-65 0-36-29-65-65-65z m0 99c-18 0-34-15-34-34 0-19 16-34 34-34 19 0 34 15 34 34 0 19-15 34-34 34z m-368-283c-36 0-65 29-65 65 0 36 29 65 65 65 36 0 65-29 65-65 0-36-29-65-65-65z m0 99c-19 0-34-16-34-34 0-19 15-34 34-34 18 0 34 15 34 34 0 18-16 34-34 34z m184-99c-36 0-65 29-65 65 0 36 29 65 65 65 36 0 65-29 65-65 0-36-29-65-65-65z m0 99c-19 0-34-16-34-34 0-19 15-34 34-34 19 0 34 15 34 34 0 18-15 34-34 34z m184-99c-36 0-65 29-65 65 0 36 29 65 65 65 36 0 65-29 65-65 0-36-29-65-65-65z m0 99c-18 0-34-16-34-34 0-19 16-34 34-34 19 0 34 15 34 34 0 18-15 34-34 34z"/>
<glyph glyph-name="download" unicode="&#67;" d="M422 302l-159-159c-5-5-12-5-16 0l-158 159c-5 5-2 12 5 12l82 0 0 167c0 7 7 14 13 14l132 0c7 0 14-7 14-14l0-167 81 0c7 0 11-9 6-12z m-325-276l318 0c5 0 10 5 10 10l0 72c0 5-5 10-10 10l-318 0c-5 0-10-5-10-10l0-72c0-5 5-10 10-10z"/>
<glyph glyph-name="easle" unicode="&#68;" d="M198 488c0 0 2 0 2 2 0 0-2 0-2-2z m-3-2c0 0 1 2 1 2 0 0 0-2-1-2z m12 6c3 0 5-2 6-4-1 2-5 2-6 4z m131-318l55 7-4 32-12-1-37 220c-2 5-7 8-12 8l-94-5-19 48c0 0 0 2-2 2 0 0 0 0 0 1-1 2-3 4-6 4 0 0 0 0-2 0-2 0-2 0-4 0 0 0-1 0-1 0 0 0-2 0-2-2 0 0 0 0-2-2 0 0-1-1-1-1 0 0 0-2 0-2 0 0 0-2 0-2 0 0 0 0 0-1l-7-47-58-3c-4 0-5-2-9-3-3-2-3-7-2-9l29-232-13-2 3-32 21 2-5-62c0-7 3-12 10-12 0 0 0 0 2 0 5 0 10 4 10 10l7 67 12 2 0-125c0-7 5-10 10-10 5 0 10 5 10 10l0 128 101 12 48-121c1-5 8-9 13-7 5 2 9 9 7 14z m-169 14l-27 222 177 10 36-212z m70 49c-2 0-2 0 0 0-3 0-5 2-5 5l-7 31-24-2c-8 0-14 5-15 12l-17 81c-4 5-2 8 0 11 1 4 5 6 8 6l108 5c8 0 13-5 15-12l17-80c2-4 0-9-2-11-1-3-5-5-8-5l-29-2-38-37c-1-2-1-2-3-2z m-9 46c2 0 6-1 6-5l5-25 32 32c2 2 2 2 3 2l31 1c0 0 2 0 2 0 0 0 0 2 0 2l-17 80c0 2-2 5-4 5l-107-5c0 0-2 0-2 0 0 0 0-1 0-1l17-81c0-1 4-3 5-3z m-1 50c0-4-3-7-7-7-4 0-7 3-7 7 0 4 3 7 7 7 4 0 7-3 7-7z m24 2c0-4-3-7-7-7-4 0-7 3-7 7 0 3 3 6 7 6 4 0 7-3 7-6z m22 0c0-4-3-7-7-7-4 0-7 3-7 7 0 3 3 6 7 6 4 0 7-3 7-6z"/>
<glyph glyph-name="ecd" unicode="&#69;" d="M338 323l-5 6c-2 2-4 2-5 2-29-12-75-49-111-94-12 14-29 22-46 22-2 0-4-1-4-3l-1-5c0-2 0-4 1-5 28-16 46-53 57-75 0-2 1 0 3 0 2 0 3 0 3 0 26 61 62 109 108 146 2 2 2 4 0 6z m-24-282c-10 0-20 3-32 8-9 2-17 7-26 7-9 0-17-3-27-7-11-3-21-8-33-8-3 0-7 0-10 2-15 5-24 18-31 30-5 9-10 17-17 21-7 5-15 7-25 10-16 4-31 9-40 21-8 12-8 27-6 42 0 10 1 21-2 28-2 6-9 13-14 22-8 12-20 24-20 39 0 15 10 29 20 39 7 7 12 16 14 22 2 7 2 18 2 28 0 15-2 30 6 42 9 12 24 17 40 21 10 3 18 5 25 10 7 5 12 12 17 21 9 13 17 25 31 30 3 2 7 2 10 2 11 0 21-3 33-8 10-2 18-7 27-7 9 0 17 3 27 7 11 3 21 8 33 8 3 0 7 0 10-2 15-5 24-18 31-30 5-9 10-17 17-21 7-5 15-7 25-10 16-4 31-9 40-21 8-12 8-27 6-42 0-10-1-21 2-28 2-6 9-13 14-22 8-12 20-24 20-39 0-15-10-29-20-39-7-7-12-16-14-22-2-7-2-18-2-28 0-15 2-30-6-42-9-12-24-17-40-21-10-3-18-5-25-10-7-5-12-12-17-21-9-13-17-25-31-30-3-2-7-2-12-2z m-58 31c12 0 22-4 32-9 12-5 24-8 33-7 8 4 15 14 22 24 7 9 12 19 21 26 8 7 20 8 30 12 12 3 24 7 31 13 5 7 5 21 3 33 0 12-1 22 2 32 3 11 10 19 17 28 9 10 17 20 17 29 0 10-8 18-17 29-7 8-14 17-17 27-3 10-3 22-2 32 0 14 2 26-3 33-5 7-17 10-31 13-10 4-22 6-30 12-9 7-16 16-21 26-7 10-14 22-22 24-9 3-19-2-33-7-10 2-20-2-32-2-12 0-22 4-32 9-12 5-24 8-33 7-8-4-15-14-22-24-7-10-12-21-21-28-10-5-20-8-30-11-14-4-26-7-31-14-5-7-5-21-3-33 0-11 1-22-2-32-3-10-10-19-17-27-9-11-17-21-17-29 0-11 8-19 17-29 7-9 14-17 17-28 3-10 3-22 2-32 0-14-2-26 3-32 5-7 17-11 31-14 10-4 22-5 30-12 9-7 16-15 21-26 7-10 14-22 22-24 9-3 19 2 33 7 10 0 20 4 32 4z m44 18c-8 0-17 4-25 7-7 4-14 5-21 5-7 0-12-3-20-5-9-3-17-7-26-7-3 0-7 0-8 2-12 4-19 16-26 24-3 7-8 12-12 15-2 4-8 6-15 7-10 4-24 7-31 16-7 10-7 22-5 34 0 7 0 15-2 20-1 5-7 10-10 16-7 8-15 18-15 32 0 14 8 22 15 32 5 6 9 11 10 16 2 5 2 12 2 20 0 12-2 24 5 34 7 11 21 14 31 16 7 1 13 3 19 7 5 3 8 8 11 15 7 10 14 20 26 24 4 2 5 2 9 2 8 0 17-4 25-7 7-4 14-5 21-5 7 0 12 3 20 5 9 3 17 7 26 7 3 0 7 0 8-2 12-4 19-16 26-24 3-7 8-12 12-15 2-4 8-6 15-7 10-4 24-7 31-16 7-10 7-22 5-34 0-7 0-15 2-20 1-5 7-10 10-16 7-8 15-18 15-32 0-14-8-22-15-32-5-6-9-12-10-16-2-5-2-12-2-20 0-12 2-24-5-34-7-11-21-14-31-16-7-1-13-3-19-7-5-3-8-8-11-15-7-10-14-20-26-24-2-2-5-2-9-2z m-44 28c9 0 17-4 26-7 8-3 17-7 22-5 7 2 12 10 17 17 5 7 10 15 17 20 7 5 15 7 24 11 8 1 19 5 22 10 3 5 3 13 3 24 0 8-1 17 2 25 2 9 9 16 14 21 7 7 12 15 12 22 0 7-5 14-12 22-5 7-10 14-14 21-3 8-2 17-2 25 0 11 2 19-3 24-3 5-12 7-22 10-9 2-17 6-24 11-7 5-12 12-17 20-5 9-10 15-17 17-5 2-14-2-22-5-9-3-17-7-26-7-9 0-17 4-26 7-8 3-17 7-22 5-7-2-12-10-17-17-5-7-10-15-17-20-7-5-15-9-24-11-8-1-17-5-20-10-5-5-4-13-4-24 0-8 2-17-1-25-2-9-9-16-14-21-7-7-12-15-12-22 0-7 5-14 12-22 5-7 10-14 14-21 3-8 1-17 1-25 0-11-1-19 4-24 3-5 12-7 22-10 8-2 17-6 24-11 7-5 12-12 17-20 5-9 10-15 17-17 5-2 14 2 22 5 7 3 15 7 24 7z"/>
<glyph glyph-name="editorial" unicode="&#72;" d="M469 328c0 3-1 7-3 10l-46 46c-5 5-14 5-19 0l-27-27-157-157c-2-2-4-5-4-9l-5-51c0-3 2-9 4-10 3-4 6-4 10-4 0 0 2 0 2 0l51 5c3 0 7 2 8 4l157 157 28 27c0 2 1 5 1 9z m-32 0l-9-9-27 27 9 9z m-172-173l-29-1 3 29 145 145 27-28z m51-82l-246 0 0 366 181 0 0-72 65 0 0-48 27 27 0 21c0 7-2 14-7 19l-65 71c-5 6-12 9-20 9l-181 0c-15 0-27-12-27-27l0-366c0-15 12-27 27-27l246 0c15 0 27 12 27 27l0 104-27-27z m-214 219l174 0c7 0 14 7 14 13 0 7-7 14-14 14l-174 0c-6 0-13-7-13-14 0-6 7-13 13-13z m0-109c-6 0-13-7-13-14 0-7 7-14 13-14l91 0 3 28z m0 68c-6 0-13-7-13-14 0-7 7-13 13-13l118 0 27 27z m307 104l27-26-9-9-26 27z"/>
<glyph glyph-name="elmsmedia" unicode="&#73;" d="M247 297l50-36c3-2 3-7 0-8l-50-36c-3-4-8 0-8 5l0 72c0 3 5 5 8 3z m-204 142l20 0 0-364-20 0z m27-376l372 0 0-20-372 0z m379 376l20 0 0-364-20 0z m-376 30l364 0 0-20-364 0z m413-36l-53 0 0 53 53 0z m-42 11l32 0 0 32-32 0z m-365-11l-53 0 0 53 53 0z m-43 11l32 0 0 32-32 0z m43-418l-53 0 0 53 53 0z m-43 10l32 0 0 32-32 0z m450-10l-53 0 0 53 53 0z m-42 10l32 0 0 32-32 0z m-188 314c51 0 94-41 94-94 0-53-43-94-94-94-51 0-94 43-94 94 0 51 43 94 94 94m0 31c-68 0-125-57-125-125 0-68 57-125 125-125 68 0 125 57 125 125 0 68-57 125-125 125z"/>
<glyph glyph-name="grades" unicode="&#76;" d="M483 505l-454 0c-9 0-15-7-15-15l0-466c0-9 6-15 15-15l452 0c9 0 16 6 16 15l0 466c1 8-5 15-14 15z m-437-208l106 0 0-125-106 0z m0 15l0 118 106 0 0-118z m121-15l299 0 0-125-299 0z m299 15l-299 0 0 118 299 0z m-420-157l106 0 0-117-106 0z m121 0l299 0 0-117-299 0z"/>
<glyph glyph-name="hidden" unicode="&#78;" d="M77 256c37 73 107 119 179 119 19 0 36-3 53-8l10 14c-20 8-41 12-63 12-80 0-157-52-198-134-2-1-2-5 0-6 21-43 51-77 87-99l10 13c-32 21-59 51-78 89z m377 3c-21 43-51 77-87 99l-10-13c32-21 59-51 80-89-21-41-50-73-85-94-4-2-9-5-12-7-9-3-17-8-26-10-36-12-73-12-109 0l-10-14c1 0 1 0 3-1 20-7 41-11 61-11 21 0 41 4 62 11 10 3 19 7 29 12 5 1 8 5 14 6 39 24 71 60 93 105-3 1-3 5-3 6z m-198-97c51 0 94 43 94 94 0 20-7 41-19 56l-109-143c10-3 22-7 34-7z m-94 94c0-20 7-41 19-56l109 143c-10 3-22 7-34 7-51 0-94-43-94-94z m-43-188c-1 0-3 0-5 2-3 3-5 9-1 12l273 360c3 3 8 5 12 2 3-4 5-9 1-12l-273-360c-1-4-3-4-7-4z"/>
<glyph glyph-name="icor" unicode="&#79;" d="M256 89c-3 0-9 1-10 5l-45 60c-3 3-3 8-1 13 1 5 7 7 12 7l87 0c5 0 8-3 12-7 3-3 1-10-2-13l-44-60c0-2-6-5-9-5z m-44 73l44-60 44 60z m138 38c-7 0-14 5-14 13l0 87c0 7 5 14 14 14 3 0 5-2 8-2l60-44c4-2 5-7 5-10 0-4-1-9-5-11l-60-46c-3-1-5-1-8-1z m0 100l-2-87 62 43z m-188-100c-3 0-5 1-7 1l-59 45c-4 1-6 7-6 10 0 3 2 9 6 10l58 45c1 1 5 1 6 1 7 0 14-5 14-13l0-87c0-7-5-12-12-12z m0 100l-60-44 60-44z m138 38l-87 0c-5 0-8 3-12 7-1 5-1 10 2 13l44 60c6 7 16 7 21 0l43-60c3-3 3-8 1-13-3-5-8-7-12-7z m-44 72l-44-60 87-2z m0-383c-126 0-229 103-229 229 0 126 103 229 229 229 126 0 229-103 229-229 0-126-103-229-229-229z m0 434c-113 0-205-92-205-205 0-113 92-205 205-205 113 0 205 92 205 205 0 113-92 205-205 205z"/>
<glyph glyph-name="inbox" unicode="&#80;" d="M437 370l-362 0c-14 0-24-10-24-24l0-180c0-14 10-24 24-24l360 0c14 0 24 10 24 24l0 180c2 14-8 24-22 24z m7-204l-123 90 121 65c0 0 2 0 2 2z m-369 187l360 0c4 0 7-3 7-5l-2-3c-1-4-5-7-8-9l-166-89c-7-3-17-3-24 0l-165 89c-2 2-5 5-7 9l-2 3c2 4 4 5 7 5z m-7-187l0 155c0 0 2 0 2-2l121-65z m7-7c-2 0-2 0-3 0l126 92 36-19c7-3 13-5 20-5 7 0 14 2 21 5l36 19 126-92c0 0-2 0-4 0z"/>
<glyph glyph-name="info" unicode="&#81;" d="M256 5c-133 0-246 118-246 256 0 135 109 246 246 246 137 0 246-111 246-246 0-140-113-256-246-256z m0 480c-123 0-224-101-224-224 0-126 103-234 224-234 121 0 224 108 224 234 0 123-101 224-224 224z m58-338l-3-16c-12-5-21-8-28-10-7-2-15-3-24-3-13 0-25 3-32 10-9 7-12 15-12 26 0 3 0 8 2 12 0 5 1 8 3 15l16 51c1 5 1 10 3 14 2 5 2 8 2 12 0 7-2 12-4 13-3 4-8 4-15 4-4 0-9 0-12-2-3-2-7-2-10-3l3 15c10 3 19 7 27 10 9 4 17 4 26 4 14 0 26-4 32-11 7-6 12-15 12-27 0-2 0-7 0-12 0-5-1-10-3-15l-15-51c-2-4-2-9-4-14-2-5-2-9-2-12 0-7 2-12 6-14 3-1 8-3 15-3 3 0 7 0 12 2 0 1 3 3 5 5z m3 217c0-9-3-18-10-24-7-7-15-11-24-11-10 0-17 4-24 11-6 6-10 13-10 24 0 8 4 17 10 23 6 6 14 9 24 9 11 0 17-3 24-10 7-5 10-14 10-22z"/>
<glyph glyph-name="interact" unicode="&#82;" d="M256 89c-3 0-9 1-10 5l-45 60c-3 3-3 8-1 13 1 5 7 7 12 7l87 0c5 0 8-3 12-7 3-3 1-10-2-13l-44-60c0-2-6-5-9-5z m-44 73l44-60 44 60z m138 38c-7 0-14 5-14 13l0 87c0 7 5 14 14 14 3 0 5-2 8-2l60-44c4-2 5-7 5-10 0-4-1-9-5-11l-60-46c-3-1-5-1-8-1z m0 100l-2-87 62 43z m-188-100c-3 0-5 1-7 1l-59 45c-4 1-6 7-6 10 0 3 2 9 6 10l58 45c1 1 5 1 6 1 7 0 14-5 14-13l0-87c0-7-5-12-12-12z m0 100l-60-44 60-44z m138 38l-87 0c-5 0-8 3-12 7-1 5-1 10 2 13l44 60c6 7 16 7 21 0l43-60c3-3 3-8 1-13-3-5-8-7-12-7z m-44 72l-44-60 87-2z m0-383c-126 0-229 103-229 229 0 126 103 229 229 229 126 0 229-103 229-229 0-126-103-229-229-229z m0 434c-113 0-205-92-205-205 0-113 92-205 205-205 113 0 205 92 205 205 0 113-92 205-205 205z"/>
<glyph glyph-name="labs" unicode="&#83;" d="M304 340c0 0-2 0-2 0l-19 5c-7 1-15 1-22 0l-7-2c-10-3-20-3-29 0l-18 5c-4 2-6 5-6 9 2 3 6 5 9 5l19-5c7-2 15-2 22 0l7 1c10 4 20 4 30 0l19-5c4-1 5-5 5-8-3-4-5-5-8-5z m89-299l-274 0c-15 0-30 8-39 20-8 14-10 31-3 45l109 249c2 3 2 5 2 9l0 61c0 12-11 20-21 20l-13 0c-7 0-14 6-14 14 0 9 5 12 14 12l12 0c25 0 47-20 47-48l0-61c0-7-1-14-3-19l-111-247c-3-7-2-14 2-21 3-7 10-10 17-10l275 0c6 0 13 3 17 10 3 7 5 14 1 21l-107 249c-4 7-4 12-4 19l0 61c0 26 21 48 48 48l10 0c7 0 14-5 14-14 0-8-5-14-14-14l-12 0c-11 0-20-10-20-20l0-61c0-4 0-6 2-9l109-249c7-16 5-31-4-45-10-13-23-20-40-20z m-161 96c-17 0-31 13-31 30 0 17 14 31 31 31 17 0 31-14 31-31 0-17-14-30-31-30z m0 47c-10 0-17-8-17-17 0-8 9-17 17-17 10 0 17 9 17 17 0 9-7 17-17 17z m58 26c-10 0-20 8-20 20 0 11 8 21 20 21 10 0 21-9 21-21 0-10-9-20-21-20z m0 27c-3 0-7-3-7-7 0-3 4-6 7-6 4 0 7 3 7 6 2 4-2 7-7 7z m-32 29c-11 0-19 9-19 19 0 10 8 19 19 19 10 0 18-9 18-19 0-10-8-19-18-19z m0 24c-4 0-5-2-5-5 0-3 1-5 5-5 3 0 5 2 5 5 0 3-2 5-5 5z"/>
<glyph glyph-name="media" unicode="&#84;" d="M247 297l50-36c3-2 3-7 0-8l-50-36c-3-4-8 0-8 5l0 72c0 3 5 5 8 3z m-204 142l20 0 0-364-20 0z m27-376l372 0 0-20-372 0z m379 376l20 0 0-364-20 0z m-376 30l364 0 0-20-364 0z m413-36l-53 0 0 53 53 0z m-42 11l32 0 0 32-32 0z m-365-11l-53 0 0 53 53 0z m-43 11l32 0 0 32-32 0z m43-418l-53 0 0 53 53 0z m-43 10l32 0 0 32-32 0z m450-10l-53 0 0 53 53 0z m-42 10l32 0 0 32-32 0z m-188 314c51 0 94-41 94-94 0-53-43-94-94-94-51 0-94 43-94 94 0 51 43 94 94 94m0 31c-68 0-125-57-125-125 0-68 57-125 125-125 68 0 125 57 125 125 0 68-57 125-125 125z"/>
<glyph glyph-name="mooc" unicode="&#85;" d="M346 353l-49-25c0-2-2-2-2-4l0-155c0 0 0-2 0-2 0-1 2-1 2-3 0 0 2 0 2 0 0 0 1 0 1 0l48 22 85 9c2 0 2 0 4 1 0 0 0 0 0 2 0 2 2 2 2 3l0 163c0 1 0 3-2 3-2 0-2 2-4 2z m4-10l68 12-70-73-39 41z m78-131l-71 61 73 75 0-136z m-87 59l-36-76 0 114z m5-75c0 0-1 0-1 0l-34-15 39 84 70-60z m-285 185l69-11c0 0 0 0 1 0 2 0 6 2 6 5 0 4-2 7-6 7l-68 11c-3 0-7-2-7-6 0-3 2-6 5-6z m0-79l98-15 66-31c0 0 2 0 2 0 2 0 3 2 5 3 2 4 0 7-3 7l-67 31c0 0-2 0-2 0l-97 15c-3 0-7-1-7-5 0-2 2-5 5-5z m168-77l-67 31c0 0-2 0-2 0l-97 15c-3 0-7-1-7-5 0-3 2-7 5-7l98-15 66-31c0 0 2 0 2 0 2 0 3 2 5 4 2 3 0 7-3 8z m0-42l-67 30c0 0-2 0-2 0l-97 16c-3 0-7-2-7-5 0-4 2-7 5-7l98-16 66-30c0 0 2 0 2 0 2 0 3 1 5 3 2 3 0 7-3 9z m266 264c-2 2-5 4-9 4l-140-23c-1 0-1 0-3-1l-87-40-87 40c-2 0-2 0-3 1l-140 23c-4 0-7 0-9-4-3-2-3-5-3-8l0-311c0-5 5-10 10-12l138-17 91-38c1 0 3 0 5 0 1 0 3 0 5 0l90 38 139 17c5 0 10 5 10 12l0 311c-4 3-4 6-7 8z m-329-324l-130 15 0 287 124-21 89-40 0-275-82 34c0-2 0 0-1 0z m310 15l-130-15c-1 0-1 0-3 0l-82-34 0 275 89 40 124 21 0-287z"/>
<glyph glyph-name="online" unicode="&#86;" d="M299 207c0-24-19-43-43-43-24 0-43 19-43 43 0 23 19 42 43 42 24 0 43-19 43-42z m-43-156c-9 0-14 7-14 14l0 131-114 67c-7 3-9 12-5 20 3 7 12 9 20 5l122-70c5-3 6-6 6-11l0-140c-1-9-6-16-15-16z m0 0c-9 0-14 7-14 14l0 140c0 5 4 10 7 12l121 70c7 3 16 1 21-5 3-7 2-16-5-21l-115-66 0-132c-1-5-6-12-15-12z m0 145c-5 0-10 5-10 11l0 199c0 5 5 10 10 10 5 0 10-5 10-10l0-201c0-5-5-9-10-9z m39 210c0-21-17-39-39-39-22 0-39 18-39 39 0 22 17 39 39 39 22 0 39-17 39-39z m-39-68c-39 0-70 31-70 70 0 39 31 70 70 70 39 0 70-31 70-70 0-39-31-70-70-70z m0 130c-32 0-60-28-60-60 0-33 28-60 60-60 32 0 60 27 60 60 0 32-28 60-60 60z m174-432c-39 0-70 31-70 70 0 39 31 70 70 70 39 0 70-31 70-70 0-39-31-70-70-70z m0 130c-32 0-60-28-60-60 0-33 28-60 60-60 33 0 60 27 60 60 0 32-26 60-60 60z m-348-130c-39 0-70 31-70 70 0 39 31 70 70 70 39 0 70-31 70-70 0-39-33-70-70-70z m0 130c-33 0-60-28-60-60 0-33 27-60 60-60 32 0 60 27 60 60 0 32-28 60-60 60z m0-70c-3 0-7 1-9 5-3 5-1 10 4 13l174 101c5 3 10 2 14-3 3-5 1-11-4-14l-174-101c-2-1-3-1-5-1z m39 10c0-22-17-39-39-39-22 0-39 17-39 39 0 21 17 39 39 39 22 0 39-18 39-39z m309-10c-2 0-3 0-5 1l-174 101c-5 3-7 9-4 14 4 5 9 6 14 3l174-101c5-3 7-8 4-13-2-4-6-5-9-5z m39 10c0-22-17-39-39-39-22 0-39 17-39 39 0 21 17 39 39 39 22 0 39-18 39-39z"/>
<glyph glyph-name="page" unicode="&#87;" d="M391 60l-270 0c-10 0-17 7-17 17l0 358c0 10 7 17 17 17l268 0c10 0 17-7 17-17l0-358c2-9-7-17-15-17z m-253 34l234 0 0 324-234 0z m181 242l-128 0c-5 0-8 4-8 9 0 5 3 8 8 8l128 0c5 0 9-3 9-8 0-5-4-9-9-9z m0-170l-128 0c-5 0-8 3-8 8 0 5 3 9 8 9l128 0c5 0 9-4 9-9 0-5-4-8-9-8z m0 85l-128 0c-5 0-8 3-8 8 0 6 3 9 8 9l128 0c5 0 9-3 9-9 0-5-4-8-9-8z"/>
<glyph glyph-name="pdf" unicode="&#88;" d="M461 393l-101 99c-5 5-14 8-22 8l-265 0c-17 0-30-14-30-31l0-428c0-17 13-31 30-31l367 0c17 0 31 14 31 31l0 329c-2 9-5 17-10 23z m-22-350l-366 0 0 426 267 0 0-99 100 0 0-327z m-183 247c9 22 15 41 17 55 12 68-70 73-61 0 1-19 8-38 17-57-11-25-22-52-36-78-29-10-50-22-62-34-42-41 11-94 52-36 10 14 20 34 29 49 25 9 54 18 82 23 17-14 46-31 70-31 44 0 49 55 0 61-19 4-45 0-64-3-15 10-32 27-44 51z m-102-143c-12-12-19-4-9 8 7 7 19 16 29 21-7-12-14-22-20-29z m83 215c2 12 10 10 12 2 2-11-3-29-7-38-5 9-6 26-5 36z m-12-140c0 0 14 29 19 41 5-10 24-29 24-29-5-4-31-9-43-12z m133-5c16-2 17-12 4-12-12 0-24 7-33 12 12 1 23 1 29 0z"/>
<glyph glyph-name="people" unicode="&#89;" d="M56 314c0 21 14 34 33 34 19 0 32-13 32-34 0-15-7-31-17-39 0-2-2-2-2-4l0-15c0-15 40-26 57-29 0 0 0 0 1 0 2 0 4 2 6 3 0 4-2 6-4 6-27 5-48 15-49 18l0 12c12 10 18 28 18 45 0 25-18 44-42 44-24 0-43-19-43-44 0-17 7-35 19-45l0-10c0-3-22-14-50-19-3 0-5-3-3-5 0-3 3-5 5-3 17 3 56 13 56 29l0 15c0 2 0 3-1 3-9 7-16 23-16 38z m439-114c-41 8-84 24-84 34l0 22c21 17 33 44 33 73 0 41-28 70-69 70-17 0-32-5-44-15-15 24-43 38-75 38-53 0-90-40-90-94 0-4 0-9 0-12 0-2 0-2 0-4 0-3 1-7 1-8 0-2 0-2 0-4 0-3 2-6 2-10 0-2 2-3 2-5 0-2 1-3 1-5 4-7 7-14 11-21 0 0 0-1 1-1 4-4 5-9 9-12 0 0 0-2 2-2 1-2 3-3 3-5 2-2 3-3 3-3 0 0 2-2 2-2l0-29c0-9-46-29-106-41-1 0-3-2-5-4l-17-17c-2-1-3-5-2-8 0-4 4-5 6-7 56-26 114-39 172-39 58 0 116 13 174 39 3 2 5 3 5 7 0 3 0 7-2 8l-17 17c-1 2-3 2-5 4-56 12-99 29-104 39 39 14 43 24 43 31l0 25c0 2 0 4-2 4-3 3-8 7-12 12 5 12 9 24 10 37 0 0 0 2 0 2 0 3 0 9 0 12 0 19-3 34-12 48 11 10 24 15 40 15 34 0 58-25 58-61 0-26-12-53-31-67-2-2-2-2-2-3l0-26c0-24 70-39 92-44 0 0 0 0 2 0 2 0 4 1 5 3 7 5 5 9 2 9z m-239 203c43 0 72-31 72-75 0-4 0-7 0-12 0 0 0-2 0-2-4-27-17-55-38-70-5-5-12-8-19-10-10-4-20-4-30 0-7 2-12 5-19 10-19 15-34 43-38 70 0 0 0 2 0 2 0 3 0 7 0 12 0 44 29 75 72 75z m-22-186c7-2 13-4 20-4 7 0 14 2 21 4 3 1 7 1 8 3l0-15c0-5 2-9 5-12-13-9-23-17-34-29-12 10-22 19-34 29 4 3 5 8 5 12l0 15c4-2 7-3 9-3z m174-75c-104-41-207-43-306 0l6 5c29 7 83 20 107 39 14-10 26-19 38-31 0-1 1-1 3-1 2 0 2 0 3 1 14 14 24 21 38 31 24-20 77-34 106-39z m-68 116l0-22c0-2-2-11-35-21l0 19c11 8 19 20 26 32 4-3 5-7 9-8z"/>
<glyph glyph-name="plus" unicode="&#90;" d="M357 273l-84 0 0 84c0 10-7 17-17 17-10 0-17-7-17-17l0-84-84 0c-10 0-17-7-17-17 0-10 7-17 17-17l84 0 0-84c0-10 7-17 17-17 10 0 17 7 17 17l0 84 84 0c10 0 17 7 17 17 0 10-9 17-17 17z"/>
<glyph glyph-name="quiz" unicode="&#48;" d="M440 125l0-76-152 0-37 38 37 38 152 0m5 34l-160 0c-7 0-15-4-20-9l-43-44c-10-10-10-29 0-39l43-45c5-5 11-8 20-8l160 0c16 0 29 12 29 29l0 87c0 15-13 29-29 29z m-5 135l0-76-152 0-37 38 37 38 152 0m5 34l-160 0c-7 0-15-4-20-9l-43-43c-10-10-10-29 0-39l43-44c5-5 11-9 20-9l160 0c16 0 29 12 29 29l0 87c0 16-13 28-29 28z m-5 136l0-75-152 0-37 38 37 37 152 0m5 34l-160 0c-7 0-15-3-20-8l-43-45c-10-10-10-29 0-39l43-44c5-5 11-9 20-9l160 0c16 0 29 12 29 29l0 87c0 16-13 29-29 29z m-351-479c-7 0-14 1-19 3-5 2-12 5-15 9-5 3-7 8-11 13-1 5-3 12-3 19 0 9 2 19 5 26 4 8 9 15 16 22 6 7 13 12 22 15 8 4 19 5 27 5 5 0 12 0 19-1 7-2 10-4 13-5l6 6 6 0-8-39-7 0c-2 12-3 21-8 26-6 7-12 8-21 8-5 0-12-1-17-5-5-3-10-8-14-17-3-7-5-14-6-20-2-9-2-16-2-23 0-10 2-18 7-23 5-6 12-9 20-9 7 0 14 2 21 7 6 3 12 10 18 17l5-4c-1-3-5-8-8-11-3-4-7-7-12-11-5-3-10-5-14-7-6 0-12-1-20-1z m24 281c13 0 22-1 29-5 7-3 8-8 8-15 0-5-1-9-3-12-2-3-5-7-9-9-3-1-6-5-12-5-3-1-8-3-13-3l0-2c3 0 7-2 10-2 3-1 7-3 9-5 3-1 5-3 6-6 2-4 2-7 2-11 0-12-5-20-14-25-8-5-23-9-41-9l-54 0 2 5c1 0 3 0 5 0 1 0 5 0 5 2 1 0 3 2 5 3 2 2 2 4 2 6l17 75c0 1 0 1 0 3 0 0 0 2 0 2 0 1-2 3-4 5-1 2-5 2-10 3l2 5z m1-73c0 5-1 10-5 14-3 3-8 5-17 5-1 0-1 0-3 0-2 0-2 0-4 0l-8-41c0-2 2-4 3-5 4-2 5-2 9-2 7 0 12 3 17 9 7 5 8 11 8 20z m7 53c0 5-1 8-5 10-3 2-7 4-12 4-1 0-1 0-3 0-2 0-2 0-4 0l-10-41 5 0c9 0 16 1 21 6 5 6 8 12 8 21z m-30 82l1 5c5 0 9 2 12 2 4 1 5 1 5 3 0 2 0 2 0 2 0 0 0 1 0 1l-5 23-37 0c-2-2-4-4-5-7-2-4-4-7-4-9-3-3-3-5-3-7 0-1 0-1 0-1 0-2 1-4 3-4 2-1 5-3 10-3l-1-5-46 0 1 5c2 0 4 0 5 0 2 0 4 2 6 2 1 1 3 3 6 5 2 1 4 3 5 7 11 15 21 30 30 44 8 14 18 29 30 46l16 0c3-22 6-41 10-56 3-16 5-28 7-38 0-2 0-3 1-3 2 0 2-2 4-4 1 0 3-1 5-1 2 0 3 0 5 0l-3-7z m12 42l-7 40-24-40z"/>
<glyph glyph-name="speechballoons" unicode="&#49;" d="M485 121c10 17 15 38 15 56 0 45-29 86-75 106 0 96-94 174-208 174-113 0-207-76-207-174 0-29 9-58 26-85l-19-61c-3-9 0-19 5-26 7-7 16-10 26-9l80 19c27-12 60-19 90-19 9 0 19 0 28 2 27-32 70-51 112-51 21 0 41 3 60 12l50-12c1 0 3 0 5 0 7 0 12 3 17 7 5 5 7 13 5 22z m-33-3l9-28-38 9c-3 0-7 0-10-2-15-7-34-12-51-12-31 0-62 12-82 33 68 19 123 70 136 133 33-15 55-44 55-75 0-16-5-31-15-45-5-3-5-8-4-13z m-382 78c2 5 0 11-2 14-15 22-24 48-24 73 0 79 79 142 174 142 96 0 175-63 175-140-11 2-23 3-33 3-73 0-133-49-133-111 0-13 3-27 9-40-6 0-12-2-18-2-29 2-56 7-81 19-4 1-7 1-11 1l-73-17z m329 63c-12-59-64-109-133-126-3 4-7 5-12 5-7 12-10 26-10 39 0 53 53 96 116 96 12 0 22-2 33-3 1-5 3-9 6-11z"/>
<glyph glyph-name="studio" unicode="&#50;" d="M198 488c0 0 2 0 2 2 0 0-2 0-2-2z m-3-2c0 0 1 2 1 2 0 0 0-2-1-2z m12 6c3 0 5-2 6-4-1 2-5 2-6 4z m131-318l55 7-4 32-12-1-37 220c-2 5-7 8-12 8l-94-5-19 48c0 0 0 2-2 2 0 0 0 0 0 1-1 2-3 4-6 4 0 0 0 0-2 0-2 0-2 0-4 0 0 0-1 0-1 0 0 0-2 0-2-2 0 0 0 0-2-2 0 0-1-1-1-1 0 0 0-2 0-2 0 0 0-2 0-2 0 0 0 0 0-1l-7-47-58-3c-4 0-5-2-9-3-3-2-3-7-2-9l29-232-13-2 3-32 21 2-5-62c0-7 3-12 10-12 0 0 0 0 2 0 5 0 10 4 10 10l7 67 12 2 0-125c0-7 5-10 10-10 5 0 10 5 10 10l0 128 101 12 48-121c1-5 8-9 13-7 5 2 9 9 7 14z m-169 14l-27 222 177 10 36-212z m70 49c-2 0-2 0 0 0-3 0-5 2-5 5l-7 31-24-2c-8 0-14 5-15 12l-17 81c-4 5-2 8 0 11 1 4 5 6 8 6l108 5c8 0 13-5 15-12l17-80c2-4 0-9-2-11-1-3-5-5-8-5l-29-2-38-37c-1-2-1-2-3-2z m-9 46c2 0 6-1 6-5l5-25 32 32c2 2 2 2 3 2l31 1c0 0 2 0 2 0 0 0 0 2 0 2l-17 80c0 2-2 5-4 5l-107-5c0 0-2 0-2 0 0 0 0-1 0-1l17-81c0-1 4-3 5-3z m-1 50c0-4-3-7-7-7-4 0-7 3-7 7 0 4 3 7 7 7 4 0 7-3 7-7z m24 2c0-4-3-7-7-7-4 0-7 3-7 7 0 3 3 6 7 6 4 0 7-3 7-6z m22 0c0-4-3-7-7-7-4 0-7 3-7 7 0 3 3 6 7 6 4 0 7-3 7-6z"/>
<glyph glyph-name="support" unicode="&#51;" d="M457 461l-402 0c-23 0-40-19-40-41l0-270c0-22 19-39 40-39l138 0 0-39-72 0c-5 0-8-4-8-9l0-2c0-5 3-8 8-8l270 0c5 0 8 3 8 8l0 2c0 5-3 9-8 9l-74 0 0 39 139 0c22 0 39 19 39 39l0 270c2 22-15 41-38 41z m23-309c0-12-11-22-23-22l-402 0c-12 0-23 10-23 22l0 268c0 13 11 24 23 24l401 0c12 0 22-11 22-22l0-270z m-23 278l-402 0c-6 0-11-5-11-10l0-234c0-5 5-10 11-10l401 0c5 0 10 5 10 10l0 234c0 5-3 10-9 10z m0-244c0-2 0-2 0 0l-402-2c0 0-2 0-2 2l0 234c0 0 0 2 2 2l401 0c0 0 1 0 1-2z m-215 157l11-80 17 0 10 80 0 44-38 0z m2-94l36 0 0-34-36 0z"/>
<glyph glyph-name="teacher" unicode="&#52;" d="M343 428c-22 0-41-6-58-13-10-4-20-9-27-9-2 7-4 14-5 19 39-10 64 32 78 73-49 7-84-30-80-66-7 19-14 37-26 51l-20-15c12-16 20-36 25-57-1 0-3 2-3 2-17 7-36 14-56 14l-2 0c-70 0-140-58-140-166 0-111 80-249 147-249l1 0c18 0 30 5 41 10 12 5 23 9 38 10 15 0 27-5 38-10 11-5 23-10 41-10l1 0c31 0 68 31 99 84 31 51 48 112 48 165 0 108-70 166-140 167z m72-319c-26-42-57-71-77-71l-2 0c-13 0-22 5-32 8-14 5-28 12-48 12-20-2-34-7-46-12-10-5-21-8-34-8-22 0-51 27-77 71-27 48-44 106-44 154-2 95 58 140 116 140 15 0 32-7 47-12 7-4 14-5 19-7 2-14 4-26 5-32-24 3-30 12-30 12-2 3-5 3-9 1-3-1-3-5-3-8 1-2 12-21 54-21 43 0 53 17 53 21 2 3 0 7-3 8-4 2-7 0-9-3 0 0-5-10-30-12 0 7-2 17-4 31 10 1 21 5 31 10 15 5 31 12 48 12 56 0 116-46 116-142 3-48-14-106-41-152z"/>
<glyph glyph-name="tour" unicode="&#53;" d="M365 425c-1 5-7 7-10 7-79 0-85 20-90 39-6 15-12 36-50 36-20 0-56-19-60-21-7-3-8-6-8-12l0-128c0-3 1-8 5-10l0-317c0-4 3-5 5-5 2 0 5 3 5 5l0 319c2 2 4 2 4 3 5 11 23 34 42 34 4 0 7-1 10-3 11-5 23-8 38-8 34 0 75 18 104 47 5 4 7 9 5 14z m-133-31c-7 4-14 5-20 5-16 0-31-8-41-18l0 87c13 6 34 15 42 15 23 0 24-5 28-19 8-25 20-48 82-53-33-22-70-29-91-17z"/>
<glyph glyph-name="user" unicode="&#54;" d="M502 96l-24 23c-2 2-4 2-5 4-74 15-152 43-152 61l0 41c0 0 2 2 2 2 3 3 5 5 8 9 2 1 4 3 5 5 2 1 4 3 4 5 3 3 6 8 10 13 0 2 2 2 2 4 1 3 3 5 5 8 0 2 1 4 1 4 2 5 6 10 7 15 2 2 2 5 4 7 1 2 1 5 1 7 2 3 2 8 4 12 0 1 0 3 1 5 2 5 2 8 2 14 0 1 0 3 0 5 0 5 2 12 2 17 0 75-51 128-125 128-73 0-124-53-124-128 0-5 0-12 1-17 0-2 0-4 0-5 0-6 2-9 2-14 0-2 0-4 2-5 2-5 2-9 3-14 0-2 2-5 2-7 2-1 2-5 3-7 2-5 4-10 7-13 0-2 2-4 2-5 2-4 3-5 5-9 0-2 2-3 3-3 4-5 6-9 9-12 2-2 3-4 5-5 2-2 3-4 5-5 4-4 5-6 9-9 0 0 1-2 1-2l0-41c0-18-78-46-151-61-2 0-4-2-6-4l-23-23c-2-2-4-6-4-9 0-3 4-5 5-7 79-36 161-54 241-54 80 0 164 18 246 54 3 2 5 4 5 7 3 3 3 7 0 9z m-142 261c0-5 0-11-2-16 0 0 0-1 0-1-5-41-25-81-53-103-8-7-17-12-27-15-15-5-31-5-46 0-10 3-19 8-27 15-29 22-50 62-53 103 0 0 0 1 0 1 0 5-2 11-2 17 0 64 43 110 104 110 63-2 106-46 106-111z m-133-154c10-3 19-5 29-5 10 0 19 2 29 5 7 2 12 5 17 9l0-26c0-5 2-12 7-17-21-15-36-27-53-44-17 17-32 29-53 42 4 5 7 10 7 17l0 26c5-2 12-5 17-7z m27-157c-73 0-146 15-220 46l12 12c34 7 118 27 152 56 20-15 38-27 56-46 2-1 2-1 4-1 1 0 3 0 3 1 19 19 34 31 56 46 33-29 118-49 151-56l10-12c-75-31-150-46-224-46z"/>
<glyph glyph-name="view" unicode="&#55;" d="M454 259c-41 82-118 134-198 134-80 0-157-52-198-134-2-1-2-5 0-6 22-46 56-82 96-105 5-3 8-5 13-6 9-5 19-9 29-12 21-7 41-11 62-11 20 0 41 4 61 11 10 3 19 7 29 12 5 1 9 5 14 6 39 24 71 60 94 105-2 1-2 5-2 6z m-104-97c-4-2-9-5-12-7-9-3-17-8-26-10-36-12-75-12-111 0-8 3-17 7-25 10-4 2-9 5-12 7-36 21-65 53-85 94 37 73 107 119 179 119 71 0 141-46 179-119-22-41-51-73-87-94z m0 94c0-52-42-94-94-94-52 0-94 42-94 94 0 52 42 94 94 94 52 0 94-42 94-94z"/>
<glyph glyph-name="view-off" unicode="&#56;" d="M155 166c-32 20-59 51-80 90 38 73 108 119 179 119 19 0 36-3 53-8l10 14c-18 8-39 12-61 12-80 0-157-52-198-134-2-1-2-5 0-6 21-43 51-77 87-99z m299 93c-21 43-51 77-87 99l-10-13c32-21 59-51 80-89-21-41-50-73-85-94-4-2-9-5-12-7-9-3-17-8-26-10-36-12-73-12-109 0l-10-14c1 0 1 0 3-1 20-7 41-11 61-11 21 0 41 4 62 11 10 3 19 7 29 12 5 1 8 5 14 6 39 24 71 60 93 105-3 1-3 5-3 6z m-198-97c51 0 94 43 94 94 0 20-7 41-19 56l-109-143c10-3 22-7 34-7z m-94 94c0-20 7-41 19-56l109 143c-10 3-22 7-34 7-51 0-94-43-94-94z m236 186c-4 3-9 2-12-2l-273-360c-4-3-2-8 1-12 2 0 4 0 5 0 4 0 6 2 7 4l273 360c4 1 2 8-1 10z"/>
<glyph glyph-name="write" unicode="&#33;" d="M469 328c0 3-1 7-3 10l-46 46c-5 5-14 5-19 0l-27-27-157-157c-2-2-4-5-4-9l-5-51c0-3 2-9 4-10 3-4 6-4 10-4 0 0 2 0 2 0l51 5c3 0 7 2 8 4l157 157 28 27c0 2 1 5 1 9z m-32 0l-9-9-27 27 9 9z m-172-173l-29-1 3 29 145 145 27-28z m51-82l-246 0 0 366 181 0 0-72 65 0 0-48 27 27 0 21c0 7-2 14-7 19l-65 71c-5 6-12 9-20 9l-181 0c-15 0-27-12-27-27l0-366c0-15 12-27 27-27l246 0c15 0 27 12 27 27l0 104-27-27z m-214 219l174 0c7 0 14 7 14 13 0 7-7 14-14 14l-174 0c-6 0-13-7-13-14 0-6 7-13 13-13z m0-109c-6 0-13-7-13-14 0-7 7-14 13-14l91 0 3 28z m0 68c-6 0-13-7-13-14 0-7 7-13 13-13l118 0 27 27z m307 104l27-26-9-9-26 27z"/>
<glyph glyph-name="innovate" unicode="&#99;" d="M304 340c0 0-2 0-2 0l-19 5c-7 1-15 1-22 0l-7-2c-10-3-20-3-29 0l-18 5c-4 2-6 5-6 9 2 3 6 5 9 5l19-5c7-2 15-2 22 0l7 1c10 4 20 4 30 0l19-5c4-1 5-5 5-8-3-4-5-5-8-5z m89-299l-274 0c-15 0-30 8-39 20-8 14-10 31-3 45l109 249c2 3 2 5 2 9l0 61c0 12-11 20-21 20l-13 0c-7 0-14 6-14 14 0 9 5 12 14 12l12 0c25 0 47-20 47-48l0-61c0-7-1-14-3-19l-111-247c-3-7-2-14 2-21 3-7 10-10 17-10l275 0c6 0 13 3 17 10 3 7 5 14 1 21l-107 249c-4 7-4 12-4 19l0 61c0 26 21 48 48 48l10 0c7 0 14-5 14-14 0-8-5-14-14-14l-12 0c-11 0-20-10-20-20l0-61c0-4 0-6 2-9l109-249c7-16 5-31-4-45-10-13-23-20-40-20z m-161 96c-17 0-31 13-31 30 0 17 14 31 31 31 17 0 31-14 31-31 0-17-14-30-31-30z m0 47c-10 0-17-8-17-17 0-8 9-17 17-17 10 0 17 9 17 17 0 9-7 17-17 17z m58 26c-10 0-20 8-20 20 0 11 8 21 20 21 10 0 21-9 21-21 0-10-9-20-21-20z m0 27c-3 0-7-3-7-7 0-3 4-6 7-6 4 0 7 3 7 6 2 4-2 7-7 7z m-32 29c-11 0-19 9-19 19 0 10 8 19 19 19 10 0 18-9 18-19 0-10-8-19-18-19z m0 24c-4 0-5-2-5-5 0-3 1-5 5-5 3 0 5 2 5 5 0 3-2 5-5 5z"/>
<glyph glyph-name="lor" unicode="&#101;" d="M304 340c0 0-2 0-2 0l-19 5c-7 1-15 1-22 0l-7-2c-10-3-20-3-29 0l-18 5c-4 2-6 5-6 9 2 3 6 5 9 5l19-5c7-2 15-2 22 0l7 1c10 4 20 4 30 0l19-5c4-1 5-5 5-8-3-4-5-5-8-5z m89-299l-274 0c-15 0-30 8-39 20-8 14-10 31-3 45l109 249c2 3 2 5 2 9l0 61c0 12-11 20-21 20l-13 0c-7 0-14 6-14 14 0 9 5 12 14 12l12 0c25 0 47-20 47-48l0-61c0-7-1-14-3-19l-111-247c-3-7-2-14 2-21 3-7 10-10 17-10l275 0c6 0 13 3 17 10 3 7 5 14 1 21l-107 249c-4 7-4 12-4 19l0 61c0 26 21 48 48 48l10 0c7 0 14-5 14-14 0-8-5-14-14-14l-12 0c-11 0-20-10-20-20l0-61c0-4 0-6 2-9l109-249c7-16 5-31-4-45-10-13-23-20-40-20z m-161 96c-17 0-31 13-31 30 0 17 14 31 31 31 17 0 31-14 31-31 0-17-14-30-31-30z m0 47c-10 0-17-8-17-17 0-8 9-17 17-17 10 0 17 9 17 17 0 9-7 17-17 17z m58 26c-10 0-20 8-20 20 0 11 8 21 20 21 10 0 21-9 21-21 0-10-9-20-21-20z m0 27c-3 0-7-3-7-7 0-3 4-6 7-6 4 0 7 3 7 6 2 4-2 7-7 7z m-32 29c-11 0-19 9-19 19 0 10 8 19 19 19 10 0 18-9 18-19 0-10-8-19-18-19z m0 24c-4 0-5-2-5-5 0-3 1-5 5-5 3 0 5 2 5 5 0 3-2 5-5 5z"/>
<glyph glyph-name="lq" unicode="&#102;" d="M304 340c0 0-2 0-2 0l-19 5c-7 1-15 1-22 0l-7-2c-10-3-20-3-29 0l-18 5c-4 2-6 5-6 9 2 3 6 5 9 5l19-5c7-2 15-2 22 0l7 1c10 4 20 4 30 0l19-5c4-1 5-5 5-8-3-4-5-5-8-5z m89-299l-274 0c-15 0-30 8-39 20-8 14-10 31-3 45l109 249c2 3 2 5 2 9l0 61c0 12-11 20-21 20l-13 0c-7 0-14 6-14 14 0 9 5 12 14 12l12 0c25 0 47-20 47-48l0-61c0-7-1-14-3-19l-111-247c-3-7-2-14 2-21 3-7 10-10 17-10l275 0c6 0 13 3 17 10 3 7 5 14 1 21l-107 249c-4 7-4 12-4 19l0 61c0 26 21 48 48 48l10 0c7 0 14-5 14-14 0-8-5-14-14-14l-12 0c-11 0-20-10-20-20l0-61c0-4 0-6 2-9l109-249c7-16 5-31-4-45-10-13-23-20-40-20z m-161 96c-17 0-31 13-31 30 0 17 14 31 31 31 17 0 31-14 31-31 0-17-14-30-31-30z m0 47c-10 0-17-8-17-17 0-8 9-17 17-17 10 0 17 9 17 17 0 9-7 17-17 17z m58 26c-10 0-20 8-20 20 0 11 8 21 20 21 10 0 21-9 21-21 0-10-9-20-21-20z m0 27c-3 0-7-3-7-7 0-3 4-6 7-6 4 0 7 3 7 6 2 4-2 7-7 7z m-32 29c-11 0-19 9-19 19 0 10 8 19 19 19 10 0 18-9 18-19 0-10-8-19-18-19z m0 24c-4 0-5-2-5-5 0-3 1-5 5-5 3 0 5 2 5 5 0 3-2 5-5 5z"/>
<glyph glyph-name="visible" unicode="&#110;" d="M15 504c-5 0-9-2-11-7 1-3 3-5 5-6 0 0 1 0 1 0 0-1 1-1 2-1 1 0 2-1 3-1 1 0 2 1 3 1 1 0 2 0 2 1 0 0 1 0 1 0 2 1 4 3 5 6-2 5-6 7-11 7z m335-248c0 51-43 94-94 94-51 0-94-43-94-94 0-51 43-94 94-94 51 0 94 43 94 94z"/>
<glyph glyph-name="ulmus" unicode="&#111;" d="M304 340c0 0-2 0-2 0l-19 5c-7 1-15 1-22 0l-7-2c-10-3-20-3-29 0l-18 5c-4 2-6 5-6 9 2 3 6 5 9 5l19-5c7-2 15-2 22 0l7 1c10 4 20 4 30 0l19-5c4-1 5-5 5-8-3-4-5-5-8-5z m89-299l-274 0c-15 0-30 8-39 20-8 14-10 31-3 45l109 249c2 3 2 5 2 9l0 61c0 12-11 20-21 20l-13 0c-7 0-14 6-14 14 0 9 5 12 14 12l12 0c25 0 47-20 47-48l0-61c0-7-1-14-3-19l-111-247c-3-7-2-14 2-21 3-7 10-10 17-10l275 0c6 0 13 3 17 10 3 7 5 14 1 21l-107 249c-4 7-4 12-4 19l0 61c0 26 21 48 48 48l10 0c7 0 14-5 14-14 0-8-5-14-14-14l-12 0c-11 0-20-10-20-20l0-61c0-4 0-6 2-9l109-249c7-16 5-31-4-45-10-13-23-20-40-20z m-161 96c-17 0-31 13-31 30 0 17 14 31 31 31 17 0 31-14 31-31 0-17-14-30-31-30z m0 47c-10 0-17-8-17-17 0-8 9-17 17-17 10 0 17 9 17 17 0 9-7 17-17 17z m58 26c-10 0-20 8-20 20 0 11 8 21 20 21 10 0 21-9 21-21 0-10-9-20-21-20z m0 27c-3 0-7-3-7-7 0-3 4-6 7-6 4 0 7 3 7 6 2 4-2 7-7 7z m-32 29c-11 0-19 9-19 19 0 10 8 19 19 19 10 0 18-9 18-19 0-10-8-19-18-19z m0 24c-4 0-5-2-5-5 0-3 1-5 5-5 3 0 5 2 5 5 0 3-2 5-5 5z"/>
<glyph glyph-name="comply" unicode="&#112;" d="M338 323l-5 6c-2 2-4 2-5 2-29-12-75-49-111-94-12 14-29 22-46 22-2 0-4-1-4-3l-1-5c0-2 0-4 1-5 28-16 46-53 57-75 0-2 1 0 3 0 2 0 3 0 3 0 26 61 62 109 108 146 2 2 2 4 0 6z m-24-282c-10 0-20 3-32 8-9 2-17 7-26 7-9 0-17-3-27-7-11-3-21-8-33-8-3 0-7 0-10 2-15 5-24 18-31 30-5 9-10 17-17 21-7 5-15 7-25 10-16 4-31 9-40 21-8 12-8 27-6 42 0 10 1 21-2 28-2 6-9 13-14 22-8 12-20 24-20 39 0 15 10 29 20 39 7 7 12 16 14 22 2 7 2 18 2 28 0 15-2 30 6 42 9 12 24 17 40 21 10 3 18 5 25 10 7 5 12 12 17 21 9 13 17 25 31 30 3 2 7 2 10 2 11 0 21-3 33-8 10-2 18-7 27-7 9 0 17 3 27 7 11 3 21 8 33 8 3 0 7 0 10-2 15-5 24-18 31-30 5-9 10-17 17-21 7-5 15-7 25-10 16-4 31-9 40-21 8-12 8-27 6-42 0-10-1-21 2-28 2-6 9-13 14-22 8-12 20-24 20-39 0-15-10-29-20-39-7-7-12-16-14-22-2-7-2-18-2-28 0-15 2-30-6-42-9-12-24-17-40-21-10-3-18-5-25-10-7-5-12-12-17-21-9-13-17-25-31-30-3-2-7-2-12-2z m-58 31c12 0 22-4 32-9 12-5 24-8 33-7 8 4 15 14 22 24 7 9 12 19 21 26 8 7 20 8 30 12 12 3 24 7 31 13 5 7 5 21 3 33 0 12-1 22 2 32 3 11 10 19 17 28 9 10 17 20 17 29 0 10-8 18-17 29-7 8-14 17-17 27-3 10-3 22-2 32 0 14 2 26-3 33-5 7-17 10-31 13-10 4-22 6-30 12-9 7-16 16-21 26-7 10-14 22-22 24-9 3-19-2-33-7-10 2-20-2-32-2-12 0-22 4-32 9-12 5-24 8-33 7-8-4-15-14-22-24-7-10-12-21-21-28-10-5-20-8-30-11-14-4-26-7-31-14-5-7-5-21-3-33 0-11 1-22-2-32-3-10-10-19-17-27-9-11-17-21-17-29 0-11 8-19 17-29 7-9 14-17 17-28 3-10 3-22 2-32 0-14-2-26 3-32 5-7 17-11 31-14 10-4 22-5 30-12 9-7 16-15 21-26 7-10 14-22 22-24 9-3 19 2 33 7 10 0 20 4 32 4z m44 18c-8 0-17 4-25 7-7 4-14 5-21 5-7 0-12-3-20-5-9-3-17-7-26-7-3 0-7 0-8 2-12 4-19 16-26 24-3 7-8 12-12 15-2 4-8 6-15 7-10 4-24 7-31 16-7 10-7 22-5 34 0 7 0 15-2 20-1 5-7 10-10 16-7 8-15 18-15 32 0 14 8 22 15 32 5 6 9 11 10 16 2 5 2 12 2 20 0 12-2 24 5 34 7 11 21 14 31 16 7 1 13 3 19 7 5 3 8 8 11 15 7 10 14 20 26 24 4 2 5 2 9 2 8 0 17-4 25-7 7-4 14-5 21-5 7 0 12 3 20 5 9 3 17 7 26 7 3 0 7 0 8-2 12-4 19-16 26-24 3-7 8-12 12-15 2-4 8-6 15-7 10-4 24-7 31-16 7-10 7-22 5-34 0-7 0-15 2-20 1-5 7-10 10-16 7-8 15-18 15-32 0-14-8-22-15-32-5-6-9-12-10-16-2-5-2-12-2-20 0-12 2-24-5-34-7-11-21-14-31-16-7-1-13-3-19-7-5-3-8-8-11-15-7-10-14-20-26-24-2-2-5-2-9-2z m-44 28c9 0 17-4 26-7 8-3 17-7 22-5 7 2 12 10 17 17 5 7 10 15 17 20 7 5 15 7 24 11 8 1 19 5 22 10 3 5 3 13 3 24 0 8-1 17 2 25 2 9 9 16 14 21 7 7 12 15 12 22 0 7-5 14-12 22-5 7-10 14-14 21-3 8-2 17-2 25 0 11 2 19-3 24-3 5-12 7-22 10-9 2-17 6-24 11-7 5-12 12-17 20-5 9-10 15-17 17-5 2-14-2-22-5-9-3-17-7-26-7-9 0-17 4-26 7-8 3-17 7-22 5-7-2-12-10-17-17-5-7-10-15-17-20-7-5-15-9-24-11-8-1-17-5-20-10-5-5-4-13-4-24 0-8 2-17-1-25-2-9-9-16-14-21-7-7-12-15-12-22 0-7 5-14 12-22 5-7 10-14 14-21 3-8 1-17 1-25 0-11-1-19 4-24 3-5 12-7 22-10 8-2 17-6 24-11 7-5 12-12 17-20 5-9 10-15 17-17 5-2 14 2 22 5 7 3 15 7 24 7z"/>
<glyph glyph-name="content" unicode="&#118;" d="M396 60l-268 0c-5 0-9 3-9 8l0 28c0 5 4 8 9 8 5 0 9-3 9-8l0-19 250 0 0 341-18 0c-5 0-9 4-9 9 0 5 4 8 9 8l27 0c5 0 8-3 8-8l0-359c0-5-3-8-8-8z m-63 54l-268 0c-10 0-17 7-17 17l0 359c0 10 7 17 17 17l268 0c10 0 17-7 17-17l0-359c0-10-7-17-17-17z m-251 34l234 0 0 325-234 0z m179 241l-126 0c-5 0-9 4-9 9 0 5 4 8 9 8l128 0c5 0 8-3 8-8 0-5-5-9-10-9z m0-171l-126 0c-5 0-9 4-9 9 0 5 4 9 9 9l128 0c5 0 8-4 8-9 0-5-5-9-10-9z m0 86l-126 0c-5 0-9 3-9 8 0 5 4 9 9 9l128 0c5 0 8-4 8-9 0-5-5-8-10-8z m186-295l-268 0c-5 0-8 3-8 8l0 27c0 5 3 9 8 9 5 0 9-4 9-9l0-18 251 0 0 341-19 0c-5 0-9 3-9 8 0 6 4 9 9 9l27 0c5 0 9-3 9-9l0-358c0-5-4-8-9-8z"/>
<glyph glyph-name="help" unicode="&#119;" d="M256 459c-133 0-241-90-241-200 0-35 12-71 34-104l-27-87c-2-3 0-8 4-12 1-1 5-3 8-3 2 0 2 0 4 0l107 24c34-17 73-26 113-26 129 0 240 94 240 207-1 111-109 201-242 201z m24-309l-46 0 0 45 46 0z m43 130c-4-5-12-12-23-21l-10-8c-5-5-10-10-12-15-2-4-2-11-2-19l-40 0c0 17 1 29 5 36 3 6 10 13 20 22l12 8c3 4 7 5 9 9 3 5 6 12 6 19 0 8-1 15-6 20-6 7-12 10-26 10-12 0-20-3-26-12-5-8-6-15-6-24l-45 0c2 30 12 50 31 62 12 8 27 12 44 12 22 0 43-5 58-17 16-10 23-27 23-50-2-12-6-24-12-32z"/>
<glyph glyph-name="dinosunglasses" unicode="&#70;" d="M471 432c-26 25-123 39-179 25-29-6-62-44-62-83 0-7 0-14 0-19 0-26 0-39-8-48-7-7-15-12-26-17-10-7-20-12-27-20-22-28-41-36-65-28-25 9-27 38-25 81 0 17 0 34-4 47-2 4-5 5-8 7-4 0-9-2-11-5-27-51-37-136 9-203 17-26 41-46 70-61 2-4 3-6 7-6l0-17c0-1-2-17 8-25 5-5 12-9 19-9 22 0 31 17 32 26l4 13 3-6c4-9 12-23 28-23 0 0 1 0 1 0 2 0 5 0 7 0 22 6 22 28 22 35l0 15c12 5 29 17 45 48 8 18 12 37 13 54 4-1 7-1 11-1 8 0 17 3 23 12 6 5 6 12 6 18-2 12-12 19-14 19l-24 17c3 16 9 24 10 29 14-2 43-3 60 2 15 3 24 17 29 29 2 0 3-2 3-2 4 0 7 2 9 4 14 10 60 64 34 92z m-218-323l0-13c0-14-4-19-12-19-2 0-2 0-4 0-10 0-15 12-15 12l-5 10-2 2 5 0c9 1 17 3 26 7 3 1 5 1 7 1 0 0 0 2 0 0z m90 140c2-2 7-5 7-10 0-2 0-3-2-7-7-10-17-5-17-5l-5 2-5 1c0 2 0 4 0 6 0 3 0 5 0 5l-2 18c0 0 0 2 2 4 0 0 0 0 0 2l2 0z m92 108c0 0 0-2 0 0l-10 13-9 12c-1 2-5 4-6 2l-24-15-14 20c-2 2-5 4-7 2l-32-19c-2-2-4-5-2-7 2-1 5-3 7-1l29 17 14-23c1-1 5-3 6-1l24 15 5-8 4-6c0-1-2-3-2-6-3-11-10-24-22-28-21-5-61 0-61 0l-4 0-2-1c-5-7-12-23-17-47-1-3-1-6-1-8 0-3-2-5-2-5l2-21c0 0 0-1 0-5 0-1 0-5 0-8 0-17-2-41-12-63-16-31-31-38-41-43l-4-2c-1-2-3-2-5-2-10-3-20-6-31-8-3 0-5-2-8-2-2 0-2 0-3 0 0 0-2 0-2 0l0 2 2 3 8 33c0 3-2 5-3 7-4 0-5-2-7-4l-9-36-1-8-2-9-5-17c0 0-4-13-19-13-3 0-7 1-9 3-3 3-5 12-3 15l0 50c0 3-3 5-5 5-4 0-5-2-5-5l0-17c0 0-2 0-2 0-2 0-3 1-3 1-28 16-48 35-63 58-41 62-31 134-14 173 0-9 0-17 0-27 0-38-2-84 36-96 44-14 73 22 82 32 5 6 13 11 22 16 10 5 20 12 29 19 13 13 13 34 12 58 0 6 0 12 0 18 0 33 27 63 49 69 55 13 145-2 166-21 12-10-12-44-26-61z m-148-104l-26 27c-2 2-5 2-7 0-1-2-1-5 0-7l26-27c0 0 3-4 3-9 0-1-1-5-3-7-9-8-15-3-17-3l-46 27c-2 2-5 0-7-1-2-2 0-6 2-7l46-28c1-1 7-3 10-3 5 0 12 2 19 9 5 5 7 10 7 13 1 9-6 16-7 16z m13 174c7-9 29-46 70-40 70 12 57 57 57 57 0 0 5-34 42-34 16 10 19 18 19 37-15 14-61-3-61-3 0 0-82 3-127-17z m-288 76c0 0 0 1 1 2 1 0 6 2 6 2"/>
<glyph glyph-name="hax-icons" unicode="&#71;" d="M360 56l-208 0 0 464 208 0z m-192 16l176 0 0 432-176 0z m252 380l-8 0 0 24-32 0 0 8 40 0z m0-288l-8 0 0 56 8 0z m0 96l-8 0 0 56 8 0z m0 96l-8 0 0 56 8 0z m0-264l-40 0 0 8 32 0 0 24 8 0z m-288 0l-40 0 0 32 8 0 0-24 32 0z m-32 72l-8 0 0 56 8 0z m0 96l-8 0 0 56 8 0z m0 96l-8 0 0 56 8 0z m0 96l-8 0 0 32 40 0 0-8-32 0z"/>
<glyph glyph-name="hax-icons-1" unicode="&#74;" d="M440 488l16 0 0-400-16 0z m-376-192l384 0 0-16-384 0z m62-115l-72 107 72 107 13-9-65-98 65-98z"/>
<glyph glyph-name="hax-icons-2" unicode="&#75;" d="M488 184l-464 0 0 208 464 0z m-448 16l432 0 0 176-432 0z m412-76l-32 0 0 8 24 0 0 32 8 0z m-72 0l-56 0 0 8 56 0z m-96 0l-56 0 0 8 56 0z m-96 0l-56 0 0 8 56 0z m-96 0l-32 0 0 40 8 0 0-32 24 0z m-24 288l-8 0 0 40 32 0 0-8-24 0z m312 32l-56 0 0 8 56 0z m-96 0l-56 0 0 8 56 0z m-96 0l-56 0 0 8 56 0z m264-32l-8 0 0 32-24 0 0 8 32 0z"/>
<glyph glyph-name="hax-icons-3" unicode="&#77;" d="M56 488l16 0 0-400-16 0z m8-192l384 0 0-16-384 0z m322-115l-13 9 65 98-65 98 13 9 72-107z"/>
<glyph glyph-name="hax-icons-4" unicode="&#57;" d="M136 88l-80 0 0 400 80 0 0-16-64 0 0-368 64 0z m-72 208l384 0 0-16-384 0z m322-115l-13 9 65 98-65 98 13 9 72-107z"/>
<glyph glyph-name="hax-icons-5" unicode="&#34;" d="M456 88l-80 0 0 16 64 0 0 368-64 0 0 16 80 0z m-392 208l384 0 0-16-384 0z m62-115l-72 107 72 107 13-9-65-98 65-98z"/>
</font>
</defs>
</svg>
