<?xml version="1.0" encoding="utf-8"?>
<!-- Generator: Adobe Illustrator 16.0.0, SVG Export Plug-In . SVG Version: 6.00 Build 0)  -->
<!DOCTYPE svg PUBLIC "-//W3C//DTD SVG 1.1//EN" "http://www.w3.org/Graphics/SVG/1.1/DTD/svg11.dtd">
<svg version="1.1" id="Layer_1" xmlns="http://www.w3.org/2000/svg" xmlns:xlink="http://www.w3.org/1999/xlink" x="0px" y="0px"
	 width="16px" height="16px" viewBox="0 0 16 16" enable-background="new 0 0 16 16" xml:space="preserve">
<g>
	<path fill="#BEBEBE" d="M2.812,3.288c0,0.235-0.238,0.426-0.532,0.426H1.359c-0.293,0-0.532-0.19-0.532-0.426V2.552
		c0-0.235,0.238-0.425,0.532-0.425H2.28c0.293,0,0.532,0.19,0.532,0.425V3.288z M16,1.425C16,1.19,15.762,1,15.468,1H0.532
		C0.238,1,0,1.19,0,1.425v3.149C0,4.81,0.238,5,0.532,5h14.936C15.762,5,16,4.81,16,4.575V1.425z"/>
	<g>
		<path fill="#BEBEBE" d="M2.812,8.288c0,0.235-0.238,0.426-0.532,0.426H1.359c-0.293,0-0.531-0.19-0.531-0.426V7.552
			c0-0.235,0.238-0.425,0.531-0.425H2.28c0.294,0,0.532,0.19,0.532,0.425V8.288z M16,6.425C16,6.19,15.762,6,15.468,6H0.532
			C0.238,6,0,6.19,0,6.425v3.149C0,9.81,0.238,10,0.532,10h14.936C15.762,10,16,9.81,16,9.574V6.425z"/>
	</g>
	<g>
		<path fill="#BEBEBE" d="M2.812,13.288c0,0.235-0.238,0.426-0.532,0.426H1.359c-0.293,0-0.531-0.19-0.531-0.426v-0.736
			c0-0.235,0.238-0.425,0.531-0.425H2.28c0.294,0,0.532,0.189,0.532,0.425V13.288z M16,11.426C16,11.19,15.762,11,15.468,11H0.532
			C0.238,11,0,11.19,0,11.426v3.148C0,14.81,0.238,15,0.532,15h14.936C15.762,15,16,14.81,16,14.574V11.426z"/>
	</g>
</g>
</svg>
