<svg xmlns="http://www.w3.org/2000/svg" viewBox="0 0 30 30" enable-background="new 0 0 30 30"><path d="M14.4 6.2c1 0 1.9.1 2.6.4.8.2 1.4.6 1.8 1L24 6.4l.2.3L21.8 17c-.1.3-.2.8-.3 1.3s-.2.9-.2 1.2c0 .6.1 1.1.4 1.3.3.2.8.4 1.5.4.3 0 .7-.1 1.1-.2.4-.1.7-.2.9-.3l-.2 1.4c-1.1.4-2 .8-2.6 1-.7.2-1.4.3-2.3.3-1.1 0-2.1-.2-2.7-.7-.7-.5-1.2-1-1.4-1.7h-.1c-.4.3-.8.6-1.1.9-.4.3-.8.6-1.3.8l-1.5.6c-.5.2-1.1.2-1.7.2-1.9 0-3.4-.6-4.4-1.7-1-1.1-1.5-2.7-1.5-4.7 0-1.5.3-3 .8-4.3.5-1.3 1.3-2.5 2.2-3.5.9-1 2-1.8 3.2-2.4 1.1-.4 2.4-.7 3.8-.7m-1.6 14.9c.5 0 1-.2 1.5-.5s.9-.7 1.3-1.1l2.1-9.1c0-.2 0-.5-.1-.9-.1-.3-.2-.6-.4-.9-.2-.3-.5-.5-.8-.7-.3-.2-.7-.2-1.2-.2-.7 0-1.4.3-2 .8-.6.5-1.2 1.2-1.6 2.1-.5.9-.8 1.9-1.1 3-.3 1.2-.4 2.3-.4 3.5 0 .5 0 1.1.1 1.5.1.5.2.9.4 1.2.2.3.5.6.8.8.5.4.9.5 1.4.5M14.4 4.2c-1.7 0-3.3.4-4.8 1.1-1.4.6-2.7 1.6-3.8 2.8-1.1 1.2-1.9 2.6-2.6 4.1-.6 1.6-1 3.3-1 5.1 0 2.5.7 4.5 2 6 1.4 1.6 3.4 2.4 5.9 2.4.8 0 1.6-.1 2.3-.3.6-.2 1.2-.4 1.8-.7.4-.2.8-.5 1.2-.7.2.2.5.4.8.6 1 .7 2.3 1 3.8 1 1.1 0 2.1-.2 2.9-.5.7-.2 1.6-.6 2.7-1 .6-.2 1.1-.8 1.2-1.4l.3-1.4c.1-.2.1-.4.1-.6 0-1.1-.9-2-2-2h-.1c-.3 0-.5.1-.7.2 0 0-.2.1-.7.2-.2.1-.4.1-.5.1 0-.1 0-.3.1-.5.1-.5.2-.9.3-1.2l2.5-10.3c.2-.6 0-1.3-.4-1.8l-.2-.3c-.4-.4-.9-.7-1.5-.7h-.4l-4.3.9c-.5-.3-1.1-.5-1.7-.7-.9-.3-2-.4-3.2-.4zm-1.6 14.9h-.3V19c0-.1-.1-.2-.2-.5s-.1-.7-.1-1.2c0-1 .1-2.1.3-3.1.2-1 .5-1.8.9-2.5s.8-1.2 1.2-1.5c.3-.3.6-.3.7-.3h.4v.4l-1.9 8.2c-.2.2-.4.3-.6.5-.1.1-.3.1-.4.1z"/></svg>