<svg xmlns="http://www.w3.org/2000/svg" viewBox="0 0 30 30"><path d="M15 .6C7.2.6.8 6.9.8 14.7c0 8 6.5 14.7 14.2 14.7s14.2-6.7 14.2-14.7C29.2 6.9 22.8.6 15 .6zm0 27.6C8 28.2 2 22 2 14.7c0-7.1 5.8-13 13-13 7.1 0 13 5.8 13 13 0 7.4-6 13.5-13 13.5z"/><circle cx="15" cy="8.5" r="1.5"/><path d="M15 3.4C8.7 3.4 3.7 8.5 3.7 14.8c0 6.2 5 11.8 11.3 11.8S26.3 21 26.3 14.8c0-6.3-5-11.4-11.3-11.4zm6.6 11.4c-.1.4-.5.7-.9.7h-.2l-4.7-1v2.6l3.2 6.3c.2.4 0 1-.4 1.2-.1.1-.3.1-.4.1-.3 0-.6-.2-.8-.5L15 19.3l-2.5 4.9c-.2.3-.5.5-.8.5-.1 0-.3 0-.4-.1-.4-.2-.6-.8-.4-1.2l3.2-6.3v-2.6l-4.7 1h-.2c-.4 0-.8-.3-.9-.7-.1-.5.2-1 .7-1.1l5-1v-1.1c-1.4-.4-2.4-1.6-2.4-3.1 0-1.8 1.5-3.3 3.3-3.3s3.3 1.5 3.3 3.3c0 1.5-1 2.8-2.4 3.1v1.1l5 1c.6.1.9.6.8 1.1z"/></svg>