<svg xmlns="http://www.w3.org/2000/svg" viewBox="0 0 30 30" enable-background="new 0 0 30 30"><path d="M4.2 8C2.1 8 .4 6.3.4 4.2S2.1.4 4.2.4 8 2.1 8 4.2 6.3 8 4.2 8zm0-5.8c-1.1 0-2 .9-2 2s.9 2 2 2 2-.9 2-2-.9-2-2-2zM15 8c-2.1 0-3.8-1.7-3.8-3.8S12.9.4 15 .4c2.1 0 3.8 1.7 3.8 3.8S17.1 8 15 8zm0-5.8c-1.1 0-2 .9-2 2s.9 2 2 2 2-.9 2-2-.9-2-2-2zM25.8 8C23.7 8 22 6.3 22 4.2S23.7.4 25.8.4s3.8 1.7 3.8 3.8S27.9 8 25.8 8zm0-5.8c-1.1 0-2 .9-2 2s.9 2 2 2 2-.9 2-2-.9-2-2-2zM4.2 18.8C2.1 18.8.4 17.1.4 15c0-2.1 1.7-3.8 3.8-3.8S8 12.9 8 15c0 2.1-1.7 3.8-3.8 3.8zm0-5.8c-1.1 0-2 .9-2 2s.9 2 2 2 2-.9 2-2-.9-2-2-2zM15 18.8c-2.1 0-3.8-1.7-3.8-3.8 0-2.1 1.7-3.8 3.8-3.8 2.1 0 3.8 1.7 3.8 3.8 0 2.1-1.7 3.8-3.8 3.8zm0-5.8c-1.1 0-2 .9-2 2s.9 2 2 2 2-.9 2-2-.9-2-2-2zM25.8 18.8c-2.1 0-3.8-1.7-3.8-3.8 0-2.1 1.7-3.8 3.8-3.8s3.8 1.7 3.8 3.8c0 2.1-1.7 3.8-3.8 3.8zm0-5.8c-1.1 0-2 .9-2 2s.9 2 2 2 2-.9 2-2-.9-2-2-2zM4.2 29.6c-2.1 0-3.8-1.7-3.8-3.8S2.1 22 4.2 22 8 23.7 8 25.8s-1.7 3.8-3.8 3.8zm0-5.8c-1.1 0-2 .9-2 2s.9 2 2 2 2-.9 2-2-.9-2-2-2zM15 29.6c-2.1 0-3.8-1.7-3.8-3.8S12.9 22 15 22c2.1 0 3.8 1.7 3.8 3.8s-1.7 3.8-3.8 3.8zm0-5.8c-1.1 0-2 .9-2 2s.9 2 2 2 2-.9 2-2-.9-2-2-2zM25.8 29.6c-2.1 0-3.8-1.7-3.8-3.8s1.7-3.8 3.8-3.8 3.8 1.7 3.8 3.8-1.7 3.8-3.8 3.8zm0-5.8c-1.1 0-2 .9-2 2s.9 2 2 2 2-.9 2-2-.9-2-2-2z"/></svg>