<svg xmlns="http://www.w3.org/2000/svg" viewBox="0 0 30 30"><path d="M22.6 12.2l1.4.8c.4.2.9.2 1.3 0l2.1-1.2c.4-.2.6-.6.6-1.1V8.3c0-.5-.2-.9-.6-1.1L25.2 6c-.4-.2-.9-.2-1.3 0l-2.1 1.2c-.4.2-.6.6-.6 1.1v1.6c0 .5-.2.9-.6 1.1l-3 1.8c-.4.2-.9.2-1.3 0s-.6-.6-.6-1.1V8c0-.5.2-.9.6-1.1l1.4-.8c.4-.2.6-.6.6-1.1V2.6c0-.5-.2-.9-.6-1.1L15.6.3c-.4-.2-.9-.2-1.3 0l-2.1 1.2c-.4.2-.6.6-.6 1.1V5c0 .5.2.9.6 1.1l1.4.8c.4.2.6.6.6 1.1v3.7c0 .5-.2.9-.6 1.1-.4.2-.9.2-1.3 0l-3-1.8c-.3-.2-.6-.6-.6-1.1V8.3c0-.5-.2-.9-.6-1.1L6 6c-.4-.2-.9-.2-1.2 0L2.7 7.2c-.4.3-.7.7-.7 1.1v2.4c0 .5.2.9.6 1.1L4.8 13c.4.2.9.2 1.3 0l1.4-.8c.4-.2.9-.2 1.3 0l3 1.8c.4.2.6.6.6 1.1 0 .5-.2.9-.6 1.1l-3 1.8c-.4.2-.9.2-1.3 0L6 17.1c-.4-.2-.9-.2-1.3 0l-2.1 1.2c-.4.2-.6.6-.6 1.1v2.4c0 .5.2.9.6 1.1l2.1 1.2c.4.2.9.2 1.3 0l2.1-1.2c.4-.2.6-.6.6-1.1v-1.6c0-.5.2-.9.6-1.1l3-1.7c.4-.2.9-.2 1.3 0s.6.6.6 1.1V22c0 .5-.2.9-.6 1.1l-1.4.8c-.4.2-.6.6-.6 1.1v2.4c0 .5.2.9.6 1.1l2.1 1.2c.4.2.9.2 1.3 0l2.1-1.2c.4-.2.6-.6.6-1.1V25c0-.5-.2-.9-.6-1.1l-1.4-.8c-.4-.2-.6-.6-.6-1.1v-3.5c0-.5.2-.9.6-1.1.4-.2.9-.2 1.3 0l3 1.7c.4.2.6.6.6 1.1v1.6c0 .5.2.9.6 1.1l2.1 1.2c.4.2.9.2 1.3 0l2.1-1.2c.4-.2.6-.6.6-1.1v-2.4c0-.5-.2-.9-.6-1.1l-2.1-1.2c-.4-.2-.9-.2-1.3 0l-1.4.8c-.4.2-.9.2-1.3 0l-3-1.7c-.4-.2-.6-.6-.6-1.1 0-.5.2-.9.6-1.1l3-1.7c.5-.3 1-.3 1.4-.1zM7.4 10.3c0 .2-.1.5-.3.6l-.4.2-.9.5c-.2.1-.5.1-.7 0l-1.3-.7c-.2-.1-.3-.3-.3-.6V8.8c0-.2.1-.5.3-.6l1.3-.7c.2-.1.5-.1.7 0l1.2.7c.2.1.3.3.3.6v1.5zm19.2 9.6v1.5c0 .2-.1.5-.3.6l-1.3.7c-.2.1-.5.1-.7 0L23 22c-.2-.1-.3-.3-.3-.6v-1.5c0-.2.1-.5.3-.6l.4-.2.9-.5c.2-.1.5-.1.7 0l1.3.7c.1.1.3.3.3.6zM23 8.2l1.3-.7c.2-.1.5-.1.7 0l1.3.7c.2.1.3.3.3.6v1.5c0 .2-.1.5-.3.6l-1.3.7c-.2.1-.5.1-.7 0l-1-.6-.3-.1c-.2-.1-.3-.3-.3-.6V8.8c-.1-.2.1-.5.3-.6zm-9.6-5.7l1.3-.7c.2-.1.5-.1.7 0l1.3.7c.1.1.3.3.3.6v1.5c0 .2-.1.5-.3.6l-.9.5-.4.2c-.2.1-.5.1-.7 0l-.4-.2-.9-.5c-.2-.2-.4-.4-.4-.6V3.1c0-.3.2-.5.4-.6zm-6 17.8v1.1c0 .2-.1.5-.3.6l-1.3.7c-.2.1-.5.1-.7 0L3.8 22c-.2-.1-.3-.3-.3-.6v-1.5c0-.2.1-.5.3-.6l1.3-.7c.2-.1.5-.1.7 0l.9.5.3.2c.2.1.3.3.3.6v.4zm9.2 7.2l-1.3.7c-.2.1-.5.1-.7 0l-1.3-.7c-.2-.1-.3-.3-.3-.6v-1.5c0-.2.1-.5.3-.6l.9-.5.4-.2c.2-.1.5-.1.7 0l.4.2.9.5c.2.1.3.3.3.6v1.5c.1.3-.1.5-.3.6z"/></svg>