<svg xmlns="http://www.w3.org/2000/svg" viewBox="0 0 30 30"><path d="M12.9 9.9l-1.1-1-1.1 1.1 1 1 1.2 1.2L14 11l3.3-3.2-1.2-1.2"/><path d="M16.3 14.6h-7c-.3 0-.5-.2-.5-.5V7c0-.3.2-.5.5-.5h4.4c.3 0 .5.2.5.5s-.2.5-.5.5H9.8v6h6v-3.2c0-.3.2-.5.5-.5s.5.2.5.5V14c0 .3-.2.6-.5.6zM16.3 24.7h-7c-.3 0-.5-.2-.5-.5v-7c0-.3.2-.5.5-.5h7c.3 0 .5.2.5.5v7c0 .3-.2.5-.5.5zm-6.5-1h6v-6h-6v6z"/><path d="M24.3 6.6l-4-4.5c-.4-.4-.9-.7-1.5-.7H7.4c-1.1 0-2 .9-2 2v22.9c0 1.1.9 2 2 2h15.4c1.1 0 2-.9 2-2V7.9c0-.5-.2-.9-.5-1.3zm-1.5 19.7H7.4V3.4h11.3v4.5h4v18.4z"/></svg>