<svg id="Assignments" xmlns="http://www.w3.org/2000/svg" viewBox="0 0 30 30"><style>.st0{fill:none;}</style><path class="st0" d="M24.4 6.7h-5V1.8H5.6v26.4h2.7v-3.7c0-.2.2-.4.4-.4h6.2c.2 0 .4.2.4.4v3.7h9.2l-.1-21.5-5-4.9 5 4.9zm-9.2 14.8c0 .2-.2.4-.4.4H8.7c-.2 0-.4-.2-.4-.4v-6.2c0-.2.2-.4.4-.4h6.2c.2 0 .4.2.4.4v6.2zm0-9c0 .2-.2.4-.4.4H8.7c-.2 0-.4-.2-.4-.4V6.4c0-.2.2-.4.4-.4h3.8c.2 0 .4.2.4.4s-.2.4-.4.4H9v5.4h5.4V9.3c0-.2.2-.4.4-.4s.4.2.4.4v3.2zm-2.4-2.6l-1 1-1-1-.9-.9 1-1 .9.9L14.7 6l1 1-2.9 2.9z"/><path class="st0" d="M9 15.7h5.4v5.4H9zM9 24.9h5.4v3.3H9z"/><path d="M11.8 8.9l-.9-.9-1 1 .9.9 1 1 1-1L15.7 7l-1-1z"/><path d="M14.8 8.9c-.2 0-.4.2-.4.4v2.8H9V6.7h3.5c.2 0 .4-.2.4-.4s-.2-.3-.4-.3H8.7c-.2 0-.4.2-.4.4v6.2c0 .2.2.4.4.4h6.2c.2 0 .4-.2.4-.4V9.3c-.1-.2-.2-.4-.5-.4zM14.8 14.9H8.7c-.2 0-.4.2-.4.4v6.2c0 .2.2.4.4.4h6.2c.2 0 .4-.2.4-.4v-6.2c-.1-.2-.2-.4-.5-.4zm-.3 6.2H9v-5.4h5.4v5.4z"/><path d="M25.5 5.6l-5-4.9c-.3-.3-.7-.4-1.1-.4H5.6c-.8 0-1.5.7-1.5 1.5v26.4c0 .8.7 1.5 1.5 1.5h18.9c.8 0 1.5-.7 1.5-1.5V6.7c-.1-.4-.2-.8-.5-1.1zm-11 22.6H9v-3.3h5.4v3.3zm9.9 0h-9.2v-3.7c0-.2-.2-.4-.4-.4H8.7c-.2 0-.4.2-.4.4v3.7H5.6V1.8h13.9v4.9h5v21.5z"/></svg>