<svg xmlns="http://www.w3.org/2000/svg" viewBox="0 0 30 30" enable-background="new 0 0 30 30"><path d="M17.8 10.1h-.1l-1.1-.3c-.4-.1-.9-.1-1.3 0l-.4.1c-.6.2-1.2.2-1.7 0l-1.1-.3c-.2-.1-.3-.3-.3-.5.1-.2.3-.3.5-.3l1.1.3c.4.1.9.1 1.3 0l.4-.1c.6-.2 1.2-.2 1.8 0l1.1.3c.2.1.3.3.3.5-.2.2-.3.3-.5.3zM23 27.6H7c-.9 0-1.8-.5-2.3-1.2-.5-.8-.6-1.8-.2-2.6l6.4-14.6c.1-.2.1-.3.1-.5V5.1c0-.7-.6-1.2-1.2-1.2H9c-.4 0-.8-.3-.8-.8s.3-.7.8-.7h.7c1.5 0 2.8 1.2 2.8 2.8v3.6c0 .4-.1.8-.2 1.1L5.8 24.4c-.2.4-.1.8.1 1.2.2.4.6.6 1 .6H23c.4 0 .8-.2 1-.6.2-.4.3-.8.1-1.2L17.8 9.8c-.2-.4-.2-.7-.2-1.1V5.1c0-1.5 1.2-2.8 2.8-2.8h.6c.4 0 .8.3.8.8s-.3.8-.8.8h-.7c-.7 0-1.2.6-1.2 1.2v3.6c0 .2 0 .3.1.5l6.4 14.6c.4.9.3 1.8-.2 2.6-.6.8-1.4 1.2-2.4 1.2zM13.6 22c-1 0-1.8-.8-1.8-1.8s.8-1.8 1.8-1.8 1.8.8 1.8 1.8-.8 1.8-1.8 1.8zm0-2.8c-.6 0-1 .5-1 1s.5 1 1 1c.6 0 1-.5 1-1s-.4-1-1-1zM17 17.7c-.6 0-1.2-.5-1.2-1.2 0-.6.5-1.2 1.2-1.2.6 0 1.2.5 1.2 1.2 0 .6-.5 1.2-1.2 1.2zm0-1.6c-.2 0-.4.2-.4.4s.2.4.4.4.4-.2.4-.4c.1-.2-.1-.4-.4-.4zM15.1 14.4c-.6 0-1.1-.5-1.1-1.1 0-.6.5-1.1 1.1-1.1.6 0 1.1.5 1.1 1.1 0 .6-.5 1.1-1.1 1.1zm0-1.4c-.2 0-.3.1-.3.3s.1.3.3.3c.2 0 .3-.1.3-.3s-.1-.3-.3-.3z"/></svg>