<svg xmlns="http://www.w3.org/2000/svg" viewBox="0 0 30 30"><path d="M28.4 22.9c.6-1 .9-2.2.9-3.3 0-2.6-1.7-5-4.4-6.2 0-5.6-5.5-10.2-12.2-10.2C6.1 3.2.6 7.7.6 13.4c0 1.7.5 3.4 1.5 5L1 22c-.2.5 0 1.1.3 1.5.4.4.9.6 1.5.5l4.7-1.1c1.6.7 3.5 1.1 5.3 1.1.5 0 1.1 0 1.6-.1 1.6 1.9 4.1 3 6.6 3 1.2 0 2.4-.2 3.5-.7l2.9.7h.3c.4 0 .7-.2 1-.4.3-.3.4-.8.3-1.3l-.6-2.3zm-1.9.2l.5 1.6-2.2-.5c-.2 0-.4 0-.6.1-.9.4-2 .7-3 .7-1.8 0-3.6-.7-4.8-1.9 4-1.1 7.2-4.1 8-7.8 1.9.9 3.2 2.6 3.2 4.4 0 .9-.3 1.8-.9 2.6-.3.2-.3.5-.2.8zM4.1 18.5c.1-.3 0-.6-.1-.8-.9-1.3-1.4-2.8-1.4-4.3 0-4.6 4.6-8.3 10.2-8.3S23 8.8 23 13.3c-.6-.1-1.3-.2-1.9-.2-4.3 0-7.8 2.9-7.8 6.5 0 .8.2 1.6.5 2.4-.3 0-.7.1-1 .1-1.7-.1-3.3-.4-4.8-1.1-.2-.1-.4-.1-.6-.1l-4.3 1 1-3.4zm19.3-3.7c-.7 3.5-3.8 6.4-7.8 7.4-.2-.2-.4-.3-.7-.3-.4-.7-.6-1.5-.6-2.3 0-3.1 3.1-5.6 6.8-5.6.7 0 1.3.1 1.9.2.1.3.2.5.4.6z"/></svg>