<svg xmlns="http://www.w3.org/2000/svg" viewBox="0 0 30 30" enable-background="new 0 0 30 30"><path d="M27.7 1H2.3c-.5 0-.9.4-.9.9v2.4c0 .5.4.9.9.9h25.4c.5 0 .9-.4.9-.9V1.9c0-.5-.4-.9-.9-.9zM27.7 6.9H2.3c-.5 0-.9.4-.9.9v20.3c0 .5.4.9.9.9h25.4c.5 0 .9-.4.9-.9V7.8c0-.5-.4-.9-.9-.9zm-5.5 10.6H18v-4.2h4.2v4.2zm.9-4.2h3.7v4.2h-3.7v-4.2zm-6 4.2h-4.2v-4.2h4.2v4.2zm-5.1 0H7.8v-4.2H12v4.2zm-5.1-4.2v4.2H3.2v-4.2h3.7zm-3.7 5.1h3.7v4.2H3.2v-4.2zm4.6 0H12v4.2H7.8v-4.2zm5.1 0h4.2v4.2h-4.2v-4.2zm5.1 0h4.2v4.2H18v-4.2zm5.1 4.2v-4.2h3.7v4.2h-3.7zm3.7-10.2h-3.7V8.7h3.7v3.7zm-4.6 0H18V8.7h4.2v3.7zm-5.1 0h-4.2V8.7h4.2v3.7zm-5.1 0H7.8V8.7H12v3.7zM3.2 23.5h3.7v3.7H3.2v-3.7zm4.6 0H12v3.7H7.8v-3.7zm5.1 0h4.2v3.7h-4.2v-3.7zm5.1 0h4.2v3.7H18v-3.7z"/></svg>