<svg xmlns="http://www.w3.org/2000/svg" viewBox="0 0 30 30"><path d="M19.8 11.1l-.3-.4c-.1-.1-.2-.1-.3-.1-1.7.7-4.4 2.9-6.5 5.5-.7-.8-1.7-1.3-2.7-1.3-.1 0-.2.1-.2.2l-.1.3c0 .1 0 .2.1.3 1.6.9 2.7 3.1 3.3 4.4 0 .1.1 0 .2 0h.2c1.5-3.6 3.6-6.4 6.3-8.6.1-.1.1-.2 0-.3z"/><path d="M18.4 27.6c-.6 0-1.2-.2-1.9-.5-.5-.1-1-.4-1.5-.4s-1 .2-1.6.4c-.6.2-1.2.5-1.9.5-.2 0-.4 0-.6-.1-.9-.3-1.4-1.1-1.8-1.8-.3-.5-.6-1-1-1.2-.4-.3-.9-.4-1.5-.6-.9-.2-1.8-.5-2.3-1.2-.5-.7-.5-1.6-.4-2.5 0-.6.1-1.2-.1-1.6-.1-.4-.5-.8-.8-1.3-.5-.7-1.2-1.4-1.2-2.3 0-.9.6-1.7 1.2-2.3.4-.4.7-.9.8-1.3.1-.4.1-1 .1-1.6 0-.9-.1-1.8.4-2.5s1.4-1 2.3-1.2c.6-.2 1.1-.3 1.5-.6.4-.3.7-.7 1-1.2.5-.8 1-1.5 1.8-1.8.2-.1.4-.1.6-.1.6 0 1.2.2 1.9.5.6.1 1.1.4 1.6.4s1-.2 1.6-.4c.6-.2 1.2-.5 1.9-.5.2 0 .4 0 .6.1.9.3 1.4 1.1 1.8 1.8.3.5.6 1 1 1.2.4.3.9.4 1.5.6.9.2 1.8.5 2.3 1.2.5.7.5 1.6.4 2.5 0 .6-.1 1.2.1 1.6.1.4.5.8.8 1.3.5.7 1.2 1.4 1.2 2.3 0 .9-.6 1.7-1.2 2.3-.4.4-.7.9-.8 1.3-.1.4-.1 1-.1 1.6 0 .9.1 1.8-.4 2.5s-1.4 1-2.3 1.2c-.6.2-1.1.3-1.5.6-.4.3-.7.7-1 1.2-.5.8-1 1.5-1.8 1.8-.2.1-.4.1-.7.1zM15 25.8c.7 0 1.3.2 1.9.5.7.3 1.4.5 1.9.4.5-.2.9-.8 1.3-1.4.4-.5.7-1.1 1.2-1.5.5-.4 1.2-.5 1.8-.7.7-.2 1.4-.4 1.8-.8.3-.4.3-1.2.2-1.9 0-.7-.1-1.3.1-1.9.2-.6.6-1.1 1-1.6.5-.6 1-1.2 1-1.7 0-.6-.5-1.1-1-1.7-.4-.5-.8-1-1-1.6-.2-.6-.2-1.3-.1-1.9 0-.8.1-1.5-.2-1.9-.3-.4-1-.6-1.8-.8-.6-.2-1.3-.3-1.8-.7-.5-.4-.9-.9-1.2-1.5-.4-.6-.8-1.3-1.3-1.4-.5-.2-1.1.1-1.9.4-.6-.1-1.2.1-1.9.1s-1.3-.2-1.9-.5c-.7-.3-1.4-.5-1.9-.4-.5.2-.9.8-1.3 1.4-.4.6-.7 1.2-1.2 1.6-.6.3-1.2.5-1.8.7-.8.2-1.5.4-1.8.8-.3.4-.3 1.2-.2 1.9 0 .7.1 1.3-.1 1.9-.2.6-.6 1.1-1 1.6-.5.6-1 1.2-1 1.7 0 .6.5 1.1 1 1.7.4.5.8 1 1 1.6.2.6.2 1.3.1 1.9 0 .8-.1 1.5.2 1.9.3.4 1 .6 1.8.8.6.2 1.3.3 1.8.7.5.4.9.9 1.2 1.5.4.6.8 1.3 1.3 1.4.5.2 1.1-.1 1.9-.4.6 0 1.2-.2 1.9-.2z"/><path d="M17.6 24.7c-.5 0-1-.2-1.5-.4-.4-.2-.8-.3-1.2-.3s-.7.2-1.2.3c-.5.2-1 .4-1.5.4-.2 0-.4 0-.5-.1-.7-.2-1.1-.9-1.5-1.4-.2-.4-.5-.7-.7-.9-.1-.2-.5-.3-.9-.4-.6-.2-1.4-.4-1.8-.9-.4-.6-.4-1.3-.3-2 0-.4 0-.9-.1-1.2-.1-.3-.4-.6-.6-.9-.4-.5-.9-1.1-.9-1.9s.5-1.3.9-1.9c.3-.3.5-.6.6-.9.1-.3.1-.7.1-1.2 0-.7-.1-1.4.3-2 .4-.6 1.2-.8 1.8-.9.4-.1.8-.2 1.1-.4.3-.2.5-.5.7-.9.4-.6.8-1.2 1.5-1.4.2-.1.3-.1.5-.1.5 0 1 .2 1.5.4.4.2.8.3 1.2.3s.7-.2 1.2-.3c.5-.2 1-.4 1.5-.4.2 0 .4 0 .5.1.7.2 1.1.9 1.5 1.4.2.4.5.7.7.9.1.2.5.3.9.4.6.2 1.4.4 1.8.9.4.6.4 1.3.3 2 0 .4 0 .9.1 1.2.1.3.4.6.6.9.4.5.9 1.1.9 1.9s-.5 1.3-.9 1.9c-.3.3-.5.7-.6.9-.1.3-.1.7-.1 1.2 0 .7.1 1.4-.3 2-.4.6-1.2.8-1.8.9-.4.1-.8.2-1.1.4-.3.2-.5.5-.7.9-.4.6-.8 1.2-1.5 1.4-.1.1-.3.1-.5.1zM15 23.1c.5 0 1 .2 1.5.4s1 .4 1.3.3c.4-.1.7-.6 1-1 .3-.4.6-.9 1-1.2.4-.3.9-.4 1.4-.6.5-.1 1.1-.3 1.3-.6.2-.3.2-.8.2-1.4 0-.5-.1-1 .1-1.5.1-.5.5-.9.8-1.2.4-.4.7-.9.7-1.3s-.3-.8-.7-1.3c-.3-.4-.6-.8-.8-1.2-.2-.5-.1-1-.1-1.5 0-.6.1-1.1-.2-1.4-.2-.3-.7-.4-1.3-.6-.5-.1-1-.3-1.4-.6-.4-.3-.7-.7-1-1.2-.3-.5-.6-.9-1-1-.3-.1-.8.1-1.3.3-.5.2-1 .4-1.5.4s-1-.2-1.5-.4-1-.4-1.3-.3c-.4.1-.7.6-1 1-.3.4-.6.9-1 1.2-.4.3-.9.5-1.4.6-.5.1-1 .3-1.2.6-.3.3-.2.8-.2 1.4 0 .5.1 1-.1 1.5-.1.5-.5.9-.8 1.2-.4.4-.7.9-.7 1.3s.3.8.7 1.3c.3.4.6.8.8 1.2.2.5.1 1 .1 1.5 0 .6-.1 1.1.2 1.4.2.3.7.4 1.3.6.5.1 1 .3 1.4.6.4.3.7.7 1 1.2.3.5.6.9 1 1 .3.1.8-.1 1.3-.3.4-.2.9-.4 1.4-.4z"/></svg>