<svg xmlns="http://www.w3.org/2000/svg" viewBox="0 0 30 30" enable-background="new 0 0 30 30"><path d="M23.2 26.5H7.5c-.3 0-.5-.2-.5-.5v-1.6c0-.3.2-.5.5-.5s.5.2.5.5v1.1h14.7v-20h-1.1c-.3 0-.5-.2-.5-.5s.2-.5.5-.5h1.6c.3 0 .5.2.5.5v21c0 .3-.2.5-.5.5zM19.5 23.3H3.8c-.6 0-1-.4-1-1v-21c0-.6.4-1 1-1h15.7c.6 0 1 .4 1 1v21c0 .6-.4 1-1 1zm-14.7-2h13.7v-19H4.8v19zM15.3 7.2H7.9c-.3 0-.5-.2-.5-.5s.2-.5.5-.5h7.5c.3 0 .5.2.5.5s-.3.5-.6.5zM15.3 17.2H7.9c-.3 0-.5-.2-.5-.5s.2-.5.5-.5h7.5c.3 0 .5.2.5.5s-.3.5-.6.5zM15.3 12.2H7.9c-.3 0-.5-.2-.5-.5s.2-.5.5-.5h7.5c.3 0 .5.2.5.5s-.3.5-.6.5zM26.2 29.5H10.5c-.3 0-.5-.2-.5-.5v-1.6c0-.3.2-.5.5-.5s.5.2.5.5v1.1h14.7v-20h-1.1c-.3 0-.5-.2-.5-.5s.2-.5.5-.5h1.6c.3 0 .5.2.5.5v21c0 .3-.2.5-.5.5z"/></svg>