<svg xmlns="http://www.w3.org/2000/svg" viewBox="0 0 30 30" enable-background="new 0 0 30 30"><style type="text/css">.st0{fill:#FFFFFF;}</style><path d="M11.4 1.7v-.1.1zM11.6 1.4s.1 0 .1-.1c0 0-.1 0-.1.1zM11.4 1.5l.1-.1s0 .1-.1.1zM11.9 1.2c-.1 0-.1 0 0 0h.1-.1zM12.1 1.2c.2 0 .3.1.4.2-.1-.1-.3-.1-.4-.2zM12 1.2zM11.5 1.4c.1 0 .1 0 0 0 .1 0 .1 0 0 0zM12.5 1.5zM11.4 1.6s0-.1 0 0c0-.1 0 0 0 0zM11.7 1.3c.1 0 .1 0 0 0 .1 0 .1 0 0 0z"/><path class="st0" d="M11.3 14.2"/><path d="M19.8 19.8l3.2-.4-.2-1.9-.7.1-2.2-12.9c-.1-.3-.4-.5-.7-.5l-5.5.3-1.1-2.8s0-.1-.1-.1v-.1c-.1-.1-.2-.2-.4-.2h-.4s-.1 0-.1.1l-.1.1-.1.1V1.9L11 4.6l-3.4.2c-.2 0-.3.1-.5.2s-.2.4-.1.5l1.7 13.6-.8.1.2 1.9 1.2-.1-.3 3.6c0 .4.2.7.6.7h.1c.3 0 .6-.2.6-.6l.4-3.9.7-.1V28c0 .4.3.6.6.6s.6-.3.6-.6v-7.5l5.9-.7 2.8 7.1c.1.3.5.5.8.4.3-.1.5-.5.4-.8l-2.7-6.7zM9.9 19L8.3 6l10.4-.6 2.1 12.4L9.9 19zM14 16.1c-.1 0-.1 0 0 0-.2 0-.3-.1-.3-.3l-.4-1.8-1.4.1c-.5 0-.8-.3-.9-.7l-1-4.7c-.2-.3-.1-.5 0-.7.1-.2.3-.3.5-.3l6.3-.3c.5 0 .8.3.9.7l1 4.7c.1.2 0 .5-.1.6-.1.2-.3.3-.5.3l-1.7.1-2.2 2.2c-.1.1-.1.1-.2.1zm-.5-2.7c.1 0 .3.1.3.3l.3 1.5 1.9-1.9c.1-.1.1-.1.2-.1l1.8-.1h.1V13l-1-4.7c0-.1-.1-.3-.2-.3l-6.3.3h-.1v.1l1 4.7c0 .1.2.2.3.2l1.7.1z"/><circle cx="13" cy="10.5" r=".4"/><circle cx="14.4" cy="10.4" r=".4"/><circle cx="15.7" cy="10.4" r=".4"/></svg>