<svg xmlns="http://www.w3.org/2000/svg" viewBox="0 0 30 30" enable-background="new 0 0 30 30"><path d="M15 3.1C7.2 3.1.9 8.4.9 14.8c0 2.1.7 4.2 2 6.1L1.3 26c-.1.2 0 .5.2.7.1.1.3.2.5.2h.2l6.3-1.4c2 1 4.3 1.5 6.6 1.5 7.6 0 14.1-5.5 14.1-12.1C29.1 8.4 22.8 3.1 15 3.1zm1.4 18.1h-2.7v-2.6h2.7v2.6zm2.5-7.6c-.2.3-.7.7-1.3 1.2l-.6.5c-.3.3-.6.6-.7.9-.1.2-.1.6-.1 1.1h-2.4c0-1 .1-1.7.3-2.1.2-.4.6-.8 1.2-1.3l.7-.5c.2-.2.4-.3.5-.5.2-.3.4-.7.4-1.1 0-.5-.1-.9-.4-1.2-.3-.4-.7-.6-1.5-.6-.7 0-1.2.2-1.5.7-.3.5-.4.9-.4 1.4h-2.6c.1-1.7.7-2.9 1.8-3.6.7-.5 1.6-.7 2.6-.7 1.3 0 2.5.3 3.4 1 .9.6 1.3 1.6 1.3 2.9-.1.7-.3 1.4-.7 1.9z"/></svg>