<svg xmlns="http://www.w3.org/2000/svg" viewBox="0 0 30 30" enable-background="new 0 0 30 30"><path d="M4.5 15c2.2-4.3 6.3-7 10.5-7 1.1 0 2.1.2 3.1.5l.6-.8C17.5 7.2 16.3 7 15 7c-4.7 0-9.2 3-11.6 7.8-.1.1-.1.3 0 .4 1.2 2.5 3 4.5 5.1 5.8l.6-.8c-1.9-1.2-3.5-3-4.6-5.2zM26.6 14.8c-1.2-2.5-3-4.5-5.1-5.8l-.6.8c1.9 1.2 3.5 3 4.7 5.2-1.2 2.4-2.9 4.3-5 5.5-.2.1-.5.3-.7.4-.5.2-1 .5-1.5.6-2.1.7-4.3.7-6.4 0l-.6.8c.1 0 .1 0 .2.1 1.2.4 2.4.6 3.6.6s2.4-.2 3.6-.6c.6-.2 1.1-.4 1.7-.7.3-.1.5-.3.8-.4 2.3-1.4 4.2-3.5 5.5-6.1-.2-.1-.2-.3-.2-.4zM15 20.5c3 0 5.5-2.5 5.5-5.5 0-1.2-.4-2.4-1.1-3.3L13 20.1c.6.2 1.3.4 2 .4zM9.5 15c0 1.2.4 2.4 1.1 3.3L17 9.9c-.6-.2-1.3-.4-2-.4-3 0-5.5 2.5-5.5 5.5zM7 26c-.1 0-.2 0-.3-.1-.2-.2-.3-.5-.1-.7l16-21.1c.2-.2.5-.3.7-.1.2.2.3.5.1.7l-16 21.1c-.1.2-.2.2-.4.2z"/></svg>