<svg xmlns="http://www.w3.org/2000/svg" viewBox="0 0 30 30"><path d="M15 29.7C7.2 29.7.6 22.8.6 14.7.6 6.8 7 .3 15 .3s14.4 6.5 14.4 14.4c0 8.2-6.6 15-14.4 15zm0-28.1C7.8 1.6 1.9 7.5 1.9 14.7c0 7.4 6 13.7 13.1 13.7s13.1-6.3 13.1-13.7c0-7.2-5.9-13.1-13.1-13.1z"/><path d="M18.4 21.4l-.2.9c-.7.3-1.2.5-1.6.6-.4.1-.9.2-1.4.2-.8 0-1.5-.2-1.9-.6-.5-.4-.7-.9-.7-1.5 0-.2 0-.5.1-.7 0-.3.1-.5.2-.9l.9-3c.1-.3.1-.6.2-.8.1-.3.1-.5.1-.7 0-.4-.1-.7-.2-.8-.2-.2-.5-.2-.9-.2-.2 0-.5 0-.7.1-.2.1-.4.1-.6.2l.2-.9c.6-.2 1.1-.4 1.6-.6.5-.2 1-.2 1.5-.2.8 0 1.5.2 1.9.6.4.4.7.9.7 1.6v.7c0 .3-.1.6-.2.9l-.9 3c-.1.2-.1.5-.2.8-.1.3-.1.5-.1.7 0 .4.1.7.3.8.2.1.5.2.9.2.2 0 .4 0 .7-.1 0-.1.2-.2.3-.3zm.2-12.7c0 .5-.2 1-.6 1.4-.4.4-.9.6-1.4.6-.6 0-1-.2-1.4-.6-.4-.4-.6-.8-.6-1.4 0-.5.2-1 .6-1.4.3-.3.8-.5 1.4-.5.6 0 1 .2 1.4.6.4.3.6.8.6 1.3z"/></svg>