<svg xmlns="http://www.w3.org/2000/svg" viewBox="0 0 30 30" enable-background="new 0 0 30 30"><circle cx="15" cy="17.9" r="2.5"/><path d="M15 27c-.5 0-.8-.4-.8-.8v-7.7l-6.7-3.9c-.4-.2-.5-.7-.3-1.2.2-.4.7-.5 1.2-.3l7.1 4.1c.3.2.4.4.4.7v8.2c-.1.5-.4.9-.9.9zM15 27c-.5 0-.8-.4-.8-.8V18c0-.3.2-.6.4-.7l7.1-4.1c.4-.2.9-.1 1.2.3.2.4.1.9-.3 1.2l-6.7 3.9v7.7c-.1.3-.4.7-.9.7zM15 18.5c-.3 0-.6-.3-.6-.6V6.2c0-.3.3-.6.6-.6s.6.3.6.6V18c0 .3-.3.5-.6.5z"/><circle cx="15" cy="6.2" r="2.3"/><path d="M15 10.2c-2.3 0-4.1-1.8-4.1-4.1S12.7 2 15 2s4.1 1.8 4.1 4.1-1.8 4.1-4.1 4.1zm0-7.6c-1.9 0-3.5 1.6-3.5 3.5s1.6 3.5 3.5 3.5 3.5-1.6 3.5-3.5-1.6-3.5-3.5-3.5zM25.2 27.9c-2.3 0-4.1-1.8-4.1-4.1s1.8-4.1 4.1-4.1 4.1 1.8 4.1 4.1-1.8 4.1-4.1 4.1zm0-7.6c-1.9 0-3.5 1.6-3.5 3.5s1.6 3.5 3.5 3.5 3.5-1.6 3.5-3.5-1.5-3.5-3.5-3.5zM4.8 27.9c-2.3 0-4.1-1.8-4.1-4.1s1.8-4.1 4.1-4.1 4.1 1.8 4.1 4.1-1.9 4.1-4.1 4.1zm0-7.6c-1.9 0-3.5 1.6-3.5 3.5s1.6 3.5 3.5 3.5 3.5-1.6 3.5-3.5-1.6-3.5-3.5-3.5zM4.8 24.4c-.2 0-.4-.1-.5-.3-.2-.3-.1-.6.2-.8l10.2-5.9c.3-.2.6-.1.8.2.2.3.1.6-.2.8L5.1 24.3c-.1.1-.2.1-.3.1z"/><circle cx="4.8" cy="23.8" r="2.3"/><path d="M25.2 24.4c-.1 0-.2 0-.3-.1l-10.2-5.9c-.3-.2-.4-.5-.2-.8.2-.3.5-.4.8-.2l10.2 5.9c.3.2.4.5.2.8-.1.2-.3.3-.5.3z"/><circle cx="25.2" cy="23.8" r="2.3"/></svg>