<svg xmlns="http://www.w3.org/2000/svg" viewBox="0 0 30 30" enable-background="new 0 0 30 30"><path d="M27 7l-5.9-5.8c-.3-.3-.8-.5-1.3-.5H4.3c-1 0-1.8.8-1.8 1.8v25.1c0 1 .8 1.8 1.8 1.8h21.5c1 0 1.8-.8 1.8-1.8V8.3c-.1-.5-.3-1-.6-1.3zm-1.3 20.5H4.3v-25h15.6v5.8h5.9v19.2zM15 13c.5-1.3.9-2.4 1-3.2.7-4-4.1-4.3-3.6 0 .1 1.1.5 2.2 1 3.3-.6 1.5-1.3 3.1-2.1 4.6-1.7.6-2.9 1.3-3.6 2-2.5 2.4.6 5.5 3 2.1.6-.8 1.2-2 1.7-2.9 1.5-.5 3.2-1 4.8-1.3 1 .8 2.7 1.8 4.1 1.8 2.6 0 2.9-3.2 0-3.6-1.1-.2-2.6 0-3.7.2-.9-.6-1.9-1.6-2.6-3zm-6 8.4c-.7.7-1.1.2-.5-.5.4-.4 1.1-.9 1.7-1.2-.4.7-.8 1.3-1.2 1.7zm4.9-12.6c.1-.7.6-.6.7-.1.1.6-.2 1.7-.4 2.2-.3-.5-.4-1.5-.3-2.1zm-.7 8.2s.8-1.7 1.1-2.4c.3.6 1.4 1.7 1.4 1.7-.3.2-1.8.5-2.5.7zm7.8.3c.9.1 1 .7.2.7-.7 0-1.4-.4-1.9-.7.7-.1 1.3-.1 1.7 0z"/></svg>