<svg xmlns="http://www.w3.org/2000/svg" viewBox="0 0 30 30" enable-background="new 0 0 30 30"><path d="M3.3 11.6c0-1.2.8-2 1.9-2 1.1 0 1.9.8 1.9 2 0 .9-.4 1.8-1 2.3 0 .1-.1.1-.1.2v.9c0 .9 2.3 1.5 3.3 1.7h.1c.1 0 .2-.1.3-.2 0-.2-.1-.3-.2-.3-1.6-.3-2.8-.9-2.9-1.1v-.7c.7-.6 1.1-1.6 1.1-2.6 0-1.5-1.1-2.6-2.5-2.6s-2.5 1.1-2.5 2.6c0 1 .4 2 1.1 2.6v.6c0 .2-1.3.8-2.9 1.1-.2 0-.3.2-.2.3 0 .2.2.3.3.2 1-.2 3.3-.8 3.3-1.7V14c0-.1 0-.2-.1-.2-.5-.4-.9-1.3-.9-2.2zM29 18.3c-2.4-.5-4.9-1.4-4.9-2V15c1.2-1 1.9-2.6 1.9-4.3 0-2.4-1.6-4.1-4-4.1-1 0-1.9.3-2.6.9-.9-1.4-2.5-2.2-4.4-2.2-3.1 0-5.3 2.3-5.3 5.5V11.7c0 .2.1.4.1.5v.2c0 .2.1.4.1.6 0 .1.1.2.1.3 0 .1.1.2.1.3l.6 1.2s0 .1.1.1c.2.2.3.5.5.7 0 0 0 .1.1.1.1.1.2.2.2.3l.2.2.1.1V18c0 .5-2.7 1.7-6.2 2.4-.1 0-.2.1-.3.2l-1 1c-.1.1-.2.3-.1.5 0 .2.2.3.3.4 3.3 1.5 6.7 2.3 10.1 2.3 3.4 0 6.8-.8 10.2-2.3.2-.1.3-.2.3-.4s0-.4-.1-.5l-1-1c-.1-.1-.2-.1-.3-.2-3.3-.7-5.8-1.7-6.1-2.3 2.3-.8 2.5-1.4 2.5-1.8v-1.5c0-.1 0-.2-.1-.2-.2-.2-.5-.4-.7-.7.3-.7.5-1.4.6-2.2V10.9c0-1.1-.2-2-.7-2.8.6-.6 1.4-.9 2.3-.9 2 0 3.4 1.5 3.4 3.6 0 1.5-.7 3.1-1.8 3.9-.1.1-.1.1-.1.2v1.5c0 1.4 4.1 2.3 5.4 2.6h.1c.1 0 .2-.1.3-.2.4-.3.3-.5.1-.5zM15 6.4c2.5 0 4.2 1.8 4.2 4.4V11.6c-.2 1.6-1 3.2-2.2 4.1-.3.3-.7.5-1.1.6-.6.2-1.2.2-1.8 0-.4-.1-.7-.3-1.1-.6-1.1-.9-2-2.5-2.2-4.1V10.8c0-2.6 1.7-4.4 4.2-4.4zm-1.3 10.9c.4.1.8.2 1.2.2.4 0 .8-.1 1.2-.2.2-.1.4-.1.5-.2v.9c0 .3.1.5.3.7-.8.5-1.4 1-2 1.7-.7-.6-1.3-1.1-2-1.7.2-.2.3-.5.3-.7v-.9c.2.1.4.2.5.2zm10.2 4.4c-6.1 2.4-12.1 2.5-17.9 0l.3-.3c1.7-.4 4.9-1.2 6.3-2.3.8.6 1.5 1.1 2.2 1.8 0 .1.1.1.2.1s.1 0 .2-.1c.8-.8 1.4-1.2 2.2-1.8 1.4 1.2 4.5 2 6.2 2.3l.3.3zm-4-6.8v1.3c0 .1-.1.6-2 1.2v-1.1c.6-.5 1.1-1.2 1.5-1.9.2.2.3.4.5.5z"/></svg>