<svg xmlns="http://www.w3.org/2000/svg" viewBox="0 0 30 30"><path d="M20.1 4.9c-1.3 0-2.4.4-3.4.8-.6.2-1.2.5-1.6.5-.1-.4-.2-.8-.3-1.1 2.3.6 3.8-1.9 4.6-4.3-2.9-.4-4.9 1.8-4.7 3.9-.4-1.1-.8-2.2-1.5-3l-1.2.9c.7.9 1.2 2.1 1.5 3.3-.1 0-.2-.1-.2-.1-1-.4-2.1-.8-3.3-.8h-.1c-4.1 0-8.2 3.4-8.2 9.7 0 6.5 4.7 14.6 8.6 14.6h.1c1 0 1.7-.3 2.4-.6s1.3-.5 2.2-.6c.9 0 1.6.3 2.2.6.7.3 1.4.6 2.4.6h.1c1.8 0 4-1.8 5.8-4.9 1.8-3 2.8-6.6 2.8-9.7 0-6.3-4.1-9.7-8.2-9.8zm4.2 18.7c-1.5 2.5-3.3 4.2-4.5 4.2h-.1c-.8 0-1.3-.3-1.9-.5-.8-.3-1.6-.7-2.8-.7-1.2.1-2 .4-2.7.7-.6.3-1.2.5-2 .5-1.3 0-3-1.6-4.5-4.2-1.6-2.8-2.6-6.2-2.6-9C3.1 9 6.6 6.4 10 6.4c.9 0 1.9.4 2.8.7.4.2.8.3 1.1.4.1.8.2 1.5.3 1.9-1.4-.2-1.8-.7-1.8-.7-.1-.2-.3-.2-.5-.1s-.2.3-.2.5c.1.1.7 1.2 3.2 1.2s3.1-1 3.1-1.2c.1-.2 0-.4-.2-.5-.2-.1-.4 0-.5.2 0 0-.3.6-1.8.7 0-.4-.1-1-.2-1.8.6-.1 1.2-.3 1.8-.6.9-.3 1.8-.7 2.8-.7 3.3 0 6.8 2.7 6.8 8.3.2 2.8-.8 6.2-2.4 8.9z"/></svg>