<svg xmlns="http://www.w3.org/2000/svg" viewBox="0 0 30 30" enable-background="new 0 0 30 30"><path d="M21.4 5.1c-.1-.3-.4-.4-.6-.4-4.6 0-5-1.2-5.3-2.3-.3-.9-.7-2.1-2.9-2.1-1.2 0-3.3 1.1-3.5 1.2-.4.2-.5.4-.5.7v7.5c0 .2.1.5.3.6v18.6c0 .2.2.3.3.3s.3-.2.3-.3V10.2c.1-.1.2-.1.2-.2.3-.6 1.4-2 2.5-2 .2 0 .4.1.6.2.6.3 1.3.5 2.2.5 2 0 4.4-1.1 6.1-2.8.3-.2.4-.5.3-.8zm-7.8 1.8c-.4-.2-.8-.3-1.2-.3-.9 0-1.8.5-2.4 1.1V2.6c.8-.4 2-.9 2.5-.9 1.3 0 1.4.3 1.6 1.1.5 1.5 1.2 2.8 4.8 3.1-1.9 1.3-4.1 1.7-5.3 1z"/></svg>