<svg xmlns="http://www.w3.org/2000/svg" viewBox="0 0 30 30" enable-background="new 0 0 30 30"><path d="M29.4 24.4L28 23c-.1-.1-.2-.1-.3-.2-4.3-.9-8.9-2.5-8.9-3.6v-2.4l.1-.1.5-.5.3-.3c.1-.1.2-.2.2-.3.2-.2.4-.5.6-.8 0-.1.1-.1.1-.2.1-.2.2-.3.3-.5 0-.1.1-.2.1-.2.1-.3.3-.6.4-.9.1-.1.1-.3.2-.4.1-.1.1-.3.1-.4.1-.2.1-.5.2-.7 0-.1 0-.2.1-.3.1-.3.1-.5.1-.8v-.3c0-.3.1-.7.1-1 0-4.4-3-7.5-7.3-7.5S7.6 4.7 7.6 9.1c0 .3 0 .7.1 1v.3c0 .3.1.5.1.8 0 .1 0 .2.1.3.1.3.1.5.2.8 0 .1.1.3.1.4.1.1.1.3.2.4.1.3.2.6.4.8 0 .1.1.2.1.3.1.2.2.3.3.5 0 .1.1.2.2.2.2.3.3.5.5.7l.3.3.3.3.5.5.1.1v2.4c0 1.1-4.6 2.7-8.9 3.6-.1 0-.2.1-.3.2L.5 24.4c-.1.1-.2.3-.2.5s.2.3.3.4c4.6 2.1 9.4 3.2 14.1 3.2 4.7 0 9.6-1.1 14.4-3.2.2-.1.3-.2.3-.4.2-.2.2-.4 0-.5zM21.1 9.1c0 .3 0 .6-.1.9v.1c-.3 2.4-1.5 4.7-3.1 6-.5.4-1 .7-1.6.9-.9.3-1.8.3-2.7 0-.6-.2-1.1-.5-1.6-.9-1.7-1.3-2.9-3.6-3.1-6V10c0-.3-.1-.6-.1-1 0-3.7 2.5-6.4 6.1-6.4 3.7.1 6.2 2.7 6.2 6.5zm-7.8 9c.6.2 1.1.3 1.7.3.6 0 1.1-.1 1.7-.3.4-.1.7-.3 1-.5v1.5c0 .3.1.7.4 1-1.2.9-2.1 1.6-3.1 2.6-1-1-1.9-1.7-3.1-2.5.2-.3.4-.6.4-1v-1.5c.3.1.7.3 1 .4zm1.6 9.2c-4.3 0-8.6-.9-12.9-2.7l.7-.7c2-.4 6.9-1.6 8.9-3.3 1.2.9 2.2 1.6 3.3 2.7.1.1.1.1.2.1s.2 0 .2-.1c1.1-1.1 2-1.8 3.3-2.7 1.9 1.7 6.9 2.9 8.8 3.3l.6.7c-4.4 1.8-8.8 2.7-13.1 2.7z"/></svg>