<svg xmlns="http://www.w3.org/2000/svg" viewBox="0 0 30 30"><path d="M26.6 14.8C24.2 10 19.7 7 15 7s-9.2 3-11.6 7.8c-.1.1-.1.3 0 .4C4.7 17.9 6.7 20 9 21.3c.3.2.5.3.8.4.5.3 1.1.5 1.7.7 1.2.4 2.4.6 3.6.6s2.4-.2 3.6-.6c.6-.2 1.1-.4 1.7-.7.3-.1.5-.3.8-.4 2.3-1.4 4.2-3.5 5.5-6.1-.1-.1-.1-.3-.1-.4zm-6.1 5.7c-.2.1-.5.3-.7.4-.5.2-1 .5-1.5.6-2.1.7-4.4.7-6.5 0l-1.5-.6c-.2-.1-.5-.3-.7-.4-2.1-1.2-3.8-3.1-5-5.5 2.2-4.3 6.3-7 10.5-7s8.3 2.7 10.5 7c-1.3 2.4-3 4.3-5.1 5.5z"/><circle cx="15" cy="15" r="5.5"/></svg>