<svg xmlns="http://www.w3.org/2000/svg" viewBox="0 0 30 30" enable-background="new 0 0 30 30"><style type="text/css">.st0{fill:none;stroke:#000000;stroke-linecap:round;stroke-linejoin:round;stroke-miterlimit:10;}</style><path class="st0" d="M15 7.5c-4.7 0-8.9 3-11.1 7.5 1.2 2.5 3.1 4.6 5.3 5.9.2.1.5.3.8.4.5.3 1 .5 1.6.7 1.1.4 2.2.5 3.4.5s2.3-.2 3.4-.5c.5-.2 1.1-.4 1.6-.7.3-.1.5-.3.8-.4 2.2-1.3 4.1-3.4 5.3-5.9-2.2-4.5-6.4-7.5-11.1-7.5z"/><path d="M20.5 15c0-3-2.5-5.5-5.5-5.5S9.5 12 9.5 15s2.5 5.5 5.5 5.5 5.5-2.5 5.5-5.5z"/></svg>